<svg xmlns="http://www.w3.org/2000/svg" width="100%" height="100%" viewBox="0 0 154 154" fill-rule="evenodd" stroke-linejoin="round" stroke-miterlimit="1.41421"><circle cx="77.009" cy="77.006" r="76.994" fill="#ebebeb"/><g fill-rule="nonzero"><path d="M81.6 0c.6.3 1.3.2 1.9.2 16.4 1.5 31 7.5 43.5 18.2 12.7 10.8 21 24.5 24.9 40.7 1.2 5 1.9 10.2 2 15.4 0 1.5.1 3.1 0 4.6-.2-1.2-1.2-1.9-1.9-2.6l-5-5c-4.8-4.6-9.4-9.4-14.2-14.1-4.6-4.4-8.9-8.9-13.5-13.4l-3.5-3.3c-.1-.1-.3-.2-.5-.3-.8-.8-1.4-1.7-2.1-2.5s-1.4-1.4-2.1-2.2c-.4-.4-.6-.3-.9.1-1.5 2.7-2.8 5.4-3.8 8.3-.8 2.3-1.6 4.7-1.9 7.1-.1.6.1 1.2-.3 1.7-.5.2-.6-.2-.9-.4l-7.2-7.2c-.2-.2-.4-.4-.7-.5-1.2-1.5-2.7-2.7-4.3-3.9-4.5-3.3-9.5-5.5-14.9-6.7-3.5-.8-7.1-1.1-10.7-.8a37.92 37.92 0 0 0-18.1 5.8c-5.7 3.7-10 8.6-13.4 14.5-2.4 4.1-4.1 8.5-5.4 13.1-.5 1.6-.6 3.3-.8 5-.3 3.3-.6 6.5-.4 9.8.2 5.6.9 11 2.8 16.3.8 2.3 2.2 4.3 3.5 6.2 2 2.9 4.3 5.5 6.8 7.9 1.3 1.2 2.6 2.4 4.1 3.4.3.2.5.4.7.6.1.3.3.4.5.6l36.3 36.3c.2.2.6.4.6.9-4.3.4-8.6.3-12.9-.1a72.16 72.16 0 0 1-17.2-3.6c-10.4-3.5-19.7-8.9-27.7-16.4-12.2-11.3-20-25.1-23.4-41.4C.8 89 .4 85.7.2 82.3c0-.2.1-.4-.1-.5v-.4c.2-.3 0-.7.1-1 0-.3.1-.7-.1-1v-4.8c.2-.3 0-.7.1-1v-1.2c0-4.3.7-8.5 1.7-12.7 1.3-6.7 3.7-13 7-19.1 2.6-4.9 5.8-9.5 9.4-13.8 1.3-1.5 2.7-3 4.1-4.4 3.3-3.2 6.7-6.2 10.5-8.8C39 9.4 45.5 6.1 52.6 3.7 57.4 2.1 62.4 1 67.5.3a40.28 40.28 0 0 1 4.9-.3h1.2c.3 0 .7.1 1-.1h4.8c.3.2.7 0 1 .1.3 0 .7.1 1-.1.1.1.2.1.2.1z" fill="#3eb39d"/><path d="M72.3.1V0h1.3s.1.1 0 .1h-1.3zM0 72.3h.1v1.3c0 .1-.1.1-.1 0v-1.3z" fill="#b3e0d8"/><path d="M73.6.1V0h1c-.3.3-.7.1-1 .1z" fill="#6fc7b6"/><path d="M80.4.1c-.3 0-.7.1-1-.1h1v.1z" fill="#6ac5b4"/><path d="M80.4.1V0h1c-.3.3-.7.1-1 .1z" fill="#9fd9ce"/><path d="M0 73.6h.1c0 .3.1.7-.1 1v-1z" fill="#6fc7b6"/><path d="M0 79.3c.3.3.1.7.1 1 0 .1-.1 0-.1 0v-1z" fill="#6cc6b5"/><path d="M0 80.4h.1c0 .3.2.7-.1 1v-1z" fill="#9fd9ce"/><path d="M95.6 44.8c.3-.1.4.2.6.4 2.5 2.4 4.9 4.9 7.3 7.3.2.2.4.3.6.5.3.7.2 1.5.3 2.3s.3 1.6.6 2.4c.2.5.5.7 1 .7h11.7c.5 0 .8-.2 1.1-.5 1.2-1.3 1.8-2.8 1.9-4.6s-.3-3.6-1-5.3c-.9-2.5-2.4-4.7-3.9-6.9-.2-.3-.5-.5-.4-.9.3-.2.4.2.5.3 5.4 5.1 10.5 10.5 15.8 15.6l13.7 13.6 7.6 7.5c.5.5.9 1 .8 1.8-.1 7.2-1.3 14.3-3.5 21.1-3.5 11.1-9.3 21-17.3 29.5-11.4 12.1-25.4 19.8-41.7 23-2.9.6-5.8 1-8.8 1.1l-.6-.6-36.1-36.3c-.2-.2-.5-.3-.4-.6.4-.1.7.2 1 .4 4.7 3.4 9.9 5.8 15.4 7.4 2.1.6 4.3.9 6.4 1.1 2.5.2 5 0 7.5-.7 5.4-1.5 9-4.9 10.3-10.4 1.2-4.7 1.4-9.4.2-14.2-.3-1.2-.7-2.3-1.2-3.5-.5-1.1-1.4-1.9-2.2-2.9-2-2.5-3.7-5.1-4.7-8.2-.9-2.9-.8-5.8 1.1-8.4.5-.7 1.1-1.3 1.9-1.8 2.3-1.5 4.6-3.1 6.7-4.9 3.2-2.8 6.1-5.8 8.2-9.4 1.8-3.2 2.6-6.6 2-10.2-.3-1.8-1-3.4-2-4.9-.2-.2-.5-.4-.4-.8z" fill="#359885"/><path d="M95.6 44.8c1 1.6 2 3.3 2.4 5.2.7 3.3.1 6.4-1.2 9.5-1.2 2.9-3.3 5.2-5.4 7.5-2.9 3.1-6.2 5.8-9.8 8-2.8 1.7-4.4 5.3-3.7 8.8.7 3.6 2.5 6.8 4.9 9.4 3 3.2 4 7.1 4.2 11.3.2 3.1 0 6.1-.8 9.1-1.5 6.1-5.5 9.9-11.6 11.2-5.3 1.2-10.4.4-15.4-1.3s-9.7-4.2-14-7.3c-4.2-3.2-7.9-6.9-11.1-11.1-3.6-4.7-5.5-10-6.3-15.8-.5-3.9-.8-7.7-.6-11.6.1-3.5.3-7 1-10.4.7-3.3 2-6.5 3.5-9.6C34.1 52.7 37 48 41 44c5.9-5.8 12.9-9.4 21.1-10.5C74 31.9 84.5 35 93.6 42.6c.8.7 1.4 1.4 2 2.2zm19.9-4.5c1.7 2.3 3.3 4.7 4.4 7.5.9 2.2 1.4 4.4.9 6.7-.3 1.5-1 2.7-2.1 3.8-.2.2-.5.3-.8.3h-12.2c-.4 0-.6-.1-.8-.5-.7-1.5-.8-3-.9-4.6V53c.5-6.4 3.1-12 6.1-17.5.3-.5.5-.5.9-.1 1.7 1.5 3.1 3.2 4.5 4.9z" fill="#fbfbfb"/><path d="M118.7 93.4v27.1c0 2.1-1.1 3.2-3.3 3.2h-6.3c-2.1 0-3.3-1.2-3.3-3.3V66.5c0-2 1.1-3.5 3.4-3.4h6.3c2-.1 3.2 1.5 3.2 3.2v27.1z" fill="#b8cf34"/><path d="M111.9 61.9h-6c-.9 0-1.4-.4-1.4-1s.5-1.1 1.4-1.1h11.9c.8 0 1.3.4 1.2 1.1 0 .6-.5 1-1.3 1h-5.8z" fill="#fafbfb"/><path d="M78.1 107.4c-.1 2.9-1.3 5.9-4.1 8.1-3.5 2.8-8.7 2.3-11.7-1.2-3.8-4.4-3.7-11 .2-15.3s10.6-3.5 13.8 1.5c1.2 2 1.8 4.1 1.8 6.9z" fill="#db4844"/><path d="M42.8 101.3c-4 0-7.2-3.2-7.2-7.3 0-4 3.3-7.3 7.2-7.2 4.4.1 7.3 3.5 7.3 7.3 0 4-3.2 7.2-7.3 7.2z" fill="#bd55a0"/><path d="M82.4 57.2c-4 0-7.1-3.1-7.1-7.1a7.13 7.13 0 0 1 7.1-7.1 7.13 7.13 0 0 1 7.1 7.1 7.13 7.13 0 0 1-7.1 7.1z" fill="#eb5c39"/><path d="M38.3 81.4c-3.7 0-6.8-3.1-6.8-6.9s3.1-6.9 6.9-6.8c3.8 0 6.9 3.1 6.9 6.9-.1 3.7-3.3 6.8-7 6.8z" fill="#60ba40"/><path d="M63.5 53.3a6.49 6.49 0 0 1-6.5-6.5c0-3.6 2.7-6.6 6.6-6.6 4 0 6.6 3.2 6.5 6.7 0 3.7-3.2 6.6-6.6 6.4z" fill="#f9d162"/><path d="M52.9 57.2a6.49 6.49 0 1 1-13 0 6.49 6.49 0 1 1 13 0z" fill="#5dc3b5"/></g></svg>