<svg xmlns="http://www.w3.org/2000/svg" xmlns:xlink="http://www.w3.org/1999/xlink" viewBox="0 0 108.4 108.4"><circle cx="54.2" cy="54.2" r="54.2" fill="#184f78"/><defs><circle id="A" cx="54.2" cy="54.2" r="54.2"/><path id="B" d="M30.1 85.7v-3.8c0-.3.2-.6.4-.9.5-.7 1.2-1.1 2.1-1.1h3.1c1.4 0 2.5 1.1 2.5 2.5V89c0 .9-.6 1.3-1.3 1.3h-5.4c-.9 0-1.3-.5-1.3-1.3-.1-1.1-.1-2.2-.1-3.3z"/></defs><clipPath id="C"><use xlink:href="#A"/></clipPath><path d="M111.9 71.2l1.6-16.4-29.7-29.4-62.3 34.2 4.3 4.7-4.1 23 24.1 24 39-2.2z" opacity=".15" clip-path="url(#C)"/><path d="M76.3 60.4c-1.4.1-2.8.6-2.3 2.3.7 2.3 2.9.9 4.3 1.5 2.4 1 1.9 2.9 1 4.3-2.8 4.6-3.3 9.5-3.1 14.7.1 1.6-.2 3.2-1.9 4.1H34.2c-2.1-1-2-3-2-4.9.2-4.8-.4-9.3-2.9-13.5-.9-1.6-1.7-3.5.9-4.7.5 0 1.1-.1 1.6-.1 1.3.1 2.6 0 2.8-1.5.2-1.9-1.4-1.9-2.7-2.1-2.6-1.1-1.6-2.7-.4-4.1 1.1-1.3 2.8-2.1 4.2-3.1 7.9-5.7 12.6-13.4 14.7-22.8.9-4 .2-4.8-3.9-4.9-3.2-.1-6.4-.1-9.6 0-6.9.3-10.9 4.2-11.1 11.2-.2 6.3 0 12.6-.1 18.9 0 1.8.5 3.9-1.9 4.8-2.3.1-2.6-1.3-2.6-3.1l.1-22.9c.3-7.5 5.9-13.3 13.3-13.4a875.72 875.72 0 0 1 39.7 0c7.3.1 12.9 5.8 13.2 13.1.3 7.7.1 15.5.1 23.3 0 1.8-.4 3.3-2.7 3-2.2-1-1.9-3-1.9-4.8L82.9 37c-.1-5.1-2.3-8.9-7.4-10.7-5.4-1.4-10.9-.4-16.3-.6-.5 0-1 .2-1.4.6-1.5 1.4-2.3 10.4-1.2 12 .8 1.1 1.9.6 2.9.9 1 .2 1.7.8 2.2 1.6 3.7 6.2 8.5 11.2 14.7 15 1.7 1.1 3.4 3-.1 4.6z" fill="#444b54"/><path d="M56.6 64.6l-4.7-5.4-7.1.8 3.7-6.1-3-6.5 7 1.6 5.2-4.8.7 7.1 6.2 3.5-6.6 2.8z" fill="#f2f2f2"/><path d="M23.6 60.4c1.3-1.3 1-3 1-4.6V36.5c.1-7.6 4.4-11.9 12-12 3.9-.1 7.8.2 11.7-.1 3.6-.3 4.1 1.4 3.5 4.3-2.1 11.7-8 20.8-18.2 27.1-1.7 1.1-3.8 2-1.8 4.5l-8.2.1zm52.7 0c1.7-1.6 1.5-2.9-.5-4-7-3.9-12.1-9.8-15.9-16.8-3.1-2.9-4.9-10-3.6-13.6.4-1.2 1.3-1.2 2.2-1.1 5.6.1 11.2-.3 16.7.3 5.6 1.4 8.5 5 8.6 11v19.7c0 1.6-.3 3.2.9 4.6-2.8-.1-5.6-.1-8.4-.1z" fill="#fe5575"/><path d="M74.2 87.1c1.3-2.1.8-4.4.7-6.7-.1-4.4.8-8.5 3.3-12.1 1-1.5 1.5-2.8 0-4.3 2.6 0 5.2-.5 7.7.1-1.5 5.6-.6 11.4-.8 17-.1 2 .3 4-.9 5.8h-3.5c-1.5-2.3 1-5.3-1.3-7.7-1.9 2.5 0 5.3-1.1 7.7-1.3.3-2.7.3-4.1.2zm-44.1-23c-1.1 1.1-1.4 2.3-.4 3.6 3.5 4.7 4 10.1 3.7 15.6-.1 1.4 0 2.7.8 3.9h-4.1c-1-2.4.6-5.2-1.1-7.9-2.1 2.6-.3 5.5-1.4 7.9h-3.5c-1.2-1.8-.8-3.8-.9-5.8-.2-5.7.6-11.4-.8-17 2.5-.7 5.1-.3 7.7-.3z" fill="#fb5575"/><path d="M22.4 64.3c1.3.2 2.2.8 2.2 2.3-.2 6.8.5 13.7-.4 20.6-1.6.4-3.1.2-3.1-1.9-.1-6.4 0-12.8 0-19.2-.1-.9.4-1.5 1.3-1.8zm61.9 22.8c-.9-6.8-.2-13.7-.4-20.6 0-1.5.9-2.1 2.2-2.3 1.6.7 1.4 2.1 1.4 3.4V84c0 2.2-.5 3.8-3.2 3.1z" fill="#454b54"/><path d="M27.7 87.1c-1.3-2.4-.9-4.9-.6-7.3.1-1 .6-2.2 1.9-2.1 1.3 0 1.8 1 1.8 2.2 0 2.5.6 5-.8 7.4-.7-.1-1.5-.2-2.3-.2zm50.6.1c-1.3-2.4-.7-5-.7-7.5 0-1 .5-1.8 1.6-2 1.4-.2 1.9 1 2.1 2 .6 2.5.2 5-.6 7.5-.8-.1-1.6 0-2.4 0z" fill="#dc3f65"/><path d="M75.2 25.1l-15.2.1c-3-.1-3.8 1.2-3.4 3.8.6 3.7 1.7 7.3 3.2 10.7-1.4-.3-2.6.3-3.4 1.1-4.1-4.8-.6-9.8-.6-14.7 0-.9.6-1.6 1.5-1.5 6 .1 12-1 17.9.5z" fill="#d53f63"/><path d="M36.4 48.4c-1 0-1.5-.3-1.9-.9-.4-.7-.1-1.3.4-1.8 4.5-4.4 7.4-9.7 9-15.7.3-1.2 1.3-1.8 2.5-1.3 1 .3 1.5 1.2 1.2 2.2-1.8 6.5-4.7 12.5-10 16.9-.4.3-.9.5-1.2.6z" fill="#db3e64"/><path d="M30.2 52.9c-.9-.4-1.8-.7-1.6-1.9.2-1 .9-1.6 2-1.5 1 .1 1.4 1 1.4 1.7 0 1-.7 1.7-1.8 1.7z" fill="#dc3f65"/><path d="M79.9 51.3c-.5 1.6-1.6 2.1-3.1 1.2-8.2-5.1-13.6-12.3-16-21.7-.3-1.1.3-1.9 1.3-2.2 1.5-.4 2.2.5 2.6 1.8 1.2 4.4 3.3 8.3 6.1 12.1 1.9 2.6 4.5 4.1 6.9 6 .9.8 1.9 1.4 2.2 2.8z" fill="#db3e64"/><g fill="#fff"><path d="M60.3 86.1v-3.7c0-1.5 1.1-2.6 2.6-2.6h3c1.4 0 2.5 1.1 2.5 2.4V90c0 .2-.1.2-.3.2h-7.6c-.3 0-.3-.1-.3-.3.1-1.2.1-2.5.1-3.8z"/><use xlink:href="#B"/><use xlink:href="#B" x="10"/><path d="M75.7 79.9h.5l.8.2c.9.4 1.4 1.1 1.4 2.1v6.9c0 .7-.5 1.2-1.2 1.2h-5.7c-.6 0-1.2-.5-1.2-1.1v-4.1c0-1.2-.1-2.3.1-3.5.2-.9 1.2-1.8 2.1-1.8 1.2.1 2.1.1 3.2.1zm-23 0h3.4c1.2 0 2.2 1.1 2.3 2.3v7c0 .7-.5 1.2-1.3 1.2h-5.6c-.7 0-1.2-.4-1.2-1-.1-1.7-.1-3.5 0-5.2v-1.4l.1-1.2c.1-.3.2-.6.5-.8l.4-.4c.2-.2.4-.3.7-.4l.7-.1zm11.7-.5c-1.8 0-3.2-1.4-3.2-3.2a3.05 3.05 0 0 1 3.1-3.1c1.9 0 3.3 1.3 3.3 3.1s-1.4 3.2-3.2 3.2zm-30.5-6.3c2.1-.1 3.4 1.5 3.4 3.1 0 1.8-1.3 3.2-3.1 3.2-1.8.1-3.2-1.4-3.2-3.1-.1-1.8 1.3-3.2 2.9-3.2zm8.5-3.2c0 1.8-1.4 3.2-3.2 3.2-1.6 0-3.2-1.3-3.2-3.2s1.3-3.2 3.2-3.2c1.8 0 3.2 1.4 3.2 3.2zm16.9 3.2c-1.7 0-3.2-1.5-3.2-3.2s1.5-3.2 3.2-3.1c1.9 0 3.2 1.5 3.2 3.2.1 1.7-1.4 3.1-3.2 3.1zm13.3-3.2c0 1.7-1.4 3.2-3.2 3.2s-3.2-1.5-3.2-3.2c0-1.9 1.5-3.2 3.2-3.2s3.2 1.4 3.2 3.2zm-23.3 3.2c-1.8 0-3.2-1.4-3.2-3.2 0-1.7 1.5-3.2 3.2-3.2 1.8 0 3.2 1.5 3.1 3.2 0 1.7-1.1 3.1-3.1 3.2zm5 6.3c-1.8 0-3.2-1.4-3.2-3.2s1.3-3.2 3.2-3.1c1.8 0 3.2 1.4 3.2 3.2 0 1.7-1.5 3.1-3.2 3.1zm-10.1 0c-1.8 0-3.2-1.5-3.1-3.3a3.17 3.17 0 0 1 3.4-3c1.6.1 3 1.5 3 3.2-.1 1.7-1.6 3.2-3.3 3.1zM77 78.1c.3-.3.5-.7.6-1.1.3-1.4-.3-2.9-1.5-3.5-1.1-.6-3-.5-3.9.6-1.1 1.4-1.1 3.1 0 4.4 1.1 1.2 3 1.3 4.3.3l.5-.7zm-20.1-4.4c.8-.2 4.2-.3 4.7 0-1.7 2.1-1.1 4.5.8 5.7a3.09 3.09 0 0 0-2 1.1c-.5.5-.7 1.2-.7 1.9v1.7h-.2c-.7 0-.7 0-.7-.8 0-.6.1-1.2-.1-1.8-.4-1.2-1.2-1.8-2.5-2.1 1-.7 1.6-1.5 1.8-2.7.1-1.2-.3-2.1-1.1-3zm-10 0c.8-.2 4.2-.3 4.7 0-1.7 2.1-1.1 4.5.8 5.7a3.09 3.09 0 0 0-2 1.1c-.5.5-.7 1.2-.7 1.9v1.7h-.2c-.7 0-.7 0-.7-.8 0-.6.1-1.2-.1-1.8-.4-1.2-1.2-1.8-2.5-2.1 1-.7 1.6-1.5 1.8-2.7 0-1.2-.3-2.1-1.1-3zm25.7 5.7c-.7.1-1.2.4-1.7.8-.7.6-1 1.4-1 2.3 0 .4-.1.9 0 1.3 0 .2-.1.2-.2.2-.8 0-.7 0-.8-.7V82c-.2-1.4-1.1-2.3-2.7-2.6 1-.7 1.6-1.5 1.8-2.7.1-1.1-.2-2.2-1.1-3.1 1.7-.1 3.2-.1 4.9 0-.8.9-1.2 1.9-1 3.1.2 1.1.8 2 1.8 2.7zm-30.3 0c-.4.1-.8.2-1.1.4-1 .6-1.5 1.5-1.5 2.6v1.3c0 .2-.1.3-.3.3-.7 0-.7 0-.7-.7 0-.5 0-1-.1-1.4-.3-1.3-1.1-2.2-2.5-2.5 0 0-.1 0-.1-.1a3.71 3.71 0 0 0 1.8-2.6c.2-1.1-.2-2.1-1-3 .6-.3 4.2-.3 4.7 0-1.6 1.9-1.2 4.3.8 5.7z"/></g></svg>