<svg xmlns="http://www.w3.org/2000/svg" xmlns:xlink="http://www.w3.org/1999/xlink" viewBox="0 0 108.4 108.4"><path d="M15.1 54.1l-.9-26.4L44.4 42 64 21.6l23.5 12.5 2-7.1 2 .6.7.1 1.8-.2-.3-.5 2.6.4-.3-.5 7.1 4C94.4 12.6 75.8 0 54.2 0 24.3 0 0 24.3 0 54.2s24.3 54.2 54.2 54.2c2.9 0 5.8-.2 8.6-.7L13.9 84.1l1.2-30z" fill="#ec9d40"/><path d="M108.4 54.2c0-8.3-1.9-16.2-5.3-23.3l-7.1-4 .3.5-2.6-.4.2.7-2.1-.7-.3.6-2-.6-1.5 5.4-24-10.8-17.1 17.3-32.7-11.2.9 26.4-1.1 30 48.8 23.6c25.8-4.1 45.6-26.5 45.6-53.5z" fill="#ba782b"/><path d="M12.8 27.8s1.4-1.3 2.3 1.4c.9 2.6 5.3 15.8 1 28.9 0 0-1 .4-.7 1.7-.8 0-1.7.2-2.4.4l-.2-32.4z" fill="#eeecda"/><path d="M15.4 59.7c0 .1 0 .2.1.3.5 1.6 3.6 13.7 3.1 20.6s-6.3 3.8-6 .6c.1-1.3.2-10.5.4-21.2.7 0 1.6-.3 2.4-.3z" fill="#bdc5a8"/><g fill="#eeecda"><circle cx="15.7" cy="80.7" r="1.5"/><path d="M97.9 40.3c.1-.3.1-.6.2-.9 0 0 .6-7.3-1.7-11.9-.4-.7-.5-.9-.4.1.3 2.1.9 6 .3 8.4-.1.4-.4.7-.5.7-.5-.1-.6-.9-.6-.9s-1-9-1.5-8.8c0 0-.1-.5-.1 3.4 0 1.3-.1 3.8-.3 5.4-.1 1-.5 1.2-.7 1.2s-.5-.2-.6-1.2c-.2-1.7-.3-4.1-.3-5.4.1-3.9-.1-3.4-.1-3.4-.5-.1-1.4 8.8-1.4 8.8s-.1.8-.6.9c-.2 0-.4-.1-.6-.7-.8-2.4 0-6.4.2-8.4.2-1.1 0-.8-.4-.1-2.3 3.9-1.6 11.9-1.6 11.9.1.3.1.6.2.9v.1c.2 1 .6 1.9 1.2 2.7 3 3.8 3.3 6.5 3.2 9.4-.1 3-.2 16.7-2.1 21.7-1.8 4.8-.2 10.5 2.7 11.2h.3c2.9-.7 4.5-6.4 2.7-11.2-1.9-5-2.1-18.8-2.2-21.7-.1-3 .2-5.6 3.2-9.4.5-.7.9-1.6 1.2-2.7.3 0 .3 0 .3-.1z"/></g><path d="M90.5 78.8c0 2.9 1.1 5.3 2.5 5.3s2.5-2.4 2.5-5.3-1.1-5.3-2.5-5.3-2.5 2.4-2.5 5.3zm5.8-39.1c0 .9-1.7 4.8-3.8 4.8-2 0-3.5-3.8-3.6-4.7 0-.9 1.6-1.6 3.6-1.7 2.1 0 3.8.7 3.8 1.6z" fill="#f5f4e6"/><circle cx="54" cy="54.7" r="34.6" fill="#e4f5f4"/><path d="M55.1 31.3c7.3 0 13.9 2.7 19.1 7.1C69.3 32.6 62.1 29 54 29c-12 0-22.1 8-25.3 18.9 4.7-9.8 14.8-16.6 26.4-16.6z" fill="#cad9d8"/><path d="M54 81.7c14.6 0 26.4-11.8 26.4-26.4 0-6.5-2.3-12.4-6.2-17-5.2-4.3-11.9-7-19.1-7-11.6 0-21.6 6.8-26.4 16.6-.7 2.4-1.1 4.9-1.1 7.5 0 14.5 11.8 26.3 26.4 26.3z" fill="#d8e8e7"/><path d="M67 68.4c-3.4 2.9-6.5 0-6.5 0-4.2 3.1-6.8 0-6.8 0-4.7 3.5-6.7-.2-6.7-.2-3 4.1-6.5.2-6.5.2-.4.9-2.8 1.3-3.7 1.4 2.4 3.7 6.5 6.2 11.1 6.2h11.2c5 0 9.3-2.9 11.6-7.1-2.7.6-3.7-.5-3.7-.5z" fill="#dba04e"/><path d="M34.8 65.5c.4 1.6 1 3.1 1.9 4.4.9-.1 3.3-.5 3.7-1.4 0 0 3.6 3.9 6.5-.2 0 0 2.1 3.7 6.7.2 0 0 2.6 3.1 6.8 0 0 0 3.1 2.9 6.5 0 0 0 1 1 3.5.5.6-1.1 1.1-2.3 1.4-3.5h-37z" fill="#bd8a43"/><path d="M34.5 64.1c-1.4.2-1.5 1.1-1.3 1.6.6 1.6 2.1 2.8 3.8 2.8 1.4 0 2.6-.7 3.3-1.8.7 1.1 2 1.8 3.3 1.8 1.4 0 2.6-.7 3.3-1.8.7 1.1 2 1.8 3.3 1.8 1.4 0 2.6-.7 3.3-1.8.7 1.1 2 1.8 3.3 1.8 1.4 0 2.6-.7 3.3-1.8.7 1.1 2 1.8 3.3 1.8 1.4 0 2.6-.7 3.3-1.8.7 1.1 2 1.8 3.3 1.8 1.7 0 3.2-1.1 3.8-2.6.2-.5-.2-1.5-1.4-1.7H34.5z" fill="#b9d17d"/><path d="M73.3 62.6c0 .8-.6 1.5-1.4 1.5h-37c-.8 0-1.4-.7-1.4-1.5s.6-1.5 1.4-1.5h37c.8 0 1.4.6 1.4 1.5zM73 52c0 .8-.6 1.5-1.4 1.5h-37c-.8 0-1.4-.7-1.4-1.5s.6-1.5 1.4-1.5h37c.7 0 1.4.7 1.4 1.5z" fill="#824848"/><g fill="#f3bc64"><use xlink:href="#B"/><use xlink:href="#B" y="-10.6"/></g><path d="M73.3 54.3c0 .4-.6.8-1.4.8h-37c-.8 0-1.4-.3-1.4-.8 0-.4.6-.8 1.4-.8h37c.8 0 1.4.4 1.4.8z" fill="#dce7ea"/><g fill="#f9532f"><path d="M52 58.2c0 .7-.6 1.3-1.3 1.3H35.9c-.7 0-1.3-.6-1.3-1.3s.6-1.3 1.3-1.3h14.8c.7 0 1.3.6 1.3 1.3z"/><path d="M71.9 58.2c0 .7-.7 1.3-1.5 1.3H53.1c-.8 0-1.5-.6-1.5-1.3s.7-1.3 1.5-1.3h17.3c.8 0 1.5.6 1.5 1.3zm.4-9.8c0 .5-1.3.9-2.8.9H37c-1.5 0-2.8-.4-2.8-.9s1.3-.9 2.8-.9h32.5c1.5 0 2.8.4 2.8.9z"/></g><path d="M34.5 55s0 .1 0 0c-1.3.1-1.5.7-1.3 1 .6 1.1 2 1.8 3.7 1.8 1.3 0 2.5-.5 3.2-1.2.7.7 1.9 1.2 3.2 1.2s2.5-.5 3.2-1.2c.7.7 1.9 1.2 3.2 1.2s2.5-.5 3.2-1.2c.7.7 1.9 1.2 3.2 1.2s2.5-.5 3.2-1.2c.7.7 1.9 1.2 3.2 1.2s2.5-.5 3.2-1.2c.7.7 1.9 1.2 3.2 1.2 1.6 0 3.1-.7 3.7-1.7.2-.3-.2-1-1.4-1.1H34.5z" fill="#b9d17d"/><path d="M36.8 46.4c2.1.1 31.6.2 32.9 0 .8-.1 1.6-.5 1.9-1-1.9-5.4-6.8-9.2-12.6-9.2H47.8c-5.9 0-10.9 4-12.7 9.6.2.2.7.5 1.7.6z" fill="#dba04e"/><path d="M71.6 45.8c0-.1-.1-.3-.1-.4-.3.5-1 .8-1.9 1-1.3.2-30.7.1-32.9 0-1-.1-1.5-.4-1.7-.6 0 .1-.1.2-.1.3-.3 1 .3 1.6 1.5 1.4h33.5c.9.1 2.1-.4 1.7-1.7z" fill="#bd8a43"/><g fill="#ecbf6f"><path d="M44.6 39.8c-.1.2-.3.2-.4.2-.2-.1-.2-.3-.2-.5l.6-1.4c.1-.2.2-.2.4-.2.1.1.2.3.1.4l-.5 1.5zm11.6 2.7c0 .2 0 .3-.2.4s-.3 0-.4-.2l-.4-1.5c0-.2 0-.3.2-.4s.3 0 .4.2l.4 1.5zm4.9.6c.1.1.1.3 0 .4s-.3.2-.4 0l-1.1-1c-.1-.1-.1-.3 0-.4s.3-.2.4 0l1.1 1zm-12-2.3c0 .2-.2.3-.3.3-.2 0-.3-.2-.3-.3l.1-1.5c0-.2.2-.3.3-.3.2 0 .3.2.3.3l-.1 1.5zm14.1-.2c-.2-.1-.2-.2-.2-.4s.2-.3.4-.2l1.4.4c.2.1.2.2.2.4s-.2.3-.4.2l-1.4-.4zm-15.8 1.7c.1.1.2.3.1.4s-.3.2-.4.1l-1.2-.8c-.1-.1-.2-.3-.1-.4s.3-.2.4-.1l1.2.8z"/><use xlink:href="#C"/><use xlink:href="#C" x="-17.3" y="1.9"/><path d="M52.7 38c-.1-.1-.1-.3.1-.4.1-.1.3-.1.4.1L54 39c.1.1.1.3-.1.4-.1.1-.3.1-.4-.1l-.8-1.3z"/></g><defs><circle id="A" cx="54.5" cy="-65.8" r="54.2"/><path id="B" d="M73.3 60.3c0 .4-.6.8-1.4.8h-37c-.8 0-1.4-.3-1.4-.8 0-.4.6-.8 1.4-.8h37c.8.1 1.4.4 1.4.8z"/><path id="C" d="M58.4 40.5c-.2.1-.3 0-.4-.2s0-.3.2-.4l1.4-.5c.2-.1.3 0 .4.2s0 .3-.2.4l-1.4.5z"/></defs><clipPath id="D"><use xlink:href="#A"/></clipPath><path d="M103.3-9.3l16.9-58L83.6-104 28.2-48.1l20 19.9-2.1-.7-6.2-6.1-5.4-.5-2.8-2.4-5.7 7.2L63.4 6.8z" opacity=".15" clip-path="url(#D)"/></svg>