<svg xmlns="http://www.w3.org/2000/svg" xmlns:xlink="http://www.w3.org/1999/xlink" viewBox="0 0 108.5 108.5"><path d="M108.5 53.2C109 84 84 109 53.2 108.5 24.2 107.9.5 84.3 0 55.3-.6 24.5 24.5-.6 55.3 0c29 .5 52.6 24.2 53.2 53.2z" fill="#fd7513"/><path d="M104.6 34L92 25.8v9.9h-1.5v34.5H47.7v20.3H35.3l-.2 1.2L60 108.2c27.2-2.9 48.4-25.9 48.4-53.9.1-7.2-1.3-14-3.8-20.3z" fill="#d94600"/><path d="M91.2 25.6H17.1c-1.1 0-1.9.9-1.9 1.9v49.8c0 1.1.9 1.9 1.9 1.9H45v8.1h-9.9v4.2h39v-4.2H63.4v-8.1h27.8c1.1 0 1.9-.9 1.9-1.9V27.6c.1-1.1-.8-2-1.9-2zm-1.3 50.5H18.4V28.9h71.5v47.2z" fill="#132439"/><path d="M35.1 87.4v4.2h19.1V76.1H18.5V28.9h35.7v-3.2h-37c-1.1 0-2 .9-2 1.9v49.8c0 1.1.9 1.9 2 1.9l27.8.1v8h-9.9z" fill="#213b56"/><path d="M18.4 28.9h71.5v47.2H18.4z" fill="#fffff3"/><path d="M54.2 28.9H90v47.2H54.2z" fill="#e8e8e0"/><g fill="#f7ea31"><path d="M57.3 45.4c0 .1.1.1.1.2 0-.1-.1-.1-.1-.2zm.1.2l.1.1-.1-.1zm-.3-.4c.1.1.1.1.1.2 0-.1 0-.2-.1-.2zm.4.5c0 .1.1.1.1.1s-.1 0-.1-.1zm-.4-.5c-.5-.6-1.3-1.4-2.4-1.4 1.1 0 1.9.7 2.4 1.4z"/><path d="M54.3 43.8z"/><path d="M53.9 43.9c.1-.1.3-.1.4-.1-.1 0-.3.1-.4.1z"/></g><defs><circle id="A" cx="-65.6" cy="-65.8" r="54.2"/></defs><clipPath id="B"><use xlink:href="#A"/></clipPath><path d="M-16.8-9.2L.1-67.3l-36.6-36.6-55.4 55.8 20 20-2.1-.7-6.2-6.2-5.4-.4-2.8-2.5-5.7 7.3 37.4 37.4z" opacity=".15" clip-path="url(#B)"/></svg>