<svg xmlns="http://www.w3.org/2000/svg" width="100%" height="100%" viewBox="0 0 109 109" fill-rule="evenodd" stroke-linejoin="round" stroke-miterlimit="1.41421"><style><![CDATA[.B{fill-rule:nonzero}]]></style><circle cx="54.2" cy="54.2" r="54.2" fill="#3fb7d4"/><clipPath id="A"><circle cx="54.2" cy="54.2" r="54.2"/></clipPath><g clip-path="url(#A)" fill="#262626" class="B"><path d="M58.4 111.9c33.5-.3 57.5-23.9 60.7-56.7l-29-29c.2.2.2.5.2.8v47.8c0 .8-.6 1.4-1.4 1.4H65v7.3h5.4V87H36.1" fill-opacity=".19"/><path d="M41.2 22.9c1.3.5 2.5 1 2.7 1.8.1.3.1.6-.1.9h5.1l.7-1.1 1-1.8c-.4-.2-.8-.5-1.2-.8-1.1.4-2.3.7-3.5.5-1-.2-1.8-.9-2.7-1.6-.6-.5-1.2-1-1.9-1.3s-1.8-.4-2.5 0c-.3.2-.5.5-.6.8-.2 1.3 1.1 1.9 3 2.6z" fill-opacity=".27"/><path d="M57.8 22.7l1 1.8.7 1.1h14.2L59.9 11.8c.4.5.8 1.1 1 1.8.1.2.2.4.3.7.2.7.3 1.4.3 2.1 0 2.7-1.5 5.1-3.7 6.3z" fill-opacity=".19"/></g><path d="M42.8 26.9l.7-.7c.4-.5.6-1.1.5-1.5-.2-.9-1.4-1.4-2.7-1.8-1.9-.7-3.2-1.3-2.9-2.6.1-.4.3-.7.6-.8.7-.4 1.8-.3 2.5 0 .6.3 1.3.7 1.9 1.3.8.7 1.7 1.3 2.7 1.6 1.5.4 3.1-.3 4.5-.8l-.2-.7c-1.2.5-2.8 1.1-4 .8-.8-.2-1.6-.8-2.4-1.4-.7-.5-1.3-1.1-2.1-1.4-.9-.4-2.2-.5-3.1 0-.5.3-.9.8-1 1.4-.4 2 1.7 2.8 3.4 3.4 1 .4 2.1.8 2.3 1.3.1.2 0 .5-.3.9l-.6.6.2.4z" fill="#ccc" class="B"/><path d="M41.5 75.7H65V84H41.5z" fill="#d6d6d6"/><path d="M16.3 27v39.4h74.1V27c0-.8-.6-1.4-1.4-1.4H17.6c-.7 0-1.3.7-1.3 1.4z" fill="#534b64" class="B"/><path d="M19.8 29.2h66.9v33.6H19.8z" fill="#6dbbc6"/><path d="M36.1 83.5h34.3v3.4H36.1z" fill="#e7e6e6"/><path d="M41.5 76.2H65v2.7H41.5z" fill="#1e6486" fill-opacity=".25"/><path d="M16.3 66.4v8.4c0 .8.6 1.4 1.4 1.4H89c.8 0 1.4-.6 1.4-1.4v-8.4H16.3z" fill="#f0f0f0" class="B"/><circle cx="53.3" cy="71.3" r="2.3" fill="#ccc"/><g class="B"><path d="M46.9 16.4c0 2.7 1.5 5.1 3.7 6.3 1.1.6 2.3 1 3.6 1s2.6-.4 3.6-1c2.2-1.2 3.7-3.6 3.7-6.3 0-4-3.3-7.3-7.3-7.3s-7.3 3.3-7.3 7.3z" fill="#f2f2f2"/><path d="M46.9 16.4h14.6c0-4-3.3-7.3-7.3-7.3s-7.3 3.3-7.3 7.3z" fill="#c7c5cc" fill-opacity=".3"/><path d="M49.7 16.4c0 1.7.9 3.1 2.2 3.9.7.4 1.4.6 2.2.6s1.6-.2 2.2-.6c1.3-.8 2.2-2.2 2.2-3.9a4.48 4.48 0 0 0-4.5-4.5c-2.3 0-4.3 2-4.3 4.5z" fill="#fff"/><path d="M51.6 16.4c0 1 .5 1.8 1.3 2.3.4.2.8.3 1.3.3s.9-.1 1.3-.3c.8-.4 1.3-1.3 1.3-2.3a2.65 2.65 0 0 0-2.6-2.6 2.65 2.65 0 0 0-2.6 2.6z" fill="#63839a"/><path d="M54.1 15.6c0 .3.2.6.4.7.1.1.3.1.4.1.2 0 .3 0 .4-.1.3-.1.4-.4.4-.7 0-.5-.4-.8-.8-.8-.4-.1-.8.3-.8.8z" fill="#fff"/><path d="M48.5 26.5c0 .9 2.6 1.7 5.7 1.7s5.7-.7 5.7-1.7c0-.1 0-.2-.1-.3l-2-3.4c-1.1.6-2.3 1-3.6 1s-2.6-.4-3.6-1l-2 3.4c-.1.1-.1.2-.1.3z" fill="#e5e5e5"/><path d="M49.6 24.5c1.4.8 3 1.2 4.6 1.2s3.2-.4 4.6-1.2l-1-1.8c-1.1.6-2.3 1-3.6 1s-2.6-.4-3.6-1l-1 1.8z" fill="#c7c5cc" fill-opacity=".3"/><path d="M77.6 59.1v-.3l-.6-7.1-.5-6.2c0-.1-.1-.2-.2-.2h-.7c0-.2-.1-.3-.2-.3-.2-.1-.4-.2-.6-.2-.2-.1-.3-.2-.3-.4 0-.5-.1-.9-.7-1-.1 0-.1-.1-.1-.2 0-.2-.1-.4-.1-.7 0-.1-.1-.2-.2-.2l-.9-.3c-.1 0-.1-.1-.1-.2 0-.3-.1-.6-.1-.9 0-.1 0-.2-.2-.2-.7-.1-1.5-.2-2.2-.2-1.6-.1-3.2.1-4.7.6-1.6.5-3 1.4-4.1 2.7-.2.2-.3.4-.5.7-.2-.3-.4-.5-.6-.8-1.1-1.3-2.4-2.1-4-2.6-2.3-.7-4.7-.7-7-.4v.4c0 .3-.1.6-.1.8 0 .1 0 .2-.2.2l-.8.3c-.1 0-.2.1-.2.2v.5c0 .2-.1.3-.3.4-.1 0-.2.1-.4.2-.1 0-.1.1-.1.2 0 .2 0 .5-.1.7 0 .1-.1.1-.1.2-.2.1-.5.2-.7.3-.1 0-.2.1-.2.3h-.7c-.2 0-.2 0-.2.2l-.2 2.5-.4 5.2L44 57l-.2 2.3c0 .1 0 .2.2.2l2-.3 5.2-.6 4.2-.3c1-.1 2-.1 2.9-.1.1 0 .1 0 .2.1.1.3.4.5.7.7 1.1.5 2.2.5 3.3 0 .3-.1.6-.3.7-.6 0 0 .1-.1.2-.1.7 0 1.3 0 2 .1l5.7.4c1.4.1 2.8.3 4.1.5l2.3.3c.1-.3.1-.4.1-.5z" fill="#020608"/><g fill="#2f363e"><path d="M58.1 57.1c-2.9-.2-5.7-.3-8.6-.1-1.5.1-3 .3-4.4.7-.2.1-.4.1-.6.2l.5-4.6c0 .4-.1.8-.1 1.1l-.2 2.4c0 .2 0 .2.2.1 1.4-.6 2.9-.8 4.4-.9 2.2-.1 4.4 0 6.5.4l3.3.6c.1 0 .1 0 .2.1-.3.1-.8 0-1.2 0z"/><path d="M57.3 56.6c-2.4-.4-4.9-.7-7.4-.6-1.7.1-3.3.3-4.8.9H45c.1-.6.1-1.2.2-1.8l.3-3.7.4-5c0-.3.1-.7.1-1 0-.1.1-.2.1-.2.2-.1.5-.2.8-.3 0 .3 0 .6-.1.8l-.9 9.7c0 .2 0 .2.2.2 2.7-.6 5.3-.6 8-.1 1.9.3 3.7.8 5.4 1.5.1 0 .1.1.2.1l-2.4-.5z"/><path d="M46.1 55.4v-.2l.4-3.9.3-3.5.4-3.9c0-.1 0-.1.1-.2s.3-.1.4-.2v.2l-.8 8.6c-.1.6-.1 1.3-.2 1.9 0 .2 0 .2.2.2 2.1-.8 4.2-.8 6.4-.4 2.4.5 4.6 1.5 6.7 2.9-4.6-1.7-9.2-2.5-13.9-1.5z"/><path d="M59.8 56.7c-1.9-1.2-4-2.2-6.2-2.7s-4.5-.5-6.6.3h-.1c0-.4.1-.8.1-1.2l.3-3.5.4-4.7.2-2.1c0-.1 0-.2.2-.2l.8-.3c0 .2 0 .4-.1.6l-.6 6.8-.3 3.3c0 .2 0 .2.2.2 4.3-1 8 .1 11.3 3 .2.2.4.4.6.7l-.2-.2z"/><path d="M60.6 56.9v.3c-1.6-1.8-3.4-3.2-5.7-4s-4.5-.9-6.9-.3l1.1-11.8c.4 0 .8-.1 1.2-.1 1.7-.1 3.3-.1 5 .3s3.2 1.1 4.4 2.3c.3.3.6.7.9 1.1.1.1.1.2.1.3v6.6l-.1 5.3zm.2.3v-12c0-.2 0-.3.1-.5.7-1.1 1.7-1.9 2.8-2.5 1.2-.7 2.6-1 4-1.2 1.5-.2 2.9-.1 4.4.1.2 0 .2.1.2.2l.9 9.2.2 2.2v.2c-5-1-9.2.5-12.6 4.3z"/><path d="M61.4 56.8c.2-.3.4-.5.7-.7 1.9-1.7 4-2.8 6.5-3.2 1.6-.2 3.2-.2 4.7.2.2.1.2 0 .2-.2l-.4-4.3-.4-4.1c-.1-.6-.1-1.2-.2-1.8v-.3l.9.3.1.1.5 5.4.5 5.5c0 .2 0 .4.1.7h-.1c-2-.7-4.1-.8-6.2-.3-2.5.5-4.7 1.5-6.8 2.9 0-.2 0-.2-.1-.2z"/><path d="M62.9 56.1c1.8-1 3.6-1.8 5.7-2.1 2.1-.4 4.1-.3 6 .4.2.1.2 0 .2-.2l-.5-5.6-.5-4.9v-.2c.2.1.3.1.5.2 0 0 .1.1.1.2l.3 3.4.4 4.9.3 3v.1c-4.8-1-9.3-.2-13.8 1.5.4-.2.9-.4 1.3-.7z"/><path d="M61.7 57.1c.2-.1.4-.1.5-.2 3-1.2 6.1-1.8 9.3-1.7 1.3 0 2.5.2 3.7.5.2 0 .2 0 .2-.2l-.5-5.4-.4-4.4c0-.2 0-.5-.1-.7l.8.3.1.1.4 4.4.4 5 .2 2.1h-.1c-1.2-.5-2.4-.7-3.7-.8-2.4-.2-4.8 0-7.1.3l-3.7.7z"/><path d="M75.5 57.6c-1.3-.3-2.7-.5-4-.6-2.1-.2-4.2-.1-6.2 0l-2.9.2h-.3l1.4-.3c2.4-.5 4.9-.8 7.4-.8 1.6 0 3.2.2 4.8.6l.9.3c.2.1.2 0 .2-.1l-.2-2.7v-.8l.5 4.5-1.6-.3z"/></g><g fill="#f8d9ab"><path d="M73.4 52.9v-.2c-.1-.7-.1-1.5-.2-2.2l-.9-9.2c0-.2-.1-.2-.2-.2-1.5-.2-2.9-.2-4.4-.1-1.4.2-2.7.5-4 1.2-1.1.6-2.1 1.4-2.8 2.5-.1.1-.1.3-.1.5v12c3.4-3.8 7.6-5.3 12.6-4.3z"/><path d="M60.6 49.6V45c0-.1 0-.2-.1-.3l-.9-1.1c-1.2-1.2-2.7-1.9-4.4-2.3-1.6-.4-3.3-.4-5-.3-.4 0-.8.1-1.2.1l-1.1 11.8c2.4-.5 4.6-.4 6.9.3a13.21 13.21 0 0 1 5.7 4v-5.7c.1-.6.1-1.3.1-1.9z"/></g><path d="M74.5 54.2h.1c0-.2 0-.4-.1-.7L74 48l-.5-5.4s0-.1-.1-.1l-.9-.3v.3c.1.6.1 1.2.2 1.8l.4 4.1.4 4.3c0 .2 0 .2-.2.2-1.6-.4-3.1-.4-4.7-.2-2.5.4-4.7 1.5-6.5 3.2l-.6.6c2.1-1.4 4.3-2.4 6.8-2.9 2.1-.1 4.2-.1 6.2.6zm-15.2 1.9c-3.2-2.9-7-4-11.3-3-.1 0-.2 0-.2-.2l.3-3.3.6-6.8c0-.2 0-.4.1-.6-.3.1-.6.2-.8.3-.1 0-.1.1-.2.2-.1.7-.1 1.4-.2 2.1-.1 1.6-.3 3.2-.4 4.7l-.3 3.5c0 .4-.1.8-.1 1.2h.1c2.2-.8 4.4-.8 6.6-.3s4.3 1.5 6.2 2.7c.1 0 .1.1.2.1-.1-.1-.3-.4-.6-.6z" fill="#d7b787"/><path d="M54.1 55.4c-2.7-.5-5.3-.5-8 .1-.2 0-.2 0-.2-.2l.9-9.7c0-.3 0-.5.1-.8l-.8.3c-.1 0-.1.1-.1.2 0 .3-.1.7-.1 1l-.7 8.7c-.1.6-.1 1.2-.2 1.8h.1c1.6-.6 3.2-.8 4.8-.9 2.5-.1 4.9.2 7.4.6.8.1 1.6.3 2.5.5-.1 0-.2-.1-.2-.1l-5.5-1.5zm18.6.6c1.3.1 2.5.4 3.7.8h.1l-.2-2.1-.4-5-.4-4.4c0-.1 0-.1-.1-.1l-.8-.3c0 .3 0 .5.1.7l.4 4.4.5 5.4c0 .2 0 .2-.2.2-1.2-.3-2.5-.4-3.7-.5-3.2-.1-6.3.6-9.3 1.7-.2.1-.3.1-.5.2h.1l3.7-.7c2.2-.3 4.6-.5 7-.3z" fill="#b19676"/><path d="M75.4 55.4v-.1l-.3-3-.4-4.9-.3-3.4c0-.1 0-.1-.1-.2s-.3-.1-.5-.2v.2l.5 4.9.5 5.6c0 .2 0 .2-.2.2-2-.7-4-.8-6-.4s-3.9 1.1-5.7 2.1a9.13 9.13 0 0 0-1.3.8c4.5-1.8 9-2.6 13.8-1.6zm-28.6-1c-.2.1-.2 0-.2-.2.1-.6.1-1.3.2-1.9l.8-8.6v-.2c-.2.1-.3.1-.4.2 0 0-.1.1-.1.2l-.4 3.9-.3 3.5-.4 3.9v.2c4.8-1 9.3-.2 13.8 1.5-2-1.4-4.2-2.4-6.7-2.9-2.1-.4-4.2-.3-6.3.4z" fill="#c6a880"/><path d="M55.9 56.5c-2.2-.3-4.3-.5-6.5-.4-1.5.1-3 .3-4.4.9-.2.1-.2.1-.2-.1l.2-2.4c0-.4.1-.8.1-1.1l-.5 4.6c.2-.1.4-.1.6-.2 1.4-.4 2.9-.6 4.4-.7 2.9-.2 5.7-.2 8.6.1.4 0 .8.1 1.2.1-.1 0-.1-.1-.2-.1-1.1-.3-2.2-.5-3.3-.7zm20.5-2.3l.2 2.7c0 .2 0 .2-.2.1l-.9-.3c-1.6-.5-3.2-.6-4.8-.6-2.5 0-4.9.3-7.4.8l-1.4.3h.3l2.9-.2h6.2c1.3.1 2.7.3 4 .6.5.1.9.2 1.4.4l-.5-4.5c.2.2.2.5.2.7z" fill="#998067"/><path d="M30.8 61.8l-1.7-1.5 24.4-24 .4.4-23.1 25.1z" fill="#ce280c"/></g><path d="M26.923 47.495L23.078 55.3l4.306 2.12 3.845-7.804-4.306-2.122z" fill="#fff"/><g class="B"><path d="M30.8 48.5l-.3.7-2 3.9-1.9 3.9-.3.7-6.5-3.2V43.1l11 5.4z" fill="#60343c"/><path d="M28.6 53.1l-2 3.9-.3.7-6.5-3.2v-5.7l5.3 2.6 3.4 1.7h.1z" fill="#a8a8a8" fill-opacity=".44"/></g><g fill="#894a55"><circle cx="24.3" cy="54.3" r="1"/><circle cx="22.1" cy="53.2" r="1"/></g><g fill="#eec69b" class="B"><path d="M39.9 52.9L35.4 62l-1.7-.9c-.1 0-.2-.1-.3-.1-.2-.1-.3-.2-.5-.3-.9-.5-1.8-1.3-2.6-2.2-.5-.6-1.8-1.2-2.7-1.5l3.4-6.9c.4.2.8.3 1.1.4 1 .3 1.4.2 2.3-.2.2-.2.6-.4.8-.6.3-.3 1.3-1.4 1.7-1.6l2.7-1.3c.8 1.2 0 2.3-1.2 3.2-.4.2-.5.5-.8.8-.2.2-.5.5-.5.8l1.6.7 1.2.6z"/><path d="M42.1 55.3c-.3.6-1 .9-1.6.6l-2.4-1.2c-.6-.3-.9-1-.6-1.6s1-.9 1.6-.6l2.4 1.2c.7.3.9 1 .6 1.6zm-.8 2.5c-.3.6-1 .9-1.6.6l-2.4-1.2c-.6-.3-.9-1-.6-1.6s1-.9 1.6-.6l2.4 1.2c.6.2.9 1 .6 1.6zm-1.6 2.1c-.3.6-1 .9-1.6.6l-2.4-1.2c-.6-.3-.9-1-.6-1.6s1-.9 1.6-.6l2.4 1.2c.6.2.9 1 .6 1.6zm-2.2 1.8c-.3.6-1 .9-1.6.6l-2.4-1.2c-.6-.3-.9-1-.6-1.6s1-.9 1.6-.6l2.4 1.2c.7.3.9 1 .6 1.6z"/></g><g fill="#fff"><path d="M52.158 33.615c0-.008-.002-.024-.006-.048a.25.25 0 0 0-.015-.055.86.86 0 0 0-.299.105c-.108.06-.225.15-.35.27a3.95 3.95 0 0 0-.402.468 6.81 6.81 0 0 0-.45.699l-.132.24-.13.28c-.04.1-.072.204-.097.315s-.037.23-.037.353c0 .047.013.082.04.105s.052.035.08.035c.063 0 .145-.036.245-.11a2.52 2.52 0 0 0 .326-.291c.117-.12.237-.26.36-.414l.34-.48a4.71 4.71 0 0 0 .274-.486c.08-.16.133-.306.163-.436l.03-.144.03-.163.023-.146.008-.1zm3.328.52a.53.53 0 0 1-.025.157 1.02 1.02 0 0 1-.064.165l-.088.165a1.85 1.85 0 0 1-.103.153c-.16.214-.33.416-.514.604l-.55.53c-.1.088-.2.168-.306.24s-.208.133-.313.186-.206.092-.305.12-.19.04-.276.04c-.105 0-.205-.033-.3-.1s-.18-.15-.254-.25-.13-.208-.173-.324-.064-.223-.064-.32l-.145.197-.198.252-.19.233-.126.15c-.088.093-.2.19-.305.288l-.345.268c-.114.08-.22.145-.32.196s-.175.076-.227.076c-.12 0-.238-.02-.35-.057a.94.94 0 0 1-.299-.167.82.82 0 0 1-.208-.27c-.052-.108-.078-.23-.078-.367a1.99 1.99 0 0 1 .055-.444c.038-.16.088-.328.153-.503a5.13 5.13 0 0 1 .233-.53l.295-.52a5.54 5.54 0 0 1 .336-.481 3.71 3.71 0 0 1 .363-.404 2.22 2.22 0 0 1 .701-.462c.247-.1.503-.148.767-.148.07 0 .127.01.173.028s.087.045.12.077.06.068.084.11.045.082.064.124c.014.02.037.046.068.08l.097.114a1.16 1.16 0 0 1 .087.123c.025.042.037.08.037.112 0 .057-.008.12-.025.187l-.05.233-.052.3a2.74 2.74 0 0 0-.025.386c0 .082.007.18.02.29s.03.213.056.31a1.02 1.02 0 0 0 .092.245c.038.068.08.1.126.1.058 0 .1-.006.155-.018s.09-.03.13-.054a1.06 1.06 0 0 0 .126-.084l.146-.108c.17-.123.342-.266.513-.43l.526-.5.155-.156a1.92 1.92 0 0 1 .165-.161c.056-.05.112-.09.167-.124s.107-.05.157-.05c.077 0 .115.064.115.193z"/><path d="M58.793 33.95c-.002.093-.02.172-.05.235a.41.41 0 0 1-.12.15.42.42 0 0 1-.163.079.75.75 0 0 1-.181.023.57.57 0 0 1-.148-.02.59.59 0 0 0-.153-.02c-.088 0-.196.027-.324.08s-.26.123-.394.208-.266.18-.396.285-.24.207-.334.3l-.18.208-.196.254a1.93 1.93 0 0 0-.157.264c-.042.088-.064.167-.064.24 0 .088.01.2.027.3s.027.243.027.375l-.002.13a.43.43 0 0 1-.02.118.27.27 0 0 1-.05.11.69.69 0 0 1-.109.116c-.044.037-.093.068-.145.092a.37.37 0 0 1-.161.038.31.31 0 0 1-.231-.099.7.7 0 0 1-.15-.277c-.037-.118-.064-.257-.08-.416a4.9 4.9 0 0 1-.025-.516l.002-.1.004-.206.006-.215.004-.132a2.81 2.81 0 0 1 .006-.107l.017-.22.02-.28.02-.287.02-.24.012-.138a.56.56 0 0 0 .01-.085l.017-.167.027-.193.033-.165a.49.49 0 0 1 .068-.136c.034-.053.078-.103.132-.15s.113-.1.18-.124a.45.45 0 0 1 .21-.051c.088 0 .16.013.213.04s.096.06.128.1.053.082.064.128.016.086.016.12c0 .022-.008.07-.025.147l-.066.25c-.033.12-.06.262-.086.423l-.058.464.487-.518c.173-.174.353-.332.54-.474s.378-.257.573-.346a1.39 1.39 0 0 1 .586-.134.69.69 0 0 1 .26.047.62.62 0 0 1 .195.124c.054.05.095.107.124.17a.44.44 0 0 1 .043.188v.008zm7.7.337a.59.59 0 0 1-.029.171 1.99 1.99 0 0 1-.068.186 1.33 1.33 0 0 1-.087.173l-.084.138-.264.377-.313.394-.34.37a2.84 2.84 0 0 1-.352.306l-.28.2a2.19 2.19 0 0 1-.28.163 1.66 1.66 0 0 1-.309.111 1.49 1.49 0 0 1-.367.04c-.196 0-.36-.035-.493-.105s-.244-.166-.33-.287a1.45 1.45 0 0 1-.204-.426 4.46 4.46 0 0 1-.124-.526c-.044-.26-.1-.467-.138-.617s-.104-.225-.167-.225a.52.52 0 0 0-.105.011c-.035.007-.072.022-.112.047a.77.77 0 0 0-.134.114c-.05.05-.108.12-.175.208l-.237.328-.318.472-.24.334-.307.37-.324.32c-.107.094-.203.156-.3.2-.1-.016-.168-.038-.233-.066a.4.4 0 0 1-.162-.127c-.044-.058-.077-.136-.097-.233s-.03-.225-.03-.382l.006-.186.014-.24.02-.253.018-.225.042-.398.064-.408.096-.404c.04-.134.086-.26.14-.382a.52.52 0 0 1 .105-.163c.04-.04.082-.07.128-.1s.092-.034.14-.04a.98.98 0 0 1 .142-.01c.08 0 .153.04.22.124a.54.54 0 0 1 .099.346c0 .022-.01.08-.03.17l-.076.328-.1.408-.1.413-.08.34c-.022.098-.033.16-.033.192a3.31 3.31 0 0 0 .173-.225l.2-.3.224-.328.22-.307.28-.36a2.14 2.14 0 0 1 .297-.291 1.34 1.34 0 0 1 .345-.196 1.18 1.18 0 0 1 .426-.072c.168 0 .306.036.415.107a.81.81 0 0 1 .266.295c.07.125.122.275.16.448l.097.565.053.317a1.11 1.11 0 0 0 .091.268.54.54 0 0 0 .146.186c.06.047.133.07.22.07.124 0 .257-.038.4-.115s.3-.18.445-.3.313-.278.477-.447l.492-.53.153-.175.142-.16a.83.83 0 0 1 .134-.114c.044-.028.087-.043.128-.043.017 0 .036.001.058.004s.043.01.062.02.036.027.05.05a.17.17 0 0 1 .021.091z"/><path d="M67.743 31.334a.79.79 0 0 1-.042.258.85.85 0 0 1-.119.229c-.105.146-.266.22-.483.22a1.43 1.43 0 0 1-.23-.02 1 1 0 0 1-.216-.058.52.52 0 0 1-.16-.097c-.042-.04-.062-.082-.062-.132 0-.085.023-.175.068-.27a1.23 1.23 0 0 1 .171-.264c.07-.08.145-.148.23-.202s.164-.08.24-.08a1.61 1.61 0 0 1 .256.018.58.58 0 0 1 .19.064.29.29 0 0 1 .117.128.48.48 0 0 1 .04.206zm1.604 4.784l-.258.256-.245.227-.25.2-.266.206c-.2.138-.377.244-.56.32a1.39 1.39 0 0 1-.523.113c-.193 0-.36-.032-.502-.097a1.08 1.08 0 0 1-.362-.264 1.45 1.45 0 0 1-.246-.383 2.56 2.56 0 0 1-.15-.458c-.037-.16-.063-.324-.077-.5l-.02-.47.012-.25.035-.343.05-.348a2.33 2.33 0 0 1 .055-.272.66.66 0 0 1 .105-.204.93.93 0 0 1 .18-.18c.143-.115.302-.173.478-.173s.268.107.268.322a1.74 1.74 0 0 1-.024.264l-.046.3-.045.332-.035.264-.023.212-.008.182a2.87 2.87 0 0 0 .023.35 2.36 2.36 0 0 0 .068.361 1.15 1.15 0 0 0 .111.28c.044.076.095.114.153.114.085 0 .18-.01.288-.03a1.14 1.14 0 0 0 .342-.134 4.54 4.54 0 0 0 .36-.23c.124-.087.254-.2.386-.305l.365-.322.36-.35.15-.157.126-.134.113-.124.118-.126.04-.047.054-.054c.02-.018.04-.033.062-.045a.14.14 0 0 1 .066-.02.28.28 0 0 1 .097.02c.035.013.06.04.08.083a.31.31 0 0 1 .033.113l.004.093c0 .027-.015.072-.045.134s-.07.134-.12.216l-.173.264-.202.28-.208.266-.196.216zm10.203-2.56a.89.89 0 0 1-.02.165l-.048.3-.053.458-.04.67-.007.305-.002.433c0 .682-.077 1.255-.23 1.72s-.386.838-.697 1.12c-.082.077-.17.147-.268.2s-.2.118-.313.165a1.99 1.99 0 0 1-.369.109c-.133.026-.28.04-.44.04a1.3 1.3 0 0 1-.413-.074 3.11 3.11 0 0 1-.437-.19c-.146-.077-.285-.162-.418-.256l-.355-.268a2.1 2.1 0 0 1-.245-.231c-.06-.068-.1-.118-.1-.148 0-.088.024-.156.072-.204s.137-.072.266-.072a.95.95 0 0 1 .31.057c.107.037.213.1.312.153a3.19 3.19 0 0 0 .29.165l.3.138a2.32 2.32 0 0 0 .275.095c.085.023.155.035.2.035.135 0 .25-.016.344-.047a.86.86 0 0 0 .252-.13 1.06 1.06 0 0 0 .196-.194l.173-.24c.063-.094.12-.212.17-.355a3.72 3.72 0 0 0 .128-.474c.036-.174.064-.356.085-.55l.043-.577a5.52 5.52 0 0 1-.464.363 4.99 4.99 0 0 1-.536.328c-.186.097-.373.177-.563.24a1.72 1.72 0 0 1-.545.093.59.59 0 0 1-.253-.052.66.66 0 0 1-.19-.132.79.79 0 0 1-.134-.18 1.11 1.11 0 0 1-.084-.202 1.27 1.27 0 0 1-.044-.194c-.008-.062-.012-.114-.012-.155a1.02 1.02 0 0 1 .058-.311 2.98 2.98 0 0 1 .148-.371l.204-.384.22-.348a5.12 5.12 0 0 1 .441-.534 4.11 4.11 0 0 1 .573-.51 3.35 3.35 0 0 1 .662-.381 1.76 1.76 0 0 1 .708-.151c.263 0 .468.053.612.16a.48.48 0 0 1 .216.402zm-1.04 1.608a.35.35 0 0 0 .033-.111 2.33 2.33 0 0 0 .029-.212l.023-.277.018-.303.013-.297.004-.25h-.033a.79.79 0 0 0-.378.103 2.14 2.14 0 0 0-.371.258 3.21 3.21 0 0 0-.34.34l-.3.346-.185.264-.208.343c-.068.12-.127.243-.178.367a1.56 1.56 0 0 0-.101.338c0 .016.002.032.006.047s.015.023.03.023a.83.83 0 0 0 .213-.031l.24-.076.245-.103.22-.108c.066-.03.14-.07.225-.117l.26-.16.268-.188.253-.194z"/></g><text x="27.13" y="37.388" font-family="SegoeScript-Bold, Segoe Script, cursive" font-weight="700" font-size="8.446" fill="#fff">E-Le<tspan x="69.037" y="37.388">n</tspan></text></svg>