<svg xmlns="http://www.w3.org/2000/svg" xmlns:xlink="http://www.w3.org/1999/xlink" width="100%" height="100%" viewBox="0 0 109 109" fill-rule="evenodd" stroke-linejoin="round" stroke-miterlimit="1.41421"><style><![CDATA[.B{fill-rule:nonzero}.C{fill-opacity:.15}.D{fill:#88ba41}.E{fill:#528782}]]></style><circle cx="54.2" cy="54.2" r="54.2" fill="#a2dcf1"/><clipPath id="A"><circle cx="54.2" cy="54.2" r="54.2"/></clipPath><g clip-path="url(#A)" class="B C"><path d="M95.1 106.8l25.3-39.2-19.5-19.7c-2.392-1.845-4.923-2.346-7.592-1.504-.335-2.824-3.394-5.473-6.296-5.02L53.6 7.8l-.2 32.4-20.7 33.5-20 5.4 39.4 39.2 43-11.5z"/></g><g class="B"><path d="M65.7 22.2c-14.1 2-10.9 10.9-10.9 10.9s8.9 3.2 10.9-10.9z" class="D"/><path d="M60.3 31.2c-.4 0-.7.1-1.1.1s-.7.1-1.1.1-.7 0-1 .1c-.2 0-.3.1-.5.1-.1 0-.1 0-.2.1l2.1-2.1h.8c.3 0 .6-.1.9-.1.3-.1.6-.1.9-.2s.6-.1.9-.2c-.3 0-.6 0-.9.1-.3 0-.6 0-.9.1-.3 0-.6 0-.9.1-.1 0-.3.1-.4.1h-.1l.5-.5 4.2-4.4-2.2 2.1-1.2 1.2v-.1c0-.1.1-.2.1-.4v-.8c0-.2 0-.5.1-.7v-.7c-.1.2-.1.5-.2.7 0 .2-.1.5-.1.7 0 .1 0 .2-.1.4v1.1l-.9.8-1.9 1.8v-.2c0-.2.1-.3.1-.5.1-.3.1-.7.1-1s.1-.7.1-1.1.1-.7.1-1.1c-.1.3-.1.7-.2 1s-.1.7-.2 1-.1.7-.2 1v.8l-1.3 1.3c-.3.4-.7.8-1 1.2.4-.3.8-.7 1.2-1l.3-.3h.9c.4 0 .7-.1 1-.2s.7-.1 1-.2c.6-.1 1-.1 1.3-.2z" class="E"/><path d="M15.4 72.2a4.29 4.29 0 0 1 1.2.2c-.2-.4-.3-.9-.3-1.5 0-1.9 1.6-3.5 3.5-3.5.7 0 1.4.2 2 .6.7-1.8 2.5-3.1 4.6-3.1 2.4 0 4.5 1.7 4.9 4 .6-.2 1.3-.4 2-.4 3.2 0 5.8 2.6 5.8 5.8s-2.6 5.8-5.8 5.8H15.4c-2.2 0-4-1.8-4-4 0-2.1 1.8-3.9 4-3.9z" fill="url(#B)"/><path d="M31.2 78c3.2 0 5.8-2.6 5.8-5.8 0-1-.3-2-.8-2.9 1.8 1 2.9 2.9 2.9 5 0 3.2-2.6 5.8-5.8 5.8H15.4c-1.63.02-3.1-.98-3.7-2.5.5.2 1 .3 1.5.3h18v.1z" fill="url(#C)"/><path d="M53.6 7.8c-8.5 11.4 0 15.4 0 15.4s8.5-4 0-15.4z" class="D"/><path d="M56.1 18c-.2.3-.5.5-.7.8s-.5.5-.7.8-.5.5-.7.8c-.1.1-.2.3-.3.4 0 .1-.1.1-.1.2v-3l.5-.5a3.04 3.04 0 0 0 .5-.7c.2-.2.3-.5.5-.7s.3-.5.5-.7c-.2.2-.4.5-.6.7s-.4.5-.6.7-.4.4-.6.7a.76.76 0 0 0-.2.4c-.025.15 0 .1-.1.1v-3.9l-.1-3.1.1 3v1.6c-.1-.1-.1-.2-.2-.3s-.1-.2-.2-.3-.2-.2-.2-.3c-.2-.2-.3-.4-.5-.6s-.3-.4-.5-.6c.1.2.3.4.4.6s.3.4.4.6c.1.1.1.2.2.3s.1.2.2.3l.5.5v3.8l-.1-.1c-.1-.2-.2-.3-.3-.4-.2-.3-.4-.5-.7-.8-.2-.3-.5-.5-.7-.8s-.5-.5-.7-.8l1.8 2.7c.1.1.2.3.4.4.1.1.2.2.3.2v1.7c0 .5 0 1 .1 1.5 0-.5.1-1 .1-1.5v-.4l.3-.3c.1-.1.2-.3.4-.4l1.2-1.8c0-.2.2-.5.4-.8z" class="E"/><path d="M41.4 22.2c14.1 2 10.9 10.9 10.9 10.9s-8.9 3.2-10.9-10.9z" class="D"/><path d="M46.8 31.2c.4 0 .7.1 1.1.1s.7.1 1.1.1.7 0 1 .1c.2 0 .3.1.5.1.1 0 .1 0 .2.1l-2.1-2.1h-.8c-.3 0-.6-.1-.9-.1-.3-.1-.6-.1-.9-.2s-.6-.1-.9-.2c.3 0 .6 0 .9.1.3 0 .6 0 .9.1.3 0 .6 0 .9.1.1 0 .3.1.4.1h.1l-.5-.5-4.2-4.4 2.2 2.1 1.2 1.2v-.1c0-.1-.1-.2-.1-.4v-.8c0-.2 0-.5-.1-.7v-.7c.1.2.1.5.2.7 0 .2.1.5.1.7 0 .1 0 .2.1.4v1.1l.9.8 1.9 1.8v-.2c0-.2-.1-.3-.1-.5-.1-.3-.1-.7-.1-1s-.1-.7-.1-1.1-.1-.7-.1-1.1c.1.3.1.7.2 1s.1.7.2 1 .1.7.2 1v.8l1.3 1.3c.3.4.7.8 1 1.2-.4-.3-.8-.7-1.2-1l-.3-.3h-.9c-.4 0-.7-.1-1-.2s-.7-.1-1-.2c-.6-.1-1-.1-1.3-.2z" class="E"/><path d="M53.8 33.3l-.1-4.4-.1-2.3v-2.2h-.1v2.2l-.1 2.3-.1 4.4-.1 4h.7l-.1-4z" fill="#57948b"/></g><circle cx="53.5" cy="60.5" r="23.8" fill="#4abcc4"/><g class="B"><path d="M71.7 64.8c-1.2-.1-2.4-.2-3.5.2-.6.2-1.3.6-1.2 1.3 0 .4.3.7.3 1.1 0 .5-.4 1-.9 1.2s-1.1.1-1.6.1c-1.9-.1-3.7.2-5.5.8-.7.3-1.6.7-1.6 1.5 0 .4.3.8.7 1.1.4.2.8.3 1.3.4.5 0 .9.1 1.3.2.4.2.8.5.8 1 0 .6-.6 1.1-1.2 1.2s-1.3 0-1.9.1-1.3.5-1.3 1.2.8 1.1 1.6 1.2c1 .1 2.1-.3 3.1-.4s2.2.2 2.8 1.1c.2.4.3 1 .8 1.1.5.2 1-.2 1.5-.5.8-.4 1.6-.3 2.5-.2 4-3.6 6.8-8.5 7.7-14.1-.6.4-1.2.6-1.9.7-1.5 0-2.7-.2-3.8-.3zM50.5 82.7c-.4-.8-1.8-.7-2.1-1.5-.2-.6.4-1.2.9-1.6.6-.4 1.2-.8 1.2-1.5s-.8-1.1-1.5-1.2c-.9-.1-1.7.2-2.5.3-.8.2-1.7.3-2.5.1s-1.6-.9-1.7-1.7c-.1-.6.2-1.2.2-1.8 0-1-.9-1.8-1.8-2.1s-1.9-.2-2.9-.2-2 0-2.9-.5-1.5-1.5-1.2-2.5c.2-.5.6-.9.9-1.3s.5-1 .2-1.5c-.4-.7-1.6-.6-1.8-1.4-.1-.4.1-.8.4-1.1.5-.5 1.3-.8 1.4-1.6.1-.5-.1-.8-.6-1s-1.1-.1-1.6-.2c-.1 0-.2 0-.4-.1h-2.5c0 12 8.9 22 20.5 23.6.4-.2.6-.8.3-1.2zm6.7-33.3c-.4.3-.9.6-1.2 1s-.4 1-.3 1.5c.2.6.9 1.2.7 1.8-.1.5-.6.7-1.1.9l-2.9 1.1c-.5.2-.9.4-1.3.7s-.7.8-.6 1.3c0 .8.8 1.3 1.6 1.4.7.1 1.5-.1 2.3-.1.4 0 .9 0 1.3.2s.7.7.6 1.1-.5.7-.8 1-.6.8-.4 1.2.9.4 1.3.3c1.3-.3 2.7-.9 4-.4.9.4 1.6 1.2 2.5 1.7 1 .6 2.3.6 3.4.3s2.2-.8 3.2-1.4c.8-.4 1.6-.9 2.2-1.6.5-.7.7-1.8.1-2.6-.5-.6-1.3-.8-2.1-1.1-.7-.3-1.5-.9-1.3-1.7.1-.6.8-1 1.4-1.3.4-.3.9-.6 1.1-1.1s.3-1.1 0-1.5c-.4-.6-1.1-.7-1.8-.7s-1.4-.1-1.9-.6c-.3-.4-.4-.9-.8-1.2-.3-.3-.8-.5-1.2-.8-.6-.3-1.2-.5-1.9-.6-2.1-.3-4.3 0-6.1 1.2z" fill="#44aeb5"/><g fill="#388e94"><path d="M66.4 68.8c0 .1 0 0 0 0-.1-.1-.1-.1-.2-.1h-.1s-.1 0-.1-.1c0 0-.1 0-.1-.1-.1-.1-.2-.1-.3 0-.1.2 0 .3.1.4.1 0 .1.1.2.1 0 0 .1 0 .1.1.1.1.3.1.3 0 .2 0 .2-.1.1-.3 0 .1 0 .1 0 0zm1.1.6c0-.1-.2-.2-.3-.1s-.1.2 0 .3c0 0 0 .1.1.1.1.1.3.1.4 0 .1 0 .1-.1.1-.2s0-.1-.1-.2c-.1.1-.2.1-.2.1zm.8 1.2l-.1-.1c0-.1-.1-.1-.1-.1-.1 0-.1.1-.1.1v.3s0 .1 0 0c0 .1.2.2.3.1.1 0 .1-.2 0-.3zM64.2 68c0 .1-.1.1 0 0-.1.2-.1.2 0 .3.1 0 .1 0 .2-.1V68h-.2zm-4.4-18.2c.1 0 .3 0 .4.1 0 0 .1 0 .1.1.1.1.1.2.2.3 0 .2 0 .4.2.5.3.2.8.2.9-.2 0-.1 0-.2-.1-.4v-.1c-.1-.5-.6-.5-.9-.8-.1-.1-.2-.2-.2-.4 0-.1 0-.2-.1-.2-.1-.1-.4-.2-.6-.2-.3 0-.9.2-.9.6-.1.5.7.7 1 .7zM58 48.5c.1 0 .1 0 .2-.1h.1c.1 0 .1 0 .2-.1v-.2c-.1-.1-.2-.2-.3-.2s-.3.1-.3.2v.2c-.1.1 0 .2.1.2zm.2-1.3c.1-.1.1-.1 0 0 .2 0 .3-.1.3-.2s-.1-.2-.2-.2-.2.1-.2.2v.1l.1.1zm.5 3.8l.1-.1v-.2h-.2s0 .1-.1.1v.2h.2z"/><path d="M59.9 51.4c.2 0 .2-.3 0-.3-.3 0-.3.3 0 .3zm-1.3 8.2c-.2 0-.2.4 0 .4a.2.2 0 1 0 0-.4zm-.2 1.2v-.2s-.1-.1-.2 0c-.1 0-.1.1-.1.1 0 .1 0 .1.1.1h.2zm0 .6c-.2 0-.2.3 0 .3.1 0 .1-.3 0-.3zm18.9-2.9c-.4-4.8-2.3-9.2-5.1-12.8-.4-.1-.8-.3-1.2-.4-.3-.1-.6-.2-.9-.2-.4-.3-.8-.5-1.3-.6s-.9-.1-1.3-.5c-.3-.3-.6-.6-1-.7-.4-.2-.8-.2-1.2-.3s-.9-.1-1.3 0c-.2.1-.3.2-.5.3s-.4.1-.6.2c-.3.1-.5.3-.7.6-.1.3-.2.5-.3.8a1.27 1.27 0 0 1-.9.7c-.8.1-1.5.5-1.9 1.2-.1.2-.3.7-.1.9.1.1.3.1.4.1.3 0 .6-.1.8-.1h.4c.2 0 .2.1.3.3l.3.3c.3.1.7.1.9.4.1.2.1.4.2.5s.3.2.5.3.4 0 .7 0h.4c.2.1.4.3.3.5-.1 0-.2.1-.2.2-.4.1-.7.3-1 .6-.3.2-.7.5-1 .7-.4.3-.6.7-1 1-.3.3-.7.5-1.2.5-.4 0-.8 0-1.2.1-.6.1-1.3.5-1.3 1.2a1.08 1.08 0 0 0 .3.7c.1.1.2.1.4.2 0 0 .2 0 .2.1.1.1 0 .4-.1.5-.1.2-.2.5-.2.7-.1.2-.2.5-.2.7 0 .3.2.4.4.5.2 0 .4 0 .5.2s.1.3.2.4c.2.2.4.2.6.2-.1.3-.1.5.1.7 0 .1 0 .2.1.4.1.3.5.6.3.9-.1.2-.3.2-.5.3s-.4.3-.3.5c.1.3.5.2.7.4s0 .5-.1.8c-.2.2-.4.5-.3.7s.3.4.6.4c.2 0 .5-.1.7-.1.8 0 1.6.7 1.5 1.6 0 .3-.1.6.1.8.2.1.4.1.5 0 .2-.1.3-.2.5-.3.3-.1.6 0 .8.2.198.228.198.572 0 .8.1 0 .1.1.2.1 0 .1 0 .2.1.4.1.1.2.1.4.2s.2.3.3.5c.1.3.3.4.6.6.4.2.8.4 1.2.5.3.1.6.2.9.1.3.1.7.3 1 .4.2.1.5.2.7-.1 0 .1.1.2.1.3h1.5c.4 0 .9 0 1.2-.2.4-.2.6-.8.3-1.1l-.3-.3c-.1-.2 0-.5.2-.7 0 0 0-.1.1-.1.2 0 .4 0 .6-.1 0 .1.1.1.2.1.1-.1.2-.1.2-.2.2 0 .4 0 .5-.1a.76.76 0 0 0 .2-.4c0-.2-.1-.3 0-.4s.2-.2.2-.3v-.2c0-.1.1-.1.1-.2.2-.1.4-.3.5-.5v-.3c.1-.1.1-.2 0-.4s-.4-.2-.5-.1c0 0-.1 0-.1.1-.3 0-.5-.1-.6-.4-.2-.4.2-.9.5-1.3.2-.2.4-.5.5-.8.1-.2 0-.5-.1-.7.3-.2.5-.6.5-1 0-.1 0-.2-.1-.3 0-.1-.1-.2-.1-.3s0-.1.1-.2h1.1c.2 0 .4 0 .6-.1a.55.55 0 0 0 .3-.5c-.1-.1 0-.1.1-.1z"/></g><path d="M31.7 61.8c.7-.7 1.2-1.5 2.2-1.7.5-.1 1 .1 1.5 0 .5 0 1.1-.4 1-.9-.1-.3-.4-.6-.6-.9-.4-.7-.1-1.6.5-2.1s1.4-.6 2.2-.8l5.4-1c.7-.1 1.4-.3 2-.6.6-.4 1-1.1.8-1.8s-.9-1.1-1.1-1.7c-.3-.7.1-1.6.7-2 .6-.5 1.4-.7 2.1-.9l6.2-1.7c.6-.2 1.3-.4 1.8-.8s.9-1.1.7-1.7c-.3-.8-1.2-1.1-2.1-1.4-.8-.3-1.8-.9-1.7-1.7s1-1.2 1.1-2c.1-.6-.2-1.1-.7-1.5h-.2c-13.1 0-23.8 10.7-23.8 23.8 0 .7 0 1.4.1 2.1.7.2 1.4-.2 1.9-.7z" fill="#44aeb5"/><g fill="#388e94"><path d="M57.5 69.2c-.2-.1-.4-.2-.4-.4-.2.1-.5 0-.7-.2s-.3-.4-.6-.5c-.2-.1-.3 0-.5.2-.1.1-.3 0-.3-.2 0-.1 0-.3.1-.4s.2-.2.2-.4c.2-.4-.2-.8-.6-.9v-.3c-.3.1-.6 0-.8-.1l-.3-.3c-.2-.2-.4-.3-.6-.4s-.4-.2-.5-.3c-.5-.3-.9-.6-1.4-.8.1.1-.1.3-.3.3a.76.76 0 0 1-.4-.2c-.2-.1-.5 0-.7.2 0-.1-.1-.1-.1-.1-.1-.1-.4-.1-.5 0-.3.2-.4.5-.4.7-.2.1-.4.2-.5.2s-.3-.3-.4-.3c-.2-.1-.4-.1-.6 0-.4-.1-.8-.1-1.2-.2-.2-.2-.1-.5 0-.7s.2-.5.2-.7c0-.3-.3-.5-.5-.6-.2 0-.4 0-.6.1v-.3c-.1.1-.2 0-.3-.1v-.3c0-.3.1-.5.1-.8V61c-.1-.1-.2-.2-.3-.1v-.2c-.2-.1-.4-.1-.5.1-.1.1-.2.3-.3.5l-.3.6h-.6c.1-.2-.1-.5-.3-.4-.3-.3-.4-.5-.7-.8-.1-.2-.3-.3-.3-.5 0-.3.1-.5.3-.8.1-.2.3-.5.6-.6s.6 0 .9 0 .7-.1.7-.4c0 .2.4.2.6.1s.4-.3.6-.3.4.1.5.2.2.3.4.5c0 .1.1.1.2.2v.1c.1.2.1.4.1.6s.2.3.3.4c.2 0 .3 0 .4-.2 0-.1 0-.2.1-.3s.2-.2.3-.2l.6-.3c.2-.4.5-.6.7-1 .1-.1.1-.2.2-.3 0-.1.1-.2.1-.3l.3-.6.5-1.1c.3-.2.5-.5.6-.9s0-.7 0-1.1c.1-.4.3-.7.3-1.1s-.2-.7-.3-1.1.1-.8 0-1.2-.4-.6-.7-.6c-.2 0-.3 0-.4-.2-.1-.1-.1-.3-.1-.4-.1-.3-.2-.5-.4-.7-.2-.1-.4-.1-.6-.1-.1 0-.5.1-.5-.1s-.4-.3-.5-.1c-.3.6-1 .4-1.4.1-.2-.2-.5 0-.5.2 0 .3-.1.6-.3.8s-.4 0-.5-.2c-.2-.4-.3-.9-.5-1.3-.17-.393-.574-.635-1-.6-.6 0-1-.2-1.5-.5-.1-.1-.3 0-.4.1 0-.1-.2-.3-.2-.4-.1-.1-.2-.2-.3-.2-.3-.1-.6.1-.8.3s-.3.6-.5.8-.6.2-.9.3c-.3 0-.6.1-.8.2-.3.1-.5.4-.8.6s-.5.3-.9.5a.9.9 0 0 0-.6.6c-.1.3.1.7-.2 1s-.6.6-1 .9l-.9.9c-.2.2-.3.4-.2.7a.78.78 0 0 0 .4.4c.2.1.5.2.4.5-.1.2-.3.4-.3.7s.3.4.6.5h.5c.2 0 .3.2.4.3s.2.2.4.2.4 0 .5.2c.1.3.1.6.3.9l.1.1c0 .5 0 1.1.2 1.5a.78.78 0 0 0 .4.4c.2.1.4.1.5 0a.47.47 0 0 0 .1.6c.1.2.3.2.5.3.7.4 1.2 1.1 1.4 1.9 0 .2.1.5.2.7s.4.4.6.3l.1.1a.9.9 0 0 0 .6.6c.3.1.6.2.9.2.4.1.8.1 1.2.2.3 0 .6.1.8.2.3.1.6.4.9.6.2.1.3.3.4.5s.1.4.2.5.3.2.5.3c.6.2 1.3.2 1.9.2.1.2.2.4.2.5.3.6-.2 1.4-.7 1.8-.2.2-.4.3-.5.5s-.1.4-.1.7c0 .2 0 .5-.1.7s-.3.4-.5.4c.1.3.1.5.2.8-.1.1 0 .3.2.4s.3.1.4.3.1.4.1.6 0 .5.2.6.5-.1.6.1c.1.1.1.2.1.3.1.1.2.2.3.1.1 0 .2-.1.2-.3.2.1.4.2.6.2.1 0 .2 0 .2.1.1.1.1.2.1.3 0 .2 0 .5.1.7v.3c-.2.3-.7.2-.8.5-.1.2.2.4.3.6.1.3-.2.6-.4.9-.3.2-.6.5-.5.8 0 .2.2.3.4.3s.3 0 .5-.1l1.1-.3c.3-.1.6-.2.6-.5.2 0 .4-.2.5-.4l.3-.6c.4-.3.9 0 1.4-.2.3-.1.5-.4.7-.6s.6-.4.9-.2l.5-.5c-.2-.2.1-.5.3-.7s.4-.3.6-.5c.1-.2.1-.4.1-.6.1-.3.3-.6.6-.8.5-.4.9-.9 1.4-1.3-.1 0-.2-.1-.2-.3 0-.1.1-.2.2-.3s.2-.2.2-.3c-.2-.6-.5-.7-.7-.8z"/><path d="M48.6 61.8c.1 0 .3-.1.3-.3s-.2-.3-.4-.3-.4 0-.6-.2c0-.1-.2-.2-.3-.3-.3-.2-.9-.7-1.3-.6-.2 0-.4.2-.4.4s.3.3.4.1c0 .2-.1.4-.1.5.5-.3 1.2-.2 1.7.2l.3.3c.1.2.3.2.4.2zm.6.3c.2.2.5.2.7.2.3 0 .6 0 .9.1.1 0 .3 0 .3-.1s0-.1-.1-.2c-.5-.4-1.5-.6-1.8 0z"/><path d="M49.8 60.9s-.1-.1-.2-.1l.2.1c-.1 0-.1 0-.2-.1h-.1c-.1 0-.2.1-.2.2s.2.2.3.2.3.1.4.1h.2c.1-.1 0-.2-.1-.2 0-.2-.1-.2-.3-.2zm-2 1.2c-.1 0-.2.1-.2.2.1.1.2.2.3.2s.3 0 .3-.1c.1-.1 0-.2-.1-.3h-.3zm-2.9 6.3c-.1-.1-.2-.1-.3-.1h.1c-.1-.1-.3 0-.4.1s0 .3.2.4h.3c.1 0 .2 0 .3-.1-.1-.1-.1-.3-.2-.3zm-1.4-.1h-.2c-.1.1 0 .2 0 .3.1.1.2 0 .3 0 .1-.1.1-.2.1-.3h-.2zm.5-.6c-.1 0-.3 0-.3.1s.1.2.2.2.2-.1.3-.1H44c0 .1.1 0 .2 0v-.2H44zm8.9-3.1c-.1.1-.1.2 0 .3s.2.1.2.1c.1 0 .2.1.2.1.1-.2-.1-.4-.4-.5zm-.2-.5c.1 0 .2-.1.3-.1-.1-.1-.2-.2-.3-.2s-.3.2-.2.3c.1-.1.1 0 .2 0zM48.6 60c.1 0 .1-.1.1-.1 0-.1-.1-.1-.1-.1-.1 0-.1.1-.1.1s0 .1.1.1zm.3.5c0-.1-.1-.1-.2-.1s-.1.1-.1.1v.2s.1.1.2.1c.1-.1.2-.2.1-.3zm-.8.1c.1 0 .1-.1 0 0 .1-.1.1-.2.1-.3h-.1c-.1 0-.1 0-.1.1v.2h.1zm3.8 1.9c.1 0 .1-.1.1-.2h-.2c-.1.1 0 .2.1.2zm-.3.5c.1 0 .1-.2 0-.2-.1.1-.1.2 0 .2zm-.7-.2c.1 0 .1-.1 0-.1-.1-.1-.1.1 0 .1zm1.3 0c.1 0 .1-.2 0-.2s-.1.2 0 .2zm.7.1c.2 0 .2-.3 0-.3s-.2.3 0 .3z"/></g><g fill="#45736b"><path d="M68.8 42.2c3.4 4.1 5.5 9.4 5.5 15.2 0 13.1-10.7 23.8-23.8 23.8-5.8 0-11.1-2.1-15.2-5.5 4.4 5.2 10.9 8.6 18.3 8.6 13.1 0 23.8-10.7 23.8-23.8-.1-7.3-3.4-13.9-8.6-18.3z" class="C"/><path d="M54.7 37.9c6.3 0 12 2.4 16.2 6.4-4.3-4.7-10.5-7.6-17.4-7.6-13.1 0-23.8 10.7-23.8 23.8 0 6.9 2.9 13.1 7.6 17.4-4-4.3-6.4-10-6.4-16.2 0-13.1 10.7-23.8 23.8-23.8z" fill-opacity=".05"/></g><path d="M65.1 39.7a23.45 23.45 0 0 1 3 11.5C68 64.4 57.4 75 44.2 75a23.45 23.45 0 0 1-11.5-3c4.1 7.3 11.9 12.3 20.8 12.3 13.1 0 23.8-10.7 23.8-23.8 0-8.9-4.9-16.7-12.2-20.8z" fill="#4abcc4" fill-opacity=".3"/><path d="M54.1 55.5l1.9.5 2.5.7 1.9.6c.7.2 1.4-.2 1.5-.9l.4-1.9.6-2.5.4-1.9c.2-.7-.3-.9-1-.5l-1.2.7-1-1.8c-.4-.6-1.1-1.1-2.6-1.1h-5.8l2.4 4.2c.1.1.1.1.1.2l1 1.8-1.2.7c-.6.5-.6 1 .1 1.2z" fill="url(#D)"/><path d="M47.4 48.9l-2.2 3.4c-.4.6-.2 1.3.4 1.6l3.9 2.3c.6.3 1.3.1 1.7-.4l2.4-3.9c.2-.3.5-.4.7-.2l-2.4-4.2h-1.4c-1.2 0-2.3.1-3.1 1.4z" fill="url(#E)"/><path d="M40.6 64.6l2.5 4.6 2.7-4.4 1.4-2.4 1.4.8c.7.4 1.1.2 1-.5l-.5-1.9-.6-2.5-.5-2c-.2-.7-.9-1.1-1.5-.9l-2 .6-2.5.8-1.9.6c-.7.2-.6.7.1 1.1l1 .6-1.3 2.6c-.2.6 0 1.6.7 2.9z" fill="url(#F)"/><path d="M45.8 64.8l-2.7 4.4 1 1.8c.3.5.7 1.6 3.3 1.6h3.8c.7 0 1.2-.5 1.2-1.2v-4.5c0-.7-.5-1.2-1.2-1.2H46c-.5 0-.5-.3-.4-.6 0 0 .1-.1.2-.3z" fill="url(#G)"/><path d="M61.7 65.2l2.3 4.5 2.7-5.1c.7-1.5.9-2.7.6-3.4s-2-3.9-2-3.9c-.3-.6-1-.8-1.6-.4l-3.8 2.3c-.6.3-.8 1.1-.4 1.7l1.8 3.2c.2.4.4.6.4.7-.1.3 0 .3 0 .4z" fill="url(#H)"/><path d="M63.4 70.7c.1-.2.3-.5.6-1l-2.3-4.5c0 .3-.1.4-.4.4H59v-1.4c0-.8-.4-1.1-.9-.6L56.7 65l-1.9 1.8-1.4 1.4c-.5.5-.5 1.3 0 1.8l1.5 1.3c.5.5 1.4 1.3 1.9 1.7l1.5 1.3c.5.5.9.2.9-.6v-1.3H61c1.4.1 2-1.1 2.4-1.7z" fill="url(#I)"/></g><g opacity=".8" class="B"><path d="M73.3 50.4c.5 0 1.1.1 1.6.2-.3-.6-.4-1.2-.4-1.8 0-2.4 2-4.4 4.4-4.4.9 0 1.8.3 2.5.8.9-2.3 3.2-4 5.8-4 3.1 0 5.6 2.2 6.2 5.1.8-.3 1.6-.4 2.5-.4 4 0 7.3 3.3 7.3 7.3s-3.3 7.3-7.3 7.3H73.3c-2.8 0-5-2.3-5-5-.1-2.9 2.2-5.1 5-5.1z" fill="url(#J)"/><path d="M93.1 57.7c4 0 7.3-3.3 7.3-7.3 0-1.3-.4-2.6-1-3.6 2.2 1.3 3.7 3.6 3.7 6.4 0 4-3.3 7.3-7.3 7.3H73.3c-2.1 0-3.9-1.3-4.7-3.1.6.2 1.3.4 1.9.4h22.6v-.1z" fill="url(#K)"/></g><g opacity=".8" class="B"><path d="M24.9 38.1c.3 0 .7.1 1 .2-.2-.4-.3-.8-.3-1.2 0-1.5 1.2-2.8 2.8-2.8.6 0 1.1.2 1.6.5.6-1.52 2.07-2.52 3.7-2.5 1.9 0 3.5 1.4 3.9 3.2.5-.2 1-.3 1.6-.3 2.6 0 4.6 2.1 4.6 4.6 0 2.6-2.1 4.6-4.6 4.6H24.9c-1.8 0-3.2-1.4-3.2-3.2 0-1.7 1.4-3.1 3.2-3.1z" fill="url(#L)"/><path d="M37.4 42.8c2.6 0 4.6-2.1 4.6-4.6 0-.8-.2-1.6-.6-2.3 1.43.82 2.3 2.352 2.3 4 0 2.6-2.1 4.6-4.6 4.6H24.9c-1.3 0-2.5-.8-2.9-2 .4.2.8.2 1.2.2h14.2v.1z" fill="url(#M)"/></g><g opacity=".8" class="B"><path d="M69.8 76.4c.2 0 .4 0 .6.1-.1-.2-.2-.5-.2-.8a1.8 1.8 0 0 1 1.79-1.8 1.7 1.7 0 0 1 1.01.3c.4-.9 1.3-1.6 2.4-1.6a2.58 2.58 0 0 1 2.5 2.1c.3-.1.7-.2 1-.2 1.644.005 2.995 1.356 3 3 0 1.7-1.3 3-3 3h-9.2c-1.1 0-2.1-.9-2.1-2.1s1-2 2.2-2z" fill="url(#N)"/><path d="M77.8 79.4c1.644-.005 2.995-1.356 3-3 0-.5-.1-1-.4-1.5.9.5 1.5 1.5 1.5 2.6-.005 1.644-1.356 2.995-3 3h-9.2c-.9 0-1.6-.5-1.9-1.3.2.1.5.2.8.2h9.2z" fill="url(#O)"/></g><path d="M52.3-9.5L23.2-38.6l7.5-2-3-3.1 7-3.2.6-8.7-.8-11.2L23-78.2l61.3-1.3 2.3-3.4 24.7 24.7 1.4 34.2L68.9.8 52.3-9.5z" class="B C"/><defs><linearGradient id="B" x1="39.154" y1="72.521" x2="11.426" y2="72.521" xlink:href="#P"><stop offset="0" stop-color="#fff"/><stop offset="1" stop-color="#fff"/></linearGradient><linearGradient id="C" x1="39.154" y1="74.746" x2="11.426" y2="74.746" xlink:href="#P"><stop offset="0" stop-color="#daefff"/><stop offset="1" stop-color="#e3e3e3"/><stop offset="1" stop-color="#e3e3e3"/></linearGradient><linearGradient id="D" x1="52.621" y1="46.549" x2="62.315" y2="56.243" xlink:href="#P"><stop offset="0" stop-color="#fff"/><stop offset="1" stop-color="#fff"/></linearGradient><linearGradient id="E" x1="45.001" y1="51.893" x2="54.128" y2="51.893" xlink:href="#P"><stop offset="0" stop-color="#f8f8f8"/><stop offset="1" stop-color="#f9f9f9"/></linearGradient><linearGradient id="F" x1="39.713" y1="62.284" x2="49.629" y2="62.284" xlink:href="#P"><stop offset="0" stop-color="#fff"/><stop offset="1" stop-color="#fff"/></linearGradient><linearGradient id="G" x1="43.074" y1="68.67" x2="52.349" y2="68.67" xlink:href="#P"><stop offset="0" stop-color="#f8f8f8"/><stop offset="1" stop-color="#f9f9f9"/></linearGradient><linearGradient id="H" x1="60.289" y1="66.072" x2="67.128" y2="59.233" xlink:href="#P"><stop offset="0" stop-color="#fff"/><stop offset="1" stop-color="#fff"/></linearGradient><linearGradient id="I" x1="52.878" y1="69.059" x2="63.94" y2="69.059" xlink:href="#P"><stop offset="0" stop-color="#f8f8f8"/><stop offset="1" stop-color="#f9f9f9"/></linearGradient><linearGradient id="J" x1="103.109" y1="50.817" x2="68.205" y2="50.817" xlink:href="#P"><stop offset="0" stop-color="#fff"/><stop offset="1" stop-color="#fff"/></linearGradient><linearGradient id="K" x1="103.109" y1="53.618" x2="68.205" y2="53.618" xlink:href="#P"><stop offset="0" stop-color="#daefff"/><stop offset="1" stop-color="#e3e3e3"/><stop offset="1" stop-color="#e3e3e3"/></linearGradient><linearGradient id="L" x1="43.741" y1="38.385" x2="21.679" y2="38.385" xlink:href="#P"><stop offset="0" stop-color="#fff"/><stop offset="1" stop-color="#fff"/></linearGradient><linearGradient id="M" x1="43.741" y1="40.156" x2="21.679" y2="40.156" xlink:href="#P"><stop offset="0" stop-color="#daefff"/><stop offset="1" stop-color="#e3e3e3"/><stop offset="1" stop-color="#e3e3e3"/></linearGradient><linearGradient id="N" x1="81.919" y1="76.606" x2="67.719" y2="76.606" xlink:href="#P"><stop offset="0" stop-color="#fff"/><stop offset="1" stop-color="#fff"/></linearGradient><linearGradient id="O" x1="81.919" y1="77.746" x2="67.719" y2="77.746" xlink:href="#P"><stop offset="0" stop-color="#daefff"/><stop offset="1" stop-color="#e3e3e3"/><stop offset="1" stop-color="#e3e3e3"/></linearGradient><linearGradient id="P" gradientUnits="userSpaceOnUse"/></defs></svg>