<svg xmlns="http://www.w3.org/2000/svg" xmlns:xlink="http://www.w3.org/1999/xlink" viewBox="0 0 107.9 107.9"><style><![CDATA[.v{fill:#ed3644}.w{fill:#fecd2a}.x{fill:#fefefe}.y{fill:#70b744}.z{fill:#ab2a41}.AA{fill:#3f8e4a}.AB{fill:#7d4638}.AC{fill:#a75d31}]]></style><circle cx="54" cy="54" r="54" fill="#a2dcf1"/><defs><circle id="A" cx="54" cy="54" r="54"/><path id="B" d="M28.2 39.1c1.2 0 2.1-.9 2.1-2.1a1.69 1.69 0 0 0-.3-1c.6.4 1.1 1 1.1 1.8 0 1.2-.9 2.1-2.1 2.1h-6.4c-.6 0-1.1-.4-1.3-.9.2.1.4.1.6.1h6.3z"/><path id="C" d="M44.2 16.6c.2 0 .3 0 .4.1-.1-.2-.1-.3-.1-.5 0-.7.6-1.2 1.2-1.2.3 0 .5.1.7.2.3-.7.9-1.1 1.7-1.1a1.83 1.83 0 0 1 1.8 1.4c.2-.1.5-.1.7-.1 1.2 0 2.1.9 2.1 2.1s-.9 2.1-2.1 2.1h-6.4c-.8 0-1.4-.6-1.4-1.4s.6-1.6 1.4-1.6z"/></defs><clipPath id="D"><use xlink:href="#A"/></clipPath><path d="M92.8 111.6l18.5-32.1-17.5-17.4L73 79.8l-33.3.7-17.5-8.8-7 2.8 37.7 38.2z" opacity=".15" clip-path="url(#D)"/><path d="M69.3 91.7l-8.2.1c-1.6 0-2.1-1.4-3.1-2.1-.6-.3-1.1-.6-1.4-1.2-1.9-3-3.2-6.2-3.1-9.8 0-.7 0-1.4.6-1.8.3-.1.5-.2.8-.2 5.5-.1 11-.1 16.5 0 .9 0 1.8.4 1.7 1.4-.1 4.8-1 9.5-3.8 13.6z" class="v"/><path d="M54 77.1c-.4 4.8 1.1 8.9 4 12.6-11.2.4-20.9-3.3-29-11.1-.2-.2-.4-.5-.7-.8 1.6-.8 3.2-.8 4.9-.3 2.8 1 5.7 1.9 8.7 2.3 1.5.2 2.9.3 4.4 0 1.9-.4 2.3-1.3 1.5-3.1-.3-.6-1.1-1.1-.4-1.9 1.7-.5 3.5-.2 5.2-.3.5 0 1.1 0 1.5.4.4.8.4 1.5-.1 2.2z" class="y"/><path d="M54 77.1c0-.7 0-1.3-.1-2 .7-.7 1.7-.6 2.6-.6h15.2c1.8 0 3.2-.1 3.7-2.2l2.4-.1c.7-.4 1.4-.6 2 0 .7.8.6 1.7.2 2.7-.9.7-1.1 1.7-1.1 2.9 0 1.8.2 3.6-.8 5.2-1 2.2-2 4.4-3.4 6.4s-3.1 2.7-5.5 2.3c1-2.9 2.4-5.7 2.9-8.7l.6-4.2c.2-1.3-.3-1.8-1.7-1.8l-17 .1z" class="z"/><path d="M47.1 75.1c.2.3.4.7.7 1 1.7 2.6.9 4.2-2.3 4.4-3 .2-6-.4-8.8-1.3-.5-.1-1-.2-1.5-.5-2.2-1.1-4.5-1.2-6.9-.9-2.1-.5-4.2-1.1-5.8-2.8l.2-.2c2-.6 4-.2 6.1-.3 1.1-.1 2.2 0 3.2 0 1.3-.1 2.5 0 3.8 0h6.4c1.5 0 2.9-.2 4.4.1.2.2.4.3.5.5z" class="AA"/><path d="M79.8 75v-.7c.3-1.7-.4-2.3-2-2.1 1.8-3.7 5-5.5 8.9-4.9.8.1 1.2-.2 1.7-.7 1.6-1.7 3.1-3.6 5.3-4.5-1.4 4.8-3.7 9.1-6.9 12.9-2.3.9-4.6 1-7 0z" fill="#006e47"/><path d="M13 69.6l-1.6-5.8c-.5-2.1.2-3.4 2-4.5l3.7-2.3c.8 0 1 .6 1.2 1.2 1 3.3 1.8 6.7 2.7 10 .2.6.3 1.2-.4 1.7-2.6.3-5.1.6-7.6-.3zm22.8-32c-.3-.1-.6-.3-.8-.2-3.1.7-4.5-1.8-6.3-3.5-.5-.7-.4-1.5-.2-2.3.7-2.4 2.9-3.9 5.4-3.7s4.4 1.9 4.7 4.3c.4 2.4-.7 4.6-2.8 5.4z" class="w"/><path d="M35.8 37.6c1.4-1.3 2.6-2.6 2.5-4.8-.2-2.5-2-4.4-4.6-4.5-2.7-.1-4.7 1.7-5 4.2v1.4l-2.1-1c.4-3.5 2.6-6 5.7-6.5 3.2-.5 6.1 1.1 7.4 4 1.4 3.1.5 6.3-2.5 8.6-.4-.6-.9-1-1.4-1.4z" fill="#f1912a"/><path d="M31.2 28.5c.3.1.6.3.8.2 3.2-.7 4.5 1.9 6.3 3.5.5.7.4 1.5.2 2.3-.7 2.4-2.9 3.9-5.5 3.7-2.5-.2-4.3-1.9-4.7-4.4-.4-2.4.8-4.5 2.9-5.3z" class="w"/><path d="M31.6 28.7c-1.4.8-3 2.2-2.9 4.6.1 2.6 2 4.4 4.6 4.5s4.7-1.6 5-4.1c.1-.5 0-1-.1-1.5l2.2 1.2c-.4 3.5-2.6 6-5.8 6.5s-6.1-1.1-7.4-4c-1.4-3.1-.4-6.3 2.5-8.6.5.3 1.4.9 1.9 1.4z" fill="#f1912a"/><path d="M13 69.6h7.9c.1 0 .1.1.2.1.9 1.5 1.1 3.2 1.6 4.9 0 .2 0 .3-.1.5l-.1.1h-4.9c-2.3 0-3.5-.9-4.2-3.1l-.4-2.5z" fill="#f19129"/><path d="M79.8 75h7.1c-2.5 3.2-5.3 5.9-8.8 8 .3-2.3.5-4.7.4-7 0-1.1.7-.9 1.3-1z" class="y"/><path d="M20.9 69.6l-3.1-11.8c-.1-.4-.2-.8-.7-.9l.3-.3c.6 0 1.1-.5 1.7-.7a1.27 1.27 0 0 1 .7.9c1.1 4.2 2.4 8.3 3.2 12.5 0 .2-.1.3-.3.4-.7.4-1.3.3-1.8-.1z" fill="#fefdfc"/><path d="M38.9 54.5c.7.2 1.5-.2 2.1.4.1.1.2.2.2.3.5 3.8.8 7.7-.5 11.4-.2.7-.7 1.3-1.6 1.4-.4.1-.9 0-1.3-.1-.5-.1-1-.2-1.5-.2-1.1 0-1.7-.6-2-1.5a6.71 6.71 0 0 1-.6-2.8c-.1-2.2 0-4.4 0-6.6 0-.6.2-1.2.5-1.8.6-.4 1.4-.3 2.1-.4.8-.7 1.7-.7 2.6-.1z" class="x"/><path d="M23.6 53.2c-.1-1.5 1.3-3.2 2.8-3.4 1-.2.9.6 1.1 1.2l4 14.5c.3.9.5 1.9.7 2.8-.3 1.1-1.3 1.4-2.3 1.7-1.5.3-2.3-.4-2.7-1.9-1.1-4.4-2.4-8.7-3.6-13.1-.1-.6-.3-1.2 0-1.8z" class="w"/><path d="M70.6 31.1c-1 .5-1.6 0-1.7-.9-.1-1.1-.6-1.7-1.8-1.9-1.3-.1-1.6-.9-.8-2 .6-.8.7-1.5 0-2.3-1-1.1-.5-1.8.7-2 1.1-.2 1.7-.6 1.8-1.8s.8-1.5 1.8-.8c.9.7 1.7.8 2.7 0 1-.9 1.7-.2 1.9.9s.7 1.6 1.7 1.7c1.1.2 1.7.9.9 1.9-.7.9-.8 1.6-.1 2.6.7.9.6 1.8-.8 1.9-1.1.1-1.5.7-1.7 1.7s-.7 1.7-1.9 1c-.8-.7-1.7-.1-2.7 0z" class="x"/><path d="M58.7 72.3l-.4-2.5c-.5-2.7.8-4.3 3.5-4.3h1.7a3.01 3.01 0 0 1 3.4 0c.7 0 1.4.1 2 .1 1.1-.1 1.8.5 2.3 1.3.9 1.6.5 4.4-.9 5.7-3.5.5-7.1.2-10.7.2-.3 0-.7-.2-.9-.5z" class="AC"/><path d="M58.7 72.3h12c1.4-.7 2.8-.7 4.2 0 .2 0 .3.1.5.1v1.2c.2 1.3-.4 1.5-1.6 1.5h-20c-.4 0-.9 0-1.3-.1-.6-.9-.7-1.8 0-2.6l6.2-.1z" class="v"/><path d="M66.9 65.5h-3.4c.2-1.9-.4-3.9.4-5.8.5-.7-.2-1.8.6-2.4v-6.1c0-3.2 1.2-6 3.4-8.3 1.7-1.8 2.7-3.8 3.3-6.2.4-1.6-.7-2.8-.6-4.3.9-.6 1.7-.6 2.6 0-.8 4.2-1.2 8.5-4.7 11.8-2.3 2.2-3.4 5.1-2.5 8.3.6 1.2-.3 2.5-.1 3.7-.3 1.4-.3 2.7.5 4.2 1 1.5.4 3.4.5 5.1z" class="y"/><path d="M22.8 69.5l-3.7-13.6c.9-.7 2-1.3 3.1-1.8.7.3.8.9 1 1.5 1.1 3.8 2.1 7.7 3.1 11.5.2.8.8 1.9-.1 2.5-1.1.7-2.3.8-3.4-.1z" class="w"/><path d="M78.9 44.7c-.1-.1-.2-.1-.3-.2-.5-.8 1.4-3.9 2.1-4.3 1.7-1.1 3.2-.6 4.9-.1.9.3 1.4.3 1.1 1.3 0 .1-.1.1 0 .2 1.4 1.5.8 3.1 0 4.7 0 .1.1.2.1.3 0 .4-.2.9-.4.8-1.6-.9-2.4 2.1-4 .8-.6-.5-1-.9-1.8-.7-1.1.2-1.3-.4-1.2-1.3 0-.6-.4-.9-.5-1.5z" class="x"/><path d="M30 69.6l2.1-1.4c.7-.2 1.4-.4 2-.7.2-.2.4-.3.7-.2 3.2 1 5.8 2.8 7.2 5.9.2.5.7 1.1.2 1.7h-6.5c-.2-.2-.5-.4-.7-.7-.9-2.3-3-3.4-5.1-4.2 0-.1 0-.2.1-.4z" class="AC"/><path d="M30 69.6v.3c-.5.6-1.3.4-2 .5-1.2.2-2.2.7-3.1 1.4-.4.3-.8.8-1.4.5-.6-.8-1.1-1.7-.6-2.8 3.6.2 3.7.2 2.8-3.2l-3.4-12.2 1.4-.9c1.4 4.8 2.8 9.6 4 14.5.3 1.5.8 2.2 2.3 1.9z" fill="#f19129"/><path d="M42.3 75c-1.1-3.3-3.2-5.6-6.5-6.8-.4-.1-.7-.4-1-.6 1-.5 2-.2 3.1-.1.3 0 .6.1 1 .1.4.3 1-.1 1.4.3 2.2 1 4.1 2.4 5.5 4.4.9.7 1.6 1.4 1 2.7h-4.5z" class="AB"/><path d="M64.5 57.3c-.2.8.6 1.8-.6 2.4-.7-2.3-2.4-4-4.1-5.5-3-2.8-4.4-6.1-4.2-10.2.1-2 0-4.1 0-6.1a.85.85 0 0 1 1.3 0v6.8c0 3.1 1 5.8 3.3 7.9 1.6 1.5 3 3 4.3 4.7z" fill="#3f8e4b"/><path d="M53.5 48.4c-1.4.8-2.8.2-4.2.3-1.2.1-2.4.2-3.5-.1-1.8-.4-3.2-1.4-3.8-3.3.4-.4.9-.5 1.4-.5 1.8 0 3.5-.2 5.3 0 2.1.4 4.1 1.2 4.8 3.6z" class="AA"/><path d="M53.5 48.4c-1.5-2.2-3.6-3.2-6.2-3.1-1.8.1-3.6 0-5.4 0-1.1-2.4-1-2.4 1.5-2.4h4.4c3.2.1 5.4 2.3 5.7 5.5z" class="y"/><path d="M74.9 72.3h-4.2l.4-2.1c.5-2.5.1-3.5-2.1-4.6.1 0 .2-.1.3-.1 1.4-.7 2.7-.7 4.1.1 2.1 1.4 2.4 2.3 1.9 4.9-.2.5-.3 1.2-.4 1.8z" class="AB"/><path d="M73.4 65.5c-1.4 0-2.7-.1-4.1-.1v-6.1c0-1 .3-1.5 1.3-1.4.5.1 1 .1 1.5 0 1-.1 1.3.3 1.3 1.3v6.3z" class="x"/><path d="M78.9 44.7c.7.3 1 .6.7 1.4-2.9.7-5.8 1.5-8.4 3.2s-4.4 3.9-5.1 7c-.4-1.2-.4-2.5.1-3.7 2.4-4 6.2-5.9 10.5-7.2.7-.2 1.4-.4 2.2-.7z" fill="#408e4c"/><path d="M37.9 67.5l-3.1.1h-.6c-2-3.2-1.8-6.7-1.8-10.2 0-1.2.6-2 1.7-2.4v8.4c0 1.1.3 2.2.9 3.2.7 1.3 2.1.1 2.9.9zm2.4.4c-.5 0-1 0-1.4-.3.8 0 1.2-.5 1.4-1.2.8-2 .7-4.1.7-6.2v-5.3c1.1.2 1.6 1 1.6 1.9 0 2.6.4 5.2-.4 7.8-.4 1.3-.9 2.4-1.9 3.3z" fill="#d8d6d1"/><path d="M46.8 75c0-1-.7-1.8-1-2.7h6.8v2.6l-5.4.1c-.2.1-.3 0-.4 0z" fill="#006e47"/><path d="M73.8 50.9c1.9-1.5 4.1-1.4 6 .2.9.7 1.6 1.6 2.4 2.4 1.4 1.4 1.4 1.5-.6 2.2-.7-.3-1.4-.8-1.9-1.4-1.5-2.1-3.5-3-5.9-3.4z" fill="#70b746"/><path d="M61.7 61.1c-3.6 1.3-6.6.4-8.2-2.4 3-1.5 6.9-.3 8.2 2.4zm12.1-10.2c2.4-.4 4.1.7 5.6 2.4l2.2 2.3c-2 .4-3.7 0-5-1.6-.9-1.1-2.2-1.8-2.8-3.1z" class="AA"/><path d="M35.5 49.8v-3.7c0-1.4.6-2.2 2-2.3 1.7 1.9 1.4 3.9.7 6.1-.9.5-1.8.6-2.7-.1z" class="v"/><path d="M61.7 61.1c-2.1-2.9-5.3-2.4-8.2-2.4-.4-.4-1-.9-.7-1.5.2-.4.9-.2 1.4-.2h3.2c2.4 0 4 1.6 4.3 4.1z" fill="#6fb745"/><path d="M74.7 37.5c.3-2 1.8-3.6 3.8-3.7 1.2-.1 2.5 0 3.7 0h1.5c0 .9-.5 1.2-.9 1.7-.6.4-1.4.5-2.1.4-1.8-.1-3.6.1-5.1 1.4-.2.2-.5.3-.9.2z" fill="#6fb744"/><path d="M54.6 33.8c-.7-2.1 0-3.6 1.9-3.5 1.6.1 2.2 1.4 1.5 3.5-1.2 1.4-2.2 1.4-3.4 0z" fill="#fdfdfd"/><path d="M74.7 37.5c2.2-2.6 5.3-2.1 8.1-2-1.1 1.7-2.6 2.6-4.7 2.4-1.1-.2-2.3.3-3.4-.4z" class="AA"/><path d="M54.6 33.8c1.1.9 2.2.9 3.4 0-.2 1.4.7 3-1 4.1h-1.3c-1.8-1-.9-2.7-1.1-4.1z" fill="#70b845"/><path d="M38.2 49.8c0-2 .3-4.1-.7-6 1.5.1 2.1.9 2.1 2.3v3.7c-.3.4-.7.4-1.2.2-.1-.1-.1-.2-.2-.2z" fill="#ac2b42"/><path d="M36.2 53.3c-1.3-.5-.5-1.6-.6-2.4.9-.7 1.8-.6 2.7-.1.6.8.6 1.6.1 2.5-.8.5-1.5.5-2.2 0z" class="v"/><path d="M73.3 32.4h-2.6v-1.3c.9-.9 1.8-1.3 2.8-.1-.1.5-.2.9-.2 1.4z" fill="#428f4c"/><path d="M36.2 53.3c.7 0 1.3-.1 2-.1.3-.2.5-.1.7.1v1.3h-2.7v-1.3z" fill="#281e28"/><path d="M38.9 53.3c-.2 0-.5-.1-.7-.1v-2.3l.2-.2c.4-.2.8-.2 1.2.2-.3.8.6 1.9-.7 2.4z" class="z"/><path d="M38.2 50.9h-2.7v-1h2.7v.1c.3.2.3.5 0 .9z" class="x"/><path d="M55.9 54.4c0 .4-.2.6-.6.7-.4 0-.6-.2-.7-.6s.2-.6.6-.6.7.1.7.5z" fill="#ebf7f8"/><path d="M38.2 50.8v-.9c.5 0 .9-.1 1.4-.1v1.1c-.5-.1-.9-.1-1.4-.1z" fill="#d8d6d1"/><path d="M79.3 62.6c0 .4-.2.6-.6.6a.47.47 0 0 1-.5-.5c0-.4.1-.6.6-.6.2 0 .4.2.5.5z" fill="#fdfdfe"/><path d="M23.6 72.4c1.2-1.2 2.5-2 4.1-2.4 1.9.3 3.3 1.5 4.2 3.1.3.6.7 1.2.2 1.9h-9.5c0-.1-.1-.2-.1-.3-.2-1.1.2-1.8 1.1-2.3z" class="AC"/><path d="M32.1 75c-.2-2-1.4-3.2-3-4.2l-1.4-.9 2.3-.1c3.1.4 5 2.2 5.8 5.1-1.2.1-2.5.1-3.7.1z" class="AB"/><path d="M43.9 79.8c-.8.4-1.7.1-2.5.2h-.9c-1.7 0-3.3-.1-5-.1-1.5 0-2-.6-2.1-2-.1-.4.1-.8.1-1.2.3-1.2.8-2.4 1-3.6.2-.6.6-.8 1.3-.6 1.4.3 2.9.1 4.4.1 2.3.1 1.8-.2 2.4 1.9l1.2 4.2c.1.4.3.8.1 1.1z" class="v"/><path d="M43.9 79.8l-1.7-6.4c-.1-.5-.3-.6-.8-.6h-5c-.3 0-.7 0-1-.2-.6-.3-.3.6-.7.6-.1.3-.4.2-.6.1-.4-.4-.2-.7.1-1.1.4-.2 1 .3 1.2-.4 1.9.2 3.7.1 5.6.2.8 0 1.5.1 2.2-.5l.6 1.7c.5 1.2 1 2.4 1 3.8l.3 1.2c-.1.7-.5 1.3-1.2 1.6z" class="z"/><path d="M43 71.4c-.3.6-.8.7-1.4.7-1.6 0-3.2-.1-4.8-.1-.5 0-1.1 0-1.5-.3-.2-1.5.1-1.8 1.6-1.8H40c.6 0 1.1 0 1.7.1 1 0 1.3.3 1.3 1.4z" fill="#ec3644"/><path d="M34.1 72.2c.1.3-.3.6 0 .9-.2.4-.5.2-.8.3-1 .1-1.4.9-.9 1.9.2.3.5.5.6.9 0 .4 0 .8-.4 1.1l-.9-.9c-.9-.9-1.1-1.9-.6-2.9.4-.9 1.4-1.4 2.5-1.3.2-.1.4-.1.5 0z" fill="#ed3745"/><path d="M32.7 77.2l.3-1c.4 0 .5.2.6.6s-.2.7-.2 1.1c-.3-.2-.5-.4-.7-.7z" fill="#ae2a41"/><path d="M44.6 76.9c-.3-1.3-.8-2.5-1-3.8.8 1 1.9.6 2.8.3 1 .1 2 .3 2.9.9l-4.7 2.6z" fill="#7f3145"/><path d="M49.3 74.3l-2.9-.9 3.7-1.3c.2-.2.4-.3.7-.2l1.2-.3c.2-.1.6-.4.7.1.1.4.3.7-.3.9l-.6.3c-.1.3-.3.3-.6.3-.5.5-1.2.8-1.9 1.1z" class="z"/><path d="M51.3 73.3l.6-.3" fill="#408e4c"/><path d="M36 70.8c.2-.2.4-.1.6-.1l5 .1c.2 0 .6-.1.6.3s-.3.4-.6.4c-1.7 0-3.5 0-5.2-.1-.2 0-.5 0-.5-.2s0-.3.1-.4z" fill="#7f3145"/><path d="M23.6 72.4l-1.1 2.3c-.9-1.6-1-3.4-1.7-5.1h2l.8 2.8z" fill="#fdcb2a"/><path d="M75 25.3c-.1 1.7-1.4 2.8-3 2.8-1.7-.1-2.8-1.3-2.8-3 .1-1.6 1.4-2.9 3-2.8 1.6 0 2.9 1.4 2.8 3z" fill="#f5af3d"/><path d="M62.7 68.7c0 .6-.3.8-.9.9-.5 0-.8-.2-.8-.7 0-.4.1-.8.6-.9.6 0 1 .2 1.1.7z" fill="#804837"/><path d="M67.9 68.5c-.3 0-.5-.2-.6-.5 0-.4.3-.6.6-.6s.5.3.5.6c0 .2-.2.4-.5.5z" fill="#8a4d36"/><path d="M65.5 70c.3 0 .5.2.6.5s-.2.6-.4.6c-.4.1-.7-.1-.7-.6-.1-.2.2-.4.5-.5z" fill="#894c36"/><path d="M85.3 43.8c-.1 1.2-.8 2-2 2.1-1.2 0-2.1-.6-2.1-1.9-.1-1.3.9-2.3 2-2.2 1.2 0 2 .7 2.1 2z" fill="#f5b040"/><path d="M35.7 70.3c-.1.4-.3.6-.7.5-.3-.1-.5-.3-.5-.6 0-.4.3-.6.7-.5.3.1.5.3.5.6z" class="AB"/><path d="M39.5 72.8c0 .2-.1.4-.4.5-.3 0-.5-.1-.5-.5 0-.3.2-.4.4-.4.3 0 .5.1.5.4z" fill="#814837"/><path d="M73.6 68.6c-.1.3-.3.5-.6.5-.4-.1-.6-.3-.5-.7.1-.3.3-.5.7-.4.2.1.4.3.4.6z" fill="#9a5633"/><path d="M72.3 60.5c-.1.8.3 1.6-1 1.6-1.4 0-1.1-.8-1.1-1.6 0-.7-.3-1.6 1.1-1.6 1.5.1.9 1.1 1 1.6z" fill="#f19029"/><path d="M26.2 73.2c0 .3-.2.4-.4.4-.3 0-.5-.2-.4-.6.1-.3.3-.3.5-.3a.55.55 0 0 1 .3.5z" fill="#814837"/><path d="M71.7 26.6c-.9 0-1.2-.6-1.1-1.5.1-1 .6-1.6 1.6-1.5.9 0 1.5.6 1.5 1.5 0 1.1-.7 1.5-2 1.5z" class="w"/><path d="M84.3 43.8c-.2.6-.4 1.1-1.1 1.1-.6 0-1-.5-.9-1.1 0-.6.4-.9.9-1 .6-.1.9.5 1.1 1z" fill="#fdcb2b"/><linearGradient id="E" gradientUnits="userSpaceOnUse" x1="31.073" y1="37.109" x2="21.115" y2="37.109"><stop offset="0" stop-color="#fff"/><stop offset="1" stop-color="#fff"/></linearGradient><path d="M22.6 37c.2 0 .3 0 .4.1-.1-.2-.1-.3-.1-.5 0-.7.6-1.2 1.2-1.2.3 0 .5.1.7.2.3-.7.9-1.1 1.7-1.1a1.83 1.83 0 0 1 1.8 1.4c.2-.1.5-.1.7-.1 1.2 0 2.1.9 2.1 2.1S30.2 40 29 40h-6.4c-.8 0-1.4-.6-1.4-1.4s.6-1.6 1.4-1.6z" fill="url(#E)"/><linearGradient id="F" gradientUnits="userSpaceOnUse" x1="31.073" y1="37.908" x2="21.115" y2="37.908"><stop offset="0" stop-color="#daefff"/><stop offset=".996" stop-color="#e3e3e3"/></linearGradient><use xlink:href="#B" fill="url(#F)"/><linearGradient id="G" gradientUnits="userSpaceOnUse" x1="52.694" y1="16.761" x2="42.736" y2="16.761"><stop offset="0" stop-color="#fff"/><stop offset="1" stop-color="#fff"/></linearGradient><use xlink:href="#C" fill="url(#G)"/><linearGradient id="H" gradientUnits="userSpaceOnUse" x1="31.094" y1="37.96" x2="21.136" y2="37.96"><stop offset="0" stop-color="#daefff"/><stop offset=".996" stop-color="#e3e3e3"/></linearGradient><use xlink:href="#B" x="21.6" y="-20.4" fill="url(#H)"/><linearGradient id="I" gradientUnits="userSpaceOnUse" x1="56.612" y1="17.56" x2="46.654" y2="17.56"><stop offset="0" stop-color="#fff"/><stop offset="1" stop-color="#fff"/></linearGradient><path d="M48.1 17.4c.2 0 .3 0 .4.1-.1-.2-.1-.3-.1-.5 0-.7.6-1.2 1.2-1.2.3 0 .5.1.7.2.3-.7.9-1.1 1.7-1.1a1.83 1.83 0 0 1 1.8 1.4c.2-.1.5-.1.7-.1 1.2 0 2.1.9 2.1 2.1s-.9 2.1-2.1 2.1h-6.4c-.8 0-1.4-.6-1.4-1.4 0-.9.6-1.6 1.4-1.6z" fill="url(#I)"/><linearGradient id="J" gradientUnits="userSpaceOnUse" x1="31.112" y1="37.959" x2="21.154" y2="37.959"><stop offset="0" stop-color="#daefff"/><stop offset=".996" stop-color="#e3e3e3"/></linearGradient><use xlink:href="#B" x="25.5" y="-19.6" fill="url(#J)"/><linearGradient id="K" gradientUnits="userSpaceOnUse" x1="52.745" y1="16.757" x2="42.787" y2="16.757"><stop offset="0" stop-color="#fff"/><stop offset="1" stop-color="#fff"/></linearGradient><use xlink:href="#C" x="43.3" y="34.1" fill="url(#K)"/><linearGradient id="L" gradientUnits="userSpaceOnUse" x1="31.045" y1="37.956" x2="21.087" y2="37.956"><stop offset="0" stop-color="#daefff"/><stop offset=".996" stop-color="#e3e3e3"/></linearGradient><use xlink:href="#B" x="65" y="13.7" fill="url(#L)"/></svg>