<svg xmlns="http://www.w3.org/2000/svg" width="100%" height="100%" viewBox="0 0 109 109" fill-rule="evenodd" stroke-linejoin="round" stroke-miterlimit="1.41421"><circle cx="54.1" cy="54.1" r="54.1" fill="#405666"/><clipPath id="A"><circle cx="54.1" cy="54.1" r="54.1"/></clipPath><g clip-path="url(#A)"><path d="M112.3 61.1L73 21.4l-4 5.8L55.8 16 39.9 30.9 28.2 42.6l1.1 45.1-2.1 2.1 27.5 27.3 35.1-6.7 20.4-24.7c.6-.6 2.1-24.6 2.1-24.6z" fill="#050001" fill-opacity=".15" fill-rule="nonzero"/></g><g fill-rule="nonzero"><path d="M38.9 74.5h34.6v7H38.9z" fill="#fff"/><g fill="#cf8938"><path d="M72 89c0 .4.4.7.8.7h3.9c.5 0 .8-.3.8-.7v-5.3c0-.4-.4-.2-.8-.2h-3.9c-.5 0-.8-.2-.8.2V89zm-36.3 0c0 .4.4.7.8.7h3.9c.5 0 .8-.3.8-.7v-5.3c0-.4-.4-.2-.8-.2h-3.9c-.5 0-.8-.2-.8.2V89z"/><path d="M77.6 83.9c0 .5-.4.9-1 .9H36.7c-.5 0-1-.4-1-.9v-3.3c0-.5.4-.9 1-.9h39.9c.5 0 1 .4 1 .9v3.3z"/><path d="M38.9 84.1c0 .4-.4.7-.8.7h-1.5c-.5 0-.8-.3-.8-.7V68.3c0-.4.4-.7.8-.7H38c.5 0 .8.3.8.7v15.8h.1z"/></g><path d="M47.5 75.1c0 .7-.6 1.3-1.4 1.3h-5.8c-.8 0-1.4-.6-1.4-1.3V74c0-.7.6-1.3 1.4-1.3h5.8c.8 0 1.4.6 1.4 1.3v1.1z" fill="#85cbcb"/></g><ellipse cx="37.3" cy="67.2" rx="1.5" ry="1.3" fill="#cf8938"/><g fill-rule="nonzero"><path d="M77 82.1c0 1-.5 1.8-1.1 1.8H37.6c-.6 0-1.1-.8-1.1-1.8s.5-1.8 1.1-1.8H76c.5 0 1 .8 1 1.8z" fill="#b37731"/><path d="M77.7 81.1c0 1-1 1.7-2.2 1.7H49.6c-1.2 0-2.2-.8-2.2-1.7v-6.3c0-1 1-1.7 2.2-1.7h25.9c1.2 0 2.2.8 2.2 1.7v6.3z" fill="#e4f5f4"/><path d="M77 75.2c0 .6-.6 1.1-1.3 1.1H49.4c-.7 0-1.3-.5-1.3-1.1v-.5c0-.6.6-1.1 1.3-1.1h26.3c.7 0 1.3.5 1.3 1.1v.5z" fill="#cae3e1"/><path d="M38.9 50.7h34.6v7H38.9z" fill="#fff"/><g fill="#cf8938"><path d="M77.6 60.1c0 .5-.4.9-1 .9H36.7c-.5 0-1-.4-1-.9v-3.3c0-.5.4-.9 1-.9h39.9c.5 0 1 .4 1 .9v3.3z"/><path d="M38.9 67.7c0 .6-.4 1.1-.8 1.1h-1.5c-.5 0-.8-.5-.8-1.1V44.8c0-.6.4-1.1.8-1.1H38c.5 0 .8.5.8 1.1v22.9h.1z"/></g><path d="M47.5 51.3c0 .7-.6 1.3-1.4 1.3h-5.8c-.8 0-1.4-.6-1.4-1.3v-1.1c0-.7.6-1.3 1.4-1.3h5.8c.8 0 1.4.6 1.4 1.3v1.1z" fill="#85cbcb"/></g><ellipse cx="37.3" cy="43.4" rx="1.5" ry="1.3" fill="#cf8938"/><g fill-rule="nonzero"><path d="M77 58.3c0 1-.5 1.8-1.1 1.8H37.6c-.6 0-1.1-.8-1.1-1.8s.5-1.8 1.1-1.8H76c.5 0 1 .8 1 1.8z" fill="#b37731"/><path d="M77.7 57.3c0 1-1 1.7-2.2 1.7H49.6c-1.2 0-2.2-.8-2.2-1.7V51c0-1 1-1.7 2.2-1.7h25.9c1.2 0 2.2.8 2.2 1.7v6.3z" fill="#e4f5f4"/><path d="M77 51.4c0 .6-.6 1.1-1.3 1.1H49.4c-.7 0-1.3-.5-1.3-1.1V51c0-.6.6-1.1 1.3-1.1h26.3c.7 0 1.3.5 1.3 1.1v.4z" fill="#cae3e1"/><path d="M73.2 29c0 .5-.4 1-.9 1h-4.2c-.5 0-1-.4-1-1v-7c0-.5.4-.9 1-.9h4.2c.5 0 .9.4.9.9v7z" fill="#381616"/><path d="M27.2 47.4v42.4h4.1V43.2l-4.1 4.2z" fill="#efc94c"/><path d="M48.1 27.2H54v5.9h-5.9v-5.9zm7.2 0h5.9v5.9h-5.9v-5.9zm-7.2 7.1H54v5.9h-5.9v-5.9zm7.2 0h5.9v5.9h-5.9v-5.9z" fill="#fff"/><path d="M25.4 48.1l-3-2.9 32.8-32.8 3 2.9-32.8 32.8z" fill="url(#B)"/><path d="M88 45.2l-2.9 2.9-32.8-32.8 2.9-2.9L88 45.2z" fill="url(#C)"/></g><defs><linearGradient id="B" x1="22.448" y1="30.233" x2="58.193" y2="30.233" gradientUnits="userSpaceOnUse"><stop offset="0" stop-color="#e54a47"/><stop offset=".74" stop-color="#ea5350"/><stop offset="1" stop-color="#ea5350"/></linearGradient><linearGradient id="C" x1="52.289" y1="30.233" x2="88.03" y2="30.233" gradientUnits="userSpaceOnUse"><stop offset="0" stop-color="#e54a47"/><stop offset=".74" stop-color="#ea5350"/><stop offset="1" stop-color="#ea5350"/></linearGradient></defs></svg>