<svg xmlns="http://www.w3.org/2000/svg" xmlns:xlink="http://www.w3.org/1999/xlink" viewBox="0 0 108.4 108.4"><circle cx="54.2" cy="54.2" r="54.2" fill="#f57d1f"/><defs><circle id="A" cx="54.2" cy="54.2" r="54.2"/></defs><clipPath id="B"><use xlink:href="#A"/></clipPath><path d="M52.3 110.5L23.2 81.4l7.5-2-3-3.1 7-3.2.6-8.7-.8-11.2L23 41.8l61.3-1.3 2.3-3.4 24.7 24.7 1.4 34.2-43.8 24.8z" opacity=".15" clip-path="url(#B)"/><path d="M68.3 72.4l.3-4.4 1-18v-1.1c0-.7-.4-1.2-1.1-1.3-.8-.2-1.3-.6-1.2-1.3.1-.6.6-1.1 1.4-1.1h9c.8 0 1.3.4 1.4 1 .1.7-.3 1.1-1.2 1.3-.8.1-1.2.7-1.2 1.5l.7 11.5.6 10.2c0 .5.1 1 .1 1.7h1.4c1.4 0 2.4.8 2.4 2.1 0 1.2-1 2.1-2.4 2.1H28.9c-1.2 0-2-.5-2.3-1.4-.4-1.3.5-2.6 2-2.7h1.7l.2-3 .7-12.2.5-7.8c.1-1.1-.3-1.5-1.3-1.7-.7-.1-1.1-.6-1-1.2 0-.6.5-1.1 1.2-1.1h9.5c.6.1 1.1.5 1.1 1.1s-.3 1.1-1 1.2c-1 .2-1.4.6-1.3 1.7l.9 14.7.4 7.8c0 .5.2.7.7.7h8c.5 0 .6-.2.7-.7l1.1-19.7.2-2.9c0-1-.3-1.4-1.3-1.6-.7-.1-1.1-.6-1.1-1.2s.5-1 1.2-1.1h9.4c.7 0 1.2.5 1.2 1.1.1.6-.3 1.1-1.1 1.3-1 .2-1.3.7-1.3 1.6l1 16.7.3 5.8c0 .5.1.8.7.7h7.8c.1-.3.3-.3.6-.3zM54.2 42.5H25c-1.2 0-2.1-.5-2.6-1.6l-.9-1.8c-.5-1.1-.3-1.7.8-2.3l15.4-8 14.9-7.7c1.1-.6 2.2-.6 3.3 0l30 15.6c.1.1.2.1.3.2 1.1.6 1.3 1.3.7 2.4l-.9 1.8c-.5 1.1-1.4 1.6-2.6 1.6H60.9c-2.2-.2-4.5-.2-6.7-.2zm0 35.4h29.3c1.6 0 2.6 1.2 2.3 2.6-.2.9-1.1 1.5-2.3 1.5H25c-1.4 0-2.3-.7-2.4-2s.9-2.2 2.2-2.2H34l20.2.1z" fill="#fff"/></svg>