<svg xmlns="http://www.w3.org/2000/svg" xmlns:xlink="http://www.w3.org/1999/xlink" viewBox="0 0 108.4 108.4"><circle cx="54.2" cy="54.2" r="54.2" fill="#77b3d4"/><defs><circle id="A" cx="54.2" cy="54.2" r="54.2"/></defs><clipPath id="B"><use xlink:href="#A"/></clipPath><path d="M21.5 80.1l28.4 28.1 35.6 8.3L110 86l12.8-14.7-42.2-42.1L68 27.4l-4.2-4.7-28.4 51.8z" opacity=".15" clip-path="url(#B)"/><path d="M88.3 77.9a3.37 3.37 0 0 1-3.4 3.4H24a3.37 3.37 0 1 1 0-6.8h61c1.8 0 3.3 1.5 3.3 3.4z" fill="#e0995e"/><path d="M39.2 33.9h-6.8c-2.8 0-5.1 2.3-5.1 5.1v35.6h17V39c0-2.9-2.3-5.1-5.1-5.1z" fill="#c75c5c"/><path d="M76.5 27.1h-6.8c-2.8 0-5.1 2.3-5.1 5.1v42.4h17V32.2c0-2.8-2.3-5.1-5.1-5.1z" fill="#e0e0d1"/><path d="M27.4 40.6h16.9v5.1H27.4zm0 22.1h16.9v5.1H27.4z" fill="#e0995e"/><path d="M64.6 62.7h16.9v5.1H64.6zm0-28.8h16.9V39H64.6z" fill="#fff"/><path d="M68 67.7V27.4c-2 .7-3.4 2.6-3.4 4.8v42.4H68v-6.9zm-23.7 0V39c0-2.2-1.4-4.1-3.4-4.8v40.4h3.4v-6.9z" opacity=".2" fill="#231f20"/><path d="M59.6 20.3H49.4c-2.8 0-5.1 2.3-5.1 5.1v49.1h20.4V25.4c-.1-2.8-2.3-5.1-5.1-5.1z" fill="#4f5d73"/><path d="M44.3 27.1h20.3v5.1H44.3zm0 35.6h20.3v5.1H44.3z" fill="#76c2af"/></svg>