<svg xmlns="http://www.w3.org/2000/svg" xmlns:xlink="http://www.w3.org/1999/xlink" viewBox="0 0 108.4 108.4"><circle cx="54.3" cy="54.1" r="54.2" fill="#88ba41"/><defs><circle id="A" cx="54.2" cy="54.2" r="54.2"/></defs><clipPath id="B"><use xlink:href="#A"/></clipPath><path d="M26.1 75.5l37.7 39.7 44.4-17.8 10-20.6-3.9-9.5-31.6-30-4.6 2-12.6-12.4 1.9 14-42.2 9.2 6.5 7.6z" opacity=".15" clip-path="url(#B)"/><path d="M73.1 80H35.3c-6.4 0-11.7-5.3-11.7-11.7V52.9h61.2v15.3c0 6.5-5.3 11.8-11.7 11.8zm5.8-28.1H29.5c-3.3 0-5.9-2.7-5.9-5.9v-4.2c0-3.3 2.7-5.9 5.9-5.9h49.4c3.3 0 5.9 2.7 5.9 5.9V46c0 3.3-2.7 5.9-5.9 5.9z" fill="#dc4844"/><g fill="#fff"><path d="M51.6 56.4h5.2v14.7h-5.2z"/><path d="M46.8 61.2h14.7v5.2H46.8z"/></g><path d="M42.8 36.2v-.4c0-5.4 5.1-9.7 11.4-9.7s11.4 4.4 11.4 9.7v.4h4.2v-.4c0-7.3-7-13.3-15.6-13.3s-15.6 6-15.6 13.3v.4h4.2z" fill="#3c444f"/></svg>