<?xml version="1.0" encoding="utf-8"?>
<!-- Generator: Adobe Illustrator 19.1.0, SVG Export Plug-In . SVG Version: 6.00 Build 0)  -->
<svg version="1.1" id="Layer_1" xmlns="http://www.w3.org/2000/svg" xmlns:xlink="http://www.w3.org/1999/xlink" x="0px" y="0px"
	 viewBox="0 0 108.4 108.4" style="enable-background:new 0 0 108.4 108.4;" xml:space="preserve">
<style type="text/css">
	.st0{fill:#EC9D40;}
	.st1{fill:#BA782B;}
	.st2{fill:#FDFDFC;}
</style>
<g id="Musuc_x5F_Arena_2_">
	<g>
		<path class="st0" d="M40.3,78.8l-4.7-41.6l2.6-12.6l19.3-0.9l15.4-0.9v-2.6l35.4,31.4c-0.6-13-5.9-25.8-15.8-35.7
			C71.4-5.3,37-5.3,15.9,15.9C-5.3,37-5.3,71.4,15.9,92.5c9,9,20.3,14.1,31.9,15.5L23.9,87.1L40.3,78.8z"/>
		<path class="st1" d="M92.5,92.5c11.3-11.3,16.5-26.2,15.8-40.9L72.9,20.1v2.6l-15.4,0.9l-19.3,0.9l-2.6,12.6l4.7,41.6l-16.3,8.3
			L47.8,108C63.7,109.9,80.3,104.7,92.5,92.5z"/>
	</g>
	<path class="st2" d="M68.1,19l-30,4.3c-3.9,0.6-6.6,4.3-6,8.3l0.3,2.3l4.9,38.4c-1.6-0.3-3.3-0.4-5.2-0.2
		c-6.5,0.9-11.2,5.7-10.6,10.6c0.6,4.9,6.4,8.1,12.9,7.2C40.9,89,45.7,84.3,45,79.3l-6-46.4l30.6-4.4l3.6,28.1
		c-1.6-0.3-3.4-0.4-5.2-0.2c-6.5,0.9-11.2,5.7-10.6,10.6c0.6,4.9,6.4,8.1,12.9,7.2c6.5-0.9,11.2-5.7,10.6-10.6l-4.7-36.2L76,25.3
		C75.5,21.3,72,18.5,68.1,19z"/>
</g>
</svg>
