<svg xmlns="http://www.w3.org/2000/svg" xmlns:xlink="http://www.w3.org/1999/xlink" viewBox="0 0 108.4 108.4"><circle cx="54.2" cy="54.2" r="54.2" fill="#184f78"/><defs><circle id="A" cx="54.2" cy="54.2" r="54.2"/></defs><clipPath id="B"><use xlink:href="#A"/></clipPath><path d="M108.4 54.2c0-5-.7-9.9-2-14.6L91.9 24.4 50.1 77.8 44.5 84l22.8 23.4c1.1.1 4.4 5.5 5.5 5.5 29.9 0 35.6-28.8 35.6-58.7z" opacity=".15" clip-path="url(#B)"/><path d="M16.5 24.4h75.4v50.2H16.5z" fill="#fff"/><path d="M19.8 27.7h68.9v41.5H19.8z" fill="#fdc63a"/><path d="M70.7 27.7H19.8v41.4h10.1z" fill="#fdaf3a"/><path d="M47.4 74.6H61v4.5H47.4z" fill="#c4c4c4"/><path d="M44.5 79.2H64V84H44.5z" fill="#e3e3e3"/><circle cx="23.3" cy="34.7" r="1.3" fill="#184f78"/><circle cx="27.1" cy="34.7" r="1.3" fill="#e73127"/><circle cx="30.8" cy="34.7" r="1.3" fill="#64b66e"/><circle cx="84.9" cy="66" r="1.3" fill="#184f78"/><circle cx="84.9" cy="62.3" r="1.3" fill="#e73127"/><circle cx="84.9" cy="58.5" r="1.3" fill="#64b66e"/><path d="M31.4 29.5h47.8v2.3H31.4z" fill="#18627d"/><path d="M57.3 62.5H61v4.8h-3.7zm4.5-2h3.7v6.8h-3.7zm4.6-2h3.7v8.8h-3.7zm4.5-2.4h3.7v11.2h-3.7zm4.6-1.7h3.7v12.9h-3.7zm-6.1-.7l-2.1 1 .8.5c-2.6 3.1-6.3 2.8-6.4 2.8s-.2.1-.3.2c0 .1.1.2.2.3h.3c1 0 4.2-.2 6.5-3l.8.5.2-2.3z" fill="#f85b30"/><path d="M57.3 42.5h22v1.9h-22zm0-3.7h22v1.9h-22zm0-3.8h22v1.9h-22zm0 11.3h22v1.9h-22zm0 3.7h22v1.9h-22zm-25.9 7h22v1.9h-22zm0 4.2h22v1.9h-22zm0 4.2h22v1.9h-22zM49.5 38c-1.8-1.8-4.3-3-7.1-3v10.1l8.8 4.3a9.16 9.16 0 0 0 1.1-4.3v-.2c0-2.7-1.1-5.1-2.8-6.9z" fill="#18627d"/><path d="M42.4 45.1L35.5 52c1.8 1.7 4.2 2.8 6.9 2.8 3.8 0 7.2-2.2 8.8-5.4l-8.8-4.3z" fill="#f85b30"/><path d="M33.4 40.7c-.6 1.3-1 2.7-1 4.3v.2c0 2.7 1.2 5.2 3 6.9l6.9-6.9V35c-3.9 0-7.3 2.3-8.9 5.7z" fill="#55d6d2"/></svg>