<svg xmlns="http://www.w3.org/2000/svg" xmlns:xlink="http://www.w3.org/1999/xlink" viewBox="0 0 108.4 108.4"><circle cx="54.2" cy="54.2" r="54.2" fill="#a2dcf1"/><defs><circle id="A" cx="54.2" cy="54.2" r="54.2"/><path id="B" d="M36.2 35.6l-5-2.1-.6-5.4 4.3-3.2 5 2.1.6 5.4-4.3 3.2zm-4.5-2.4l4.4 1.9 3.9-2.9-.6-4.8-4.4-1.9-3.9 2.9.6 4.8z"/><path id="C" d="M23.9 44.9l-5-2.1-.6-5.4 4.3-3.2 5 2.1.6 5.4-4.3 3.2zm-4.5-2.5l4.4 1.9 3.9-2.9-.6-4.8-4.4-1.9-3.9 2.9.6 4.8z"/><path id="D" d="M39.9 85.3l-.1-.2c.1 0 5.4-2.4 10.4-1.9v.2c-5-.5-10.3 1.9-10.3 1.9z"/><path id="E" d="M34.8 68.5c-.1 0-5.3-2.4-10.3-1.9v-.2c5-.5 10.4 1.9 10.4 1.9l-.1.2z"/><path id="F" d="M31.5 79.5c-1.8-.5-4.4-1-7-.8v-.2c2.6-.2 5.3.3 7.1.8l-.1.2z"/><path id="G" d="M41.6 75.4l-2.5-2.2.6-3.3 3.1-1.1 2.5 2.2-.6 3.3-3.1 1.1zm-2.2-2.3l2.3 2 2.9-1 .6-3-2.3-2-2.9 1-.6 3z"/><path id="H" d="M88.9 76.3h-5.2c-1.1 0-1.9.9-1.9 1.9v.8h9v-.8c0-1.1-.9-1.9-1.9-1.9z"/></defs><clipPath id="I"><use xlink:href="#A"/></clipPath><path d="M97.3 104.3l22.2-50-27.9-26.4-1.4-.3-2.1.4-.6.2-6.2-5.8-1.3-.2-.8.5-.7 1.3c0 .1-.6 1.5-.6 1.6s-.3 1-.3 1.2-.2.9-.2 1-.3 1.7-.3 1.7l-.4.1-4-1.6-2.9-.4-1 .6-.3 1.1.3 1.4-6.3-6.2L47 25.7l-.9-.5-2-.7-.5-.3-3 2.3-6-6.5-3-.9-1.8-.9-1.1.5-3.1 2.5.5 5-4.1 3 .5 5.1-3.9 3.2-3-1 3.2 2.9.2 3.3 5.2 5.6L34 58h-3l.5 1.5-2.3.4 5.5 5.6-15.7 25 29.9 30 48.4-16.2z" opacity=".15" clip-path="url(#I)"/><g fill="#000f4a"><use xlink:href="#B"/><path d="M27.3 36.7l-5-2.1-.6-5.4L26 26l5 2.1.6 5.4-4.3 3.2zm-4.4-2.4l4.4 1.9 3.9-2.9-.6-4.8-4.4-1.9-3.9 2.9.6 4.8z"/><use xlink:href="#C"/><use xlink:href="#C" x="21.1" y="-10.3"/><use xlink:href="#B" x="-5.3" y="-7.1"/><path d="M49.187 31.006l2.618 1.66-.268.422-2.618-1.66zm1.415-7.28l.353.354-2.34 2.328-.353-.354zM15.828 36.068l3.02 1.33-.202.458-3.02-1.33zm8.224 8.484l.6 3.854-.494.077-.6-3.854zm-1.345-26.027l3.04 2.442-.313.4-3.04-2.442zM80.2 50c-.8 0-1.9-.7-2.9-4.2-.7-2.6-1.1-6.1-1.1-9.8s.4-7.2 1.1-9.8c.9-3.5 2.1-4.2 2.9-4.2s1.9.7 2.9 4.2c.7 2.6 1.1 6.1 1.1 9.8s-.4 7.2-1.1 9.8c-.9 3.4-2.1 4.2-2.9 4.2zm0-27.6c-.8 0-1.7 1.4-2.4 3.9-.7 2.6-1.1 6-1.1 9.7s.4 7.1 1.1 9.7c.6 2.4 1.5 3.9 2.4 3.9.8 0 1.7-1.4 2.4-3.9.7-2.6 1.1-6 1.1-9.7s-.4-7.1-1.1-9.7c-.6-2.5-1.5-3.9-2.4-3.9z"/><path d="M70.4 44.4c-1 0-1.5-.3-1.8-.7-.4-.7-.5-2 1.9-4.7 1.8-2 4.5-4.3 7.6-6.4s6.2-3.7 8.8-4.6c3.4-1.2 4.7-.6 5.1 0 .4.7.5 2-1.9 4.7-1.8 2-4.5 4.3-7.6 6.4s-6.2 3.7-8.8 4.6c-1.5.6-2.6.7-3.3.7zm19.7-16.5c-.8 0-1.9.2-3.2.7-2.5.9-5.6 2.5-8.7 4.5-3 2-5.7 4.3-7.5 6.3-1.6 1.9-2.3 3.4-1.9 4.1.5.7 2.2.6 4.5-.2 2.5-.9 5.6-2.5 8.7-4.5 3-2 5.7-4.3 7.5-6.3 1.6-1.9 2.3-3.4 1.9-4.1-.1-.3-.6-.5-1.3-.5z"/><path d="M90.1 44.4c-.8 0-1.8-.2-3.3-.7-2.6-.9-5.7-2.5-8.8-4.6s-5.8-4.3-7.6-6.4C68 30 68 28.6 68.5 28c.4-.7 1.7-1.2 5.1 0 2.6.9 5.7 2.5 8.8 4.6s5.8 4.3 7.6 6.4c2.4 2.7 2.4 4.1 1.9 4.7-.2.4-.8.7-1.8.7zm-11.8-5.6c3 2 6.1 3.6 8.7 4.5 2.4.8 4.1.9 4.5.2.5-.7-.2-2.2-1.9-4.1-1.8-2-4.4-4.2-7.5-6.3-3-2-6.1-3.6-8.7-4.5-2.4-.8-4.1-.9-4.5-.2-.5.7.2 2.2 1.9 4.1 1.8 2 4.5 4.3 7.5 6.3z"/></g><g fill="#fff"><circle cx="80.2" cy="35.9" r="1.8"/><path d="M63.2 27l-1.7 2.3-2.4-1.8-7.4-5.7 1.7-2.3c.5-.7 1.5-.8 2.2-.3l6 4.7 1.3 1c.7.4.9 1.4.3 2.1zM47.1 47.8l-3 1.6c-.8.4-1.8.3-2.6-.2L40.1 48l-2.6-2c-.7-.6-1.1-1.5-.9-2.4l.7-3.3 7.5 5.8 2.3 1.7z"/></g><g fill="#000f4a"><path d="M54.3 41.4c5.2 1.7 9.3 6.7 9.3 12.4 0 7.1-5.8 12.9-12.9 12.9-5.1 0-9.5-2.9-11.6-7.2h-5.4c2.4 7.1 9.1 12.1 17 12.1 9.9 0 17.9-8 17.9-17.9 0-7.6-4.8-14.1-11.5-16.7l-2.8 4.4z"/><path d="M50.4 71.7h.5V80h-.5zM29.2 59.4h16.3v.5H29.2z"/></g><path d="M61.5 32.1L49.8 47.2c-.7 1-2.1 1.1-3.1.4l-2-1.5-7.1-5.5c-1-.7-1.1-2.1-.4-3.1L49 22.3c.7-1 2.1-1.1 3.1-.4l7.1 5.5 2 1.6c.9.7 1.1 2.1.3 3.1z" fill="#fbaa2d"/><path d="M43.9 33.5c-.1 0-.1 0-.2-.1s-.1-.2 0-.3l6.6-8.2c.1-.1.2-.1.3 0s.1.2 0 .3L44 33.4c0 .1 0 .1-.1.1z" fill="#fff"/><path d="M47.1 47.8l-3 1.6c-.8.4-1.8.3-2.6-.2L40.1 48l4.7-2 2.3 1.8z" fill="#d1d3d4"/><path d="M61.5 32.1L49.8 47.2c-.7 1-2.1 1.1-3.1.4l-2-1.5L59 27.5l2 1.6c1.1.6 1.3 2 .5 3z" fill="#ef8e01"/><path d="M63.2 27l-1.7 2.3-2.4-1.8 2.6-3.6 1.3 1c.6.4.8 1.4.2 2.1z" fill="#d1d3d4"/><path d="M65.8 81.5H34.9c-1.3 0-2.4-1.1-2.4-2.4v-1c0-1.3 1.1-2.4 2.4-2.4h30.9c1.3 0 2.4 1.1 2.4 2.4v1c0 1.4-1.1 2.4-2.4 2.4z" fill="#000f4a"/><path d="M67 81.5H33.7c-.7 0-1.2-.5-1.2-1.2s.5-1.2 1.2-1.2H67c.7 0 1.2.5 1.2 1.2s-.5 1.2-1.2 1.2z" fill="#010923"/><g fill="#fff"><path d="M57.3 53.3z"/><path d="M88.3 50.5h-.7l-.6-.6c-.6-.4-1.5-.5-2.2-.4-.4-.4-.9-.6-1.6-.6-.4 0-.8.1-1.2.1h-.9c-.1-.8-.3-1.5-.7-2.2-.4-.6-.9-1.2-1.6-1.6s-1.4-.6-2.2-.6c-.6-.1-1.2 0-1.8.2-.4.1-.7.2-1 .4-.3-.2-.6-.5-.9-.6-.6-.3-1.3-.5-2-.5-.6 0-1.2.2-1.8.4-.5.2-.9.5-1.3.8-.2.1-.3.3-.4.4-.1 0-.2-.1-.3-.1-1-.2-2.1 0-3 .7-.2.1-.3.2-.5.3-.8.7-1.6 1.6-1.8 2.6-.2 0-.4 0-.6.1-.6.2-1 .6-1.4 1.1l-.3.3c-.1.1-.2.1-.2.2l-.5.5h-.5c-.2 0-.5-.1-.7-.1-.7-.1-1.3.3-1.7.9-.3.5-.4 1-.2 1.6.3 1 1.3 1.7 2.3 2 .8.2 1.7.2 2.4-.1.4.6 1 .9 1.7 1.1 1.1.2 2.4 0 3.4-.6.4-.2.6-.5.8-.8h.5c.4 1.2 1.4 2.1 2.7 2.4.9.2 1.7.1 2.6-.1a12.2 12.2 0 0 0 1.7-.7.76.76 0 0 0 .4.2c.5.3 1.1.5 1.7.6.4.1.8.1 1.2.1s.8-.1 1.2-.1c.2 0 .3-.1.5-.1h.1a4.67 4.67 0 0 0 1-.5c.8-.5 1.3-1.2 1.6-2 0-.1 0-.2.1-.2.2 0 .4-.1.6-.3-.1.1.1-.1.2-.1 0 0 .1 0 .1-.1.1 0 .2-.1.3-.1h1.4c1 .1 1.9.1 2.8-.4.6-.4 1.1-.9 1.3-1.7h.2c.5 0 1-.4.9-.9-.2-.5-.6-.9-1.1-.9z"/><path d="M69.8 56.8l.7 6.3h1.3l.7-7.8z"/></g><g fill="#61f8ff"><path d="M79.6 87H63.5c-2.7 0-4.2-2.9-2.6-4.9l4.9-5 5.8-5.5 5.8 5.5 4.9 5c1.5 2 0 4.9-2.7 4.9z"/><path d="M68.7 63.7h5.6v14h-5.6z"/><path d="M73.9 65.3h-4.7c-.9 0-1.7-.7-1.7-1.7 0-.9.7-1.7 1.7-1.7h4.7c.9 0 1.7.7 1.7 1.7-.1 1-.8 1.7-1.7 1.7z"/></g><path d="M79.6 87H63.5c-2.4 0-3.9-2.2-3.1-4.1.1-.3.3-.5.5-.8l4.9-5h11.5l4.9 5c.2.2.3.5.5.8.7 1.8-.8 4.1-3.1 4.1z" fill="#e266a1"/><g fill="#ee7eb0"><path d="M82.7 82.8c-.4 1.1-1.6 2-3.1 2H63.5c-1.5 0-2.6-.9-3.1-2 .1-.3.3-.5.5-.8l4.9-5h11.5l4.9 5 .5.8z"/><circle cx="70.5" cy="73.8" r=".7"/></g><circle cx="72.5" cy="79.2" r=".7" fill="#61f8ff"/><g fill="#ee7eb0"><circle cx="72.5" cy="70.9" r=".7"/><circle cx="70.5" cy="67.5" r=".7"/></g><g fill="#61f8ff"><circle cx="67.6" cy="79.5" r="1.2"/><circle cx="77.2" cy="81.7" r=".9"/><circle cx="72.5" cy="83.7" r=".9"/></g><path d="M71.8 55.3l2.1-1.4s1.7 1.9 3.2 1.1c1.5-.9 1.1-3.1 1.1-3.1s1.6-.1 1.4-1.3.6.7.4.9c-.2.3-.9.9-.9.9s.4 2.6-1.7 3.3-3.4-1.1-3.4-1.1l-2.2.7z" fill="#d1d3d4"/><path d="M77.3 79.1c-.1 0-.1 0-.2-.1l-4.3-4.4c-.1-.1-.1-.3 0-.3.1-.1.3-.1.3 0l4.3 4.4c.1.1.1.3 0 .3 0 .1-.1.1-.1.1z" fill="#fff"/><g fill="#61f8ff"><path d="M98.4 51.6c.2 1.2-.5 2.3-1.7 2.5l-18.2 3.4-.8-4.2 18.2-3.4c1.2-.3 2.3.5 2.5 1.7z"/><path d="M79.6 53.1l.7 3.8c.1.7-.3 1.5-1.1 1.6-.7.1-1.5-.3-1.6-1.1l-.7-3.8c-.1-.7.3-1.5 1.1-1.6.7-.1 1.4.4 1.6 1.1z"/></g><path d="M96.7 54l-14.9 2.8 8.8-6 5.3-1c.3-.1.6 0 .9 0 .8.2 1.4.8 1.6 1.7.2 1.2-.6 2.3-1.7 2.5z" fill="#ffbe1a"/><path d="M86.6 52.9c-.1 0-.2-.1-.2-.2s.1-.3.2-.3l8-1.4c.1 0 .3.1.3.2s-.1.3-.2.3l-8.1 1.4z" fill="#fff"/><path d="M96.7 54l-4.8.9c6.2-1.7 4.9-5.1 4.9-5.1.8.2 1.4.8 1.6 1.7.2 1.2-.6 2.3-1.7 2.5z" fill="#ef8e01"/><path d="M63.9 49.9s.9-2.2 2.5-2l1.5.2s.2-1.6 1.4-1.7 1.6 0 1.6 0-2.7.1-2.2 2.8c-1.9-.7-3.3-.9-4.8.7z" fill="#d1d3d4"/><path d="M30.9 58.2h11.9v1.1H30.9zm-3.4-15.6l-1.8 1.8 7.4 7.4c.2.2.4.3.6.3h.2c.2 0 .5.1.6.3a.61.61 0 0 0 .8 0 .61.61 0 0 0 0-.8c-.2-.2-.3-.4-.3-.6v-.2c0-.2-.1-.5-.3-.6l-7.2-7.6z" fill="#61f8ff"/><path d="M30.7 45.9L29 47.6c-.1.1-.4.1-.5 0s-.1-.4 0-.5l1.7-1.7c.1-.1.4-.1.5 0s.1.3 0 .5z" fill="#010923"/><path d="M30.2 45.3l-1.8 1.8-3.3-3.3c-.5-.5-.5-1.3 0-1.8s1.3-.5 1.8 0l3.3 3.3z" fill="#000f4a"/><path d="M32.6 48.8c-.1 0-.1 0 0 0l-1.9-1.9v-.2h.2l1.8 1.8c0 .1 0 .2-.1.3z" fill="#fff"/><path d="M35.3 53.6s-1.9 2.9 0 2.9c1.9-.1 0-2.9 0-2.9z" fill="#fbaa2d"/><g fill="#e266a1"><path d="M54.4 90.9H37.3v-23h16.3a2.26 2.26 0 0 1 2.3 2.3v19.2a1.54 1.54 0 0 1-1.5 1.5z"/><path d="M37.3,90.9H20.2c-0.8,0-1.5-0.7-1.5-1.5V70.2c0-1.3,1-2.3,2.3-2.3h16.3V90.9z"/></g><g fill="#ee7eb0"><path d="M37.3 89.9H19.5a.68.68 0 0 1-.7-.7V68.1a1.11 1.11 0 0 1 1.1-1.1h17.4v22.9z"/><path d="M55.1 89.9H37.3V67h17.4a1.11 1.11 0 0 1 1.1 1.1v21.1c.1.4-.3.7-.7.7z"/></g><path d="M37.3 89.9S27.2 87 20.4 88.3V65.1s12-.7 16.7 3.3l.2 21.5zm0 0s10.1-2.9 16.9-1.6V65.1s-12-.7-16.7 3.3l-.2 21.5z" fill="#d1d3d4"/><g fill="#fff"><path d="M37.3 67s-1.9-3.7-15.5-3.7v23s9.3-.3 15.5 3.6V67z"/><path d="M37.3 67s1.9-3.7 15.5-3.7v23s-9.3-.3-15.5 3.6V67z"/></g><g fill="#2c3f5d"><use xlink:href="#D"/><use xlink:href="#D" y="1"/><use xlink:href="#E"/><use xlink:href="#E" y="1"/><use xlink:href="#E" y="2.1"/><path d="M34.8 73.1c-.1 0-5.3-2.4-10.3-1.9V71c5-.5 10.4 1.9 10.4 1.9l-.1.2zm0 1c-.1 0-5.3-2.4-10.3-1.9V72c5-.5 10.4 1.9 10.4 1.9l-.1.2zm0 1c-.1 0-5.3-2.4-10.3-1.9V73c5-.5 10.4 1.9 10.4 1.9l-.1.2zm-3.2 3.5c-1.8-.5-4.5-1.1-7.1-.8v-.2c2.7-.2 5.4.3 7.2.8l-.1.2zm-1.7-2.1c-2-.4-3.8-.6-5.5-.4v-.2c1.7-.2 3.5 0 5.5.4v.2z"/><use xlink:href="#F"/><use xlink:href="#F" y="1.1"/><path d="M30.1 82.7c-2-.4-3.9-.6-5.6-.4v-.2c1.7-.2 3.6 0 5.7.4l-.1.2zm1.6 1.5c-1.8-.5-4.6-1.1-7.3-.8v-.2c2.7-.3 5.5.3 7.3.9v.1zm0 1c-1.8-.5-4.6-1.1-7.2-.8v-.2c2.7-.3 5.5.3 7.3.9l-.1.1z"/></g><path d="M38.1 91.5h-1.7c-.7 0-1.3-.6-1.3-1.3v-.1h4.2v.1c.1.8-.5 1.3-1.2 1.3z" fill="#e266a1"/><g fill="#2c3f5d"><use xlink:href="#G"/><path d="M47.1 76.4l-2.5-2.2.6-3.3 3.1-1.1 2.5 2.2-.6 3.3-3.1 1.1zm-2.3-2.3l2.3 2 2.9-1 .6-3-2.3-2-2.9 1-.6 3z"/><use xlink:href="#G" x="1.8" y="5.2"/></g><g fill="#e44f49"><circle cx="44.7" cy="74.2" r=".4"/><circle cx="50.7" cy="72.1" r=".4"/><circle cx="47" cy="76.3" r=".4"/><circle cx="41" cy="78.3" r=".4"/><circle cx="45.2" cy="71.1" r=".4"/><circle cx="50.1" cy="75.2" r=".4"/><circle cx="48.3" cy="70" r=".4"/><circle cx="39.2" cy="73.1" r=".4"/><circle cx="41.6" cy="75.2" r=".4"/><circle cx="46.4" cy="79.3" r=".4"/><circle cx="43.4" cy="80.3" r=".4"/><circle cx="42.9" cy="68.9" r=".4"/><circle cx="39.8" cy="70" r=".4"/></g><g fill="#2c3f5d"><path d="M32.6 84.6h-.2v-.7c0-.6.4-1.2 1.1-1.6.6-.4 1-.9 1-1.4v-1c0-.5-.3-1-.9-1.3l-.2-.1c-.6-.4-1-1-1-1.6v-.4h.2v.4c0 .5.3 1 .9 1.3l.2.1c.6.4 1 1 1 1.6v1c0 .6-.4 1.2-1.1 1.6-.6.4-1 .9-1 1.4v.7z"/><path d="M34.7 84.6h-.2v-.7c0-.5-.4-1-1-1.4-.7-.4-1.1-1-1.1-1.6v-1c0-.6.4-1.2 1-1.6l.2-.1c.6-.4.9-.8.9-1.3v-.4h.2v.4c0 .6-.4 1.2-1 1.6l-.2.1c-.6.4-.9.8-.9 1.3v1c0 .5.4 1 1 1.4.7.4 1.1 1 1.1 1.6v.7z"/><path d="M32.5 79.3h2v.2h-2zm0-2.5h2v.2h-2zm0 6.6h2v.2h-2zm0-3.2h2v.2h-2zm0 .9h2v.2h-2z"/></g><path d="M86.3 74.3s-2.5.5-2.3-2 2.5-3.6 2.5-5.9c1.3 2.1 1.6 3.2 1.5 3.9l.9-.4s1.9 5-2.6 4.4z" fill="#ffbe1a"/><path d="M86.3 74.3s-1.2-1.1-.3-3.2l.8-2.1s2.3 5-.5 5.3z" fill="#ef8e01"/><path d="M86 72.5h.5v3H86z" fill="#000f4a"/><use xlink:href="#H" fill="#010923"/><use xlink:href="#H" y="-0.7" fill="#000f4a"/></svg>