<svg xmlns="http://www.w3.org/2000/svg" viewBox="0 0 108.6 108.6"><path d="M0 57.3V51c.2-1.2.1-2.3.2-3.5.1-2 .5-3.8 1-5.7 2-8.9 6.1-16.8 12.1-23.6C20.9 9.7 30.2 4 41.2 1.3 44.3.5 47.3.1 50.5.1c.2 0 .3.1.5-.1h6.3c1.1.2 2.3.1 3.4.2 3 .2 5.8.8 8.7 1.7 7.1 2 13.5 5.4 19.2 10.1 5.7 4.6 10.2 10.2 13.7 16.6 2.7 5.1 4.6 10.5 5.6 16.3.3 1.9.5 3.8.5 5.8 0 1.7.1 3.4.1 5.1 0 3.3-.2 6.6-1 9.8-.1.3-.1.7-.4.9-.2.1-.3-.1-.4-.2L92.1 51.8l-8.4-8.3-15.9-15.8-10.5-6.8c-.5-.2-.9-.5-1.3-.8-1.7-1.2-3.5-2.3-5.3-3.5-1.1-.7-1.5-.6-2.2.4-.7.9-1.3 1.8-2 2.7-.4.5-.6 1-.2 1.5 0 .3-.2.6-.4.8-.8 1-.7 1.5.5 2.1.8.6 1.7 1.1 2.5 1.6.5.3.8.8.7 1.4v1.4c0 .6.1 1 .6 1.3.3.6.2 1.2.1 1.7-.1.4-.3.6-.7.8h-.3c-2.2-2.1-4.4-4.2-6.4-6.5-.2-.2-.4-.3-.6-.3h-.1c-1.3-.1-1.4 0-1.4 1.3v12.6c0 .4 0 .8.1 1.1.2.6.8.8 1.1 1.3.2.3.6.5.5.9-.2.4-.7.2-1 .1l-12.3-2.1c-2.6-.5-5.2-.9-7.8-1.3-.6-.1-1.1.1-1.7.2-.7.3-1.4.3-2.2.5-1.2.3-1.5.6-1.4 1.8v33.9c-.1.6 0 1.2 0 1.9 0 .5.4.7.6 1s.5.6.8.8l7.7 7.7 19.7 19.9c.2.2.6.3.4.7-.3.2-.6.1-.8 0-4.7-.9-9.2-2.3-13.5-4.3-4.6-2.1-8.7-4.9-12.5-8.1-4.8-4.2-8.8-9.1-11.9-14.7S1.4 69.1.4 62.7c-.2-1.4-.3-2.8-.3-4.1 0-.4.1-.9-.1-1.3z" fill="#a1dbf0"/><path d="M107 66.4c.6-2.2.9-4.4 1.1-6.6l.3-6.5c-.2-7.8-1.8-15.2-5.1-22.2-2.3-4.9-5.2-9.3-8.9-13.3-7.6-8.4-17-13.9-28-16.5C63.6.6 60.7.2 57.8.1c-.2 0-.3 0-.5-.1H108c.5 0 .6.1.6.6v107.5c0 .4-.1.6-.6.6H.5c-.5 0-.6-.1-.6-.6V57.4c.3.8.2 1.7.3 2.6 1 9.6 4.3 18.3 10 26.1 2 2.8 4.2 5.3 6.7 7.7 3.6 3.4 7.6 6.3 12.1 8.6 5.2 2.7 10.6 4.5 16.3 5.5.3-.3.7-.1 1.1-.1 2.9.4 5.8.6 8.7.5 4.9-.1 9.6-.8 14.3-2.2 5.1-1.5 9.8-3.7 14.2-6.5 2.5-1.6 4.8-3.4 7-5.4 3.2-2.8 5.9-6.1 8.3-9.6s4.3-7.2 5.8-11.2c.7-2 1.3-4 1.9-6 .1-.5.1-.8.4-1zM51 0c-.8.3-1.6.2-2.3.3-5.7.6-11.1 2-16.3 4.3C27.5 6.7 23 9.5 19 13 9.7 21.1 3.7 31.1 1.1 43.1.6 45.5.2 48 .1 50.5c0 .2 0 .3-.1.5V.6C0 .1.1 0 .6 0H51z" fill="#fefefe"/><path d="M107 66.4c-.8 3.9-2.2 7.6-3.9 11.2-2.8 5.8-6.5 11-11.2 15.5-7.7 7.5-16.9 12.3-27.5 14.3-4.1.8-8.2 1.1-12.4 1-2.3-.1-4.5-.3-6.8-.7-.3-.2-.5-.5-.8-.7L26.2 88.8l-9.3-9.4c-.1-.1-.2-.3-.4-.4.2-.3.6-.3.9-.2.4.1.8.1 1.1.2 1.9.6 3.8.2 5.7-.2l1.9-.3c.3 0 .6-.1.8.2 0 .5-.4.6-.7.8-.7.3-1.5.6-2.1 1.1-1 .7-1 1.5 0 2.2 1.5 1 3.3 1.5 5.1 1.8 2.8.6 5.6.9 8.4 1 2.8.2 5.6.1 8.3.1 2.3 0 4.5-.3 6.8-.6 2.1-.2 4.2-.3 6.3.2 4.4 1.1 8.8 1.4 13.3 1.2 2.4-.1 4.7-.4 7.1-.9.4-.1.8-.1 1.1-.1s.5.1.7.2c1 .7 2.2 1.1 3.4 1.1 2.8-.1 4.5-1.7 5.8-4 1.4-2.5 1.9-5.2 2.2-7.9l.3-3.8c.1-.8 0-.9-.9-.9-2-.1-3.9-.5-5.8-1.4-.6-.3-1-.7-1.6-1-.4.2-.7.6-1.2.5l-6.3-2.5c-.3-.1-.6-.3-1-.2-.7 0-1.4-.4-2-.7-.6-.5-1.4-.8-2.1-1.3-.1-.1-.1-.3-.1-.4.1-.4.4-.7.6-.9.7-.6 1.2-1.4 1.6-2.1.5-1 .9-2.1 1.3-3.2.8-.9 1.6-1.9 1.9-3.2.1-.3.3-.7.1-1-.2-.4-.6-.1-.9-.2-.1 0-.1-.1-.2-.1a1.1 1.1 0 0 1 0-.8c.7-.4 1-.9.7-1.7.1-.2 0-.4.1-.6 0-.1.1-.1.2-.1.9-.3 1.8-.7 2.6-1.3.4-.2.7-.6.9-1l.3-.6c.3-.5.2-1.1.3-1.7 0-.4-.3-.6-.6-.9-1-1.1-2.1-2-3.2-3-1.4-1.3-3-1.7-4.8-2-3.8-.6-7.5-.3-11.2.8-1 .3-1.8.8-2.6 1.4s-1.6 1.4-2.1 2.4c-.4.5-.8 1.1-1.2 1.6-.2.2-.4.4-.7.5-.4.1-.7 0-1.1 0l-23-3.9c-3.3-.5-6.6-1.1-9.9-1.7-.4-.1-.7 0-1.1.1-.6.2-.7.2-.8-.5 1.2-.5 2.4-.1 3.7.1L38 42.1c1.3.2 2.6.4 3.9.7.1-.1.1-.2.2-.3-.6-.6-1.3-1.1-1.9-1.7.2-.3.5-.3.8-.3.9-.1.9-.1.9-1v-2.6c0-.3 0-.6.2-.9.4-.3.6-.6.6-1.1 0-.4 0-.8.3-1.1.3-.2.6-.2 1-.2h3.8c.4 0 .7 0 1-.2.4-.2.6.1.8.4.4.4.9.6 1.5.4.8-.3 1-1 .6-1.7-.2-.3-.4-.5-.5-.9-.1-.5-.1-1.1 0-1.6.3-.3.7-.6.7-1.2.1-.5.5-.3.8-.2.7.4 1.4.9 2.1 1.3 1 .7 2 1.4 3.1 2 .8.5 1.1.5 1.7-.2.5-.6.9-.9 1.7-.4.3.2.5-.1.6-.3.6-.8 1.2-1.6 1.9-2.3.5-.3 1-.3 1.6-.4.8-.1 1.4-.5 2.2-.8.2.2.4.3.6.5l9.7 9.7c4.5 4.3 8.7 8.8 13.2 13.1l10.7 10.6 4.3 4.2c.7.2.9.4.9.8z" fill="#89bacc"/><path d="M15.9 76V53.8c.8-.9 1.9-1.4 2.9-2 .6-.3.9-.1.9.6v13.1c0 1.1.1 2.2.2 3.2.2 1 .7 1.3 1.6.6.1-.1.2-.1.3-.1.4.3.3.8.3 1.3 0 .9.1.9.9.9.3 0 .6-.1.8.1.2.4.6.4 1 .5 2.2.4 4.5.5 6.7.6 2.9.1 5.7-.1 8.5-.4.7-.1 1.2.2 1.6.7.7.2.9.1 1.4-.7.1-.1.1-.2.2-.2.3-.2.7-.4 1.1-.5a65.88 65.88 0 0 0 8.6-2.7c.2-.1.5-.2.6-.4.2-.1.3-.2.5-.1.3.5 0 .8-.3 1.1-.3.2-.6.6-.7.9s-.3.6-.7.7c-2.4.9-4.9 1.6-7.4 2.2-5.1 1.2-10.2 1.4-15.4 1.3-2.8-.1-5.6-.5-8.3-1.1-1.4-.3-1.4-.2-1.6 1.1-.1.5-.1 1.1-.1 1.6 0 .4-.1.7-.5.8-.9.1-1.7-.1-2.6-.4-.2.3-.4-.1-.5-.5z" fill="#2c3d4c"/><path d="M19.6 39.4c.4-.1.3.2.2.6 1.1-1 2.1-.4 3.1-.2l17 2.8 15 2.5h.7c0 .7-.2 1-.9 1.4-1.4-.1-2.7-.4-4.1-.6l-5.1-.8s-3.4-.5-5.1-.8l-6.1-.9L24 41.8c-.3 0-.6-.1-.9-.1-.4-.1-1-.5-1.2.3-.2.5-.1 1.1-.1 1.6v2.9c0 .7-.4 1-1.1.8-1.1-.3-1.3-.7-1.3-1.8v-3.4c0-.3 0-.7-.2-1-.1-.2-.3-.3-.5-.2-.9.2-1.8.1-2.5.8-.1.1-.2.1-.3.1-.1-1.3.2-1.7 1.5-1.9.7-.2 1.4-.3 2.2-.5z" fill="#567a96"/><path d="M68 27.5c-.6 1.1-1.7.8-2.7 1.1-.3.1-.7.1-1 .2-.4.3-.8.4-1.3.5s-1.1.1-1.6.3c-1.4.4-2.6.1-3.8-.8-1-.8-2.2-1.4-3.2-2.1-.3-.2-.6-.4-.7-.7s.1-.5.3-.7l3.1-4.1c.1-.2.3-.3.5-.4l6.5 4.2 3.9 2.5z" fill="#145a6e"/><path d="M57.5 20.7c-.4.9-1.1 1.6-1.6 2.3l-2.1 2.8c-.3.2-.5 0-.7-.1l-6.7-4.3c-.1 0-.1-.1-.1-.2-.9-.6-.3-1.1.1-1.7l2.3-3c.6-.8 1.1-.9 2-.4l6.6 4.4c-.1.1.1.1.2.2z" fill="#145064"/><path d="M46.2 21.2c.4 0 .6.2.9.4l6.6 4.2c.8.8 1.8 1.3 2.7 1.9l2.4 1.6c.4.3.9.3 1.4.2l4.1-.7-2 2.7c-.3.4-.5.2-.8 0-.5-.4-.8-.4-1.2.2-.7 1-1.2 1.1-2.2.4l-4.9-3.2c-.2-.1-.4-.3-.6-.3-.1.5.3 1.3-.8 1.2-.6.4-1.1.4-1.7 0-.6 0-.8-.2-.8-.8.1-.6 0-1.3 0-1.9a1 1 0 0 0-.6-1l-2.6-1.7c-.5-.7-.7-1.5-.4-2.4.1-.4.4-.6.5-.8z" fill="#0a4659"/><path d="M15.9 76c.9.9 2.1.8 3.2 1 .4.2.5-.1.5-.4v-.8c.1-.9.4-1.1 1.2-1l3.2.6c3.5.6 7.1.9 10.7.6 2.6-.2 5.3-.5 7.9-1 3-.6 6-1.2 8.9-2.1.3-.1.7-.2 1 .1.2.4.1.8 0 1.1-.2.3-.6.4-.9.5l-12.4 2.1H39c-.3 0-.6.2-.9.1-.4.1-.7.2-1.1.2-.2 0-.4.1-.7.1-1.6.4-3.3.6-4.9.9-1 .2-2.1.3-3.1.5-.3.1-.7.1-1-.1-1.4.2-2.7.3-4.1.7-1.6.4-3.1.2-4.7-.1-.5-.1-1.1-.3-1.6-.2-.9-.4-1-1.2-.9-2.1-.2-.1-.1-.4-.1-.7z" fill="#212f39"/><path d="M15.9 41.8c.6-.8 2.7-1.3 3.6-1 .2 1.3 0 2.6.1 3.9 0 1.9.3 3.7.4 5.6v15.2c0 .4.2.6.5.8.5.2.7.1.9-.4.1-.2.1-.7.6-.4.3 1.2.2 2.4.1 3.6 0 .1-.1.3-.2.3-.3.3-.3.9-1 .8s-1.1-.5-1.2-1.2l-.2-2.4V52.7c0-.2.1-.6-.1-.7-.3-.2-.5.2-.7.3a14.29 14.29 0 0 0-2 1.4c-.2.1-.4.3-.7.3-.1-4.2-.1-8.2-.1-12.2z" fill="#374d60"/><path d="M42.6 36v4.1c0 .5-.2.7-.7.6h-1.4c-.2-.2-.1-.4-.1-.7V25.8c0-.5.1-.8.7-.7.5.1 1-.1 1.5.1.2.4.3.8.3 1.2v1.5c0 .7 0 1.4.5 2.1-.4.3-.4.6-.4 1.1v3.8c-.1.5-.1.9-.4 1.1z" fill="#0f4b5f"/><path d="M43.3 30.1c-.7-.1-.7-.5-.7-1.1v-3.6l5.7 5.8c.3.3.8.6.9 1.1-.2.2-.4.3-.7.3h-4.6c-.2 0-.5-.1-.7-.2-.3-.8-.3-1.5.1-2.3z" fill="#89bacc"/><path d="M43.4 32.3h6.2a1.06 1.06 0 0 1-.1 1.2c0 .5-.4.4-.7.4h-5.3c-.6-.6-.6-1-.1-1.6z" fill="#fdfdfd"/><path d="M49.4 33.4c-.1-.4 0-.8.1-1.2l.6-.6c.6-.6 1.1-.6 1.7 0 .3.3.7.6.7 1.1.1.7-.3 1.3-.9 1.6-.7.3-1.6.1-2-.5 0-.1-.1-.2-.2-.4z" fill="#0a465a"/><path d="M51.9 31.7a2.48 2.48 0 0 0-1.7 0v-1.9c.6-.1 1.2-.1 1.7 0-.1.6-.1 1.3 0 1.9z" fill="#fafcfd"/><path d="M45.8 21.9c.2.8.4 1.6.4 2.4-1.4-.8-1.4-1.3-.4-2.4z" fill="#145064"/><path d="M27.1 78.6l5.5-1 3.5-.6c.2.2.3.5.1.8-.2.4-.7.4-1 .4-1.4.3-2.9.6-4.3 1.2-.8.3-1.7.6-2 1.6-.1 1.7-.1 2 1.6 2.5 1.2.3 2.5.3 3.7.7.9.5 1.9.3 2.8.4a47.08 47.08 0 0 0 5.3.3l5.1-.2c2.1-.1 4.2-.5 6.3-.7 1.6-.1 3.1-.1 4.7 0 1.2.1 2.4.4 3.6.6l4.5.7c.4 0 .8.3 1.3.1.5-.1.9.1 1.3.2.8.3 1.5.2 2.3-.1.3-.1.6-.3.9-.2 2.2-.1 4.3-.4 6.4-.9.3-.1.6-.2.9-.2.6.3 1.2.7 1.3 1.4-1.6.4-3.3.7-4.9.9-2.4.3-4.9.4-7.3.3-3.1-.1-6.2-.5-9.2-1.2-2.5-.6-4.9-.5-7.4-.2l-3.2.3-9.9.1c-4-.2-7.9-.5-11.7-1.7-1.1-.3-2.2-.7-3.1-1.4-1-.7-1-1.7-.1-2.5.8-.6 1.7-1 2.6-1.3 0 0 .3 0 .4-.3z" fill="#81afc0"/><path d="M74.6 60.3c-.5 1.2-1.4 2-2.3 2.9-.6.9-1.5 1.1-2.6 1.1-1.7-.3-3-1.4-4.2-2.6a13.09 13.09 0 0 1-2.4-3.7c-.1-.3-.2-.6 0-.8s.4 0 .6.1c1.2.7 3.1-.2 3.5-1.8l.7-1.8c.4-.5.9-.4 1.4-.2.1 0 .1.1.2.2-.1 1 .4 1.8.9 2.7.7 1.2 2 1.5 3.3 1 .2-.1.4-.3.6 0 .3.8.1 1.6.2 2.4 0 .1-.1.3.1.5z" fill="#fec2c2"/><path d="M57.1 43.2c.5-.9 1.1-1.8 2-2.3 2.2-1 4.6-1.4 7-1.7 3.2-.5 6.3.3 9.4 1.2.9.3 1.6.7 2.3 1.3 1 .9 2.1 1.7 3.3 2.4.3.2.5.3.7.6 0 .7.2 1.3-.4 1.9-.3.1-.5-.1-.5-.3-.2-.6-.7-.9-1.2-1.2-3.3-1.9-6.9-2.9-10.7-3.1-3.3-.2-6.5.1-9.6.7-.5.1-1 .3-1.5.5-.2 0-.4.2-.8 0z" fill="#486582"/><path d="M57.1 43.2c2.5-1.2 5.1-1.4 7.8-1.6 1.7-.1 3.3-.1 5 .1 2.8.3 5.5.9 8 2.1l1.9.9c.7.4 1.4.7 1.5 1.6 0 .1.2.2.2.2l-.3.6c-.5-.2-.8-.6-1.3-.9-2.7-1.7-5.7-2.6-8.9-3.1-.7-.1-1.4 0-2-.5-.2-.1-.4-.3-.6-.2-.3.1-.4.3-.6.5s-.5.4-.9.4c-1.9 0-3.7.5-5.5 1.1-1.7.5-3.3 1.3-4.7 2.5-.5.4-.9.9-1.5 1.1-.5 0-.5-.5-.8-.8-.1-.2-.5-.3-.5-.6.1-.2.4-.1.6-.3.4-.3.6-.8.9-1.2.7-.6 1.2-1.2 1.7-1.9z" fill="#405b75"/><path d="M84.7 67.6c.1-.2.2-.1.3 0 1.3 1.4 3.1 1.8 4.8 2.2 1 .2 1.9.3 2.9.3.4 0 .6.1.6.5-.1 4.3-.4 8.5-2.4 12.4-1 2-2.5 3.5-4.7 4.1-.4.1-.9.2-1.3.1-.2-.4-.6-.7-.6-1.2.1-.1.3-.2.5-.2 2.7-.1 4.1-1.9 5.1-4 1-2 1.4-4.2 1.7-6.4.1-1 .1-2.1.3-3.1.1-.5-.1-.7-.6-.8-1.6-.2-3.1-.5-4.6-1.1-.5-.2-1-.4-1.5-.8-.2-.2-.4-.3-.5-.5-.3-.6-.1-1.1 0-1.5z" fill="#145a6e"/><path d="M84.3 86c.7.1.6.7.6 1.1-1.5.1-2.8-.6-4-1.5l-1.2-1.3c-.6-.3-.8-.8-1.1-1.4-.1-.3-.2-.5-.4-.8-.3-.5-.4-1-.6-1.5-.4-1.2-.7-2.4-.8-3.6 0-.2-.1-.4-.2-.6-.2-1.5-.4-2.9-.3-4.4 0-.2-.1-.5-.1-.7V71c-.1-1 .2-1.4 1.2-1.4.9 0 1.7-.2 2.6-.2.5-.2 1-.2 1.4-.4.8-.2 1.5-.7 2.4-.8.4-.1.7-.4 1-.7.2.5.1.9.1 1.4-.1.4-.4.6-.8.8-1.1.6-2.2 1-3.4 1.3-.8.1-1.6.4-2.4.4-.4 0-.5.2-.5.6.1.6 0 1.2.1 1.8 0 .8.2 1.7.3 2.5l.7 3.1c.2.6.4 1.3.7 1.9.3.8.7 1.4 1.2 2.1.4.6.8 1.1 1.4 1.4.5.3 1.1.6 1.7.8.1.1.3.2.4.4z" fill="#0a5064"/><path d="M81.9 44.7c-1.3-.5-2.6-1.1-3.5-2.1C76.9 41 75 40.4 73 40c-1.9-.4-3.8-.8-5.8-.6-2.3.2-4.6.6-6.9 1.3-.4.1-.8.3-1.2.2 1-1 2.2-1.5 3.4-1.8 2.5-.6 5.1-1 7.7-.9 2.1.1 4.3.3 6.3 1.3 1.2.6 2 1.5 3 2.3.7.6 1.3 1.3 1.9 1.9.4.3.6.6.5 1z" fill="#5d83a4"/><path d="M69.1 42.5c1.8.5 3.8.5 5.6 1.1 2.1.7 4 1.5 5.9 2.7.3.2.6.4.6.8a1.96 1.96 0 0 1-.9.9c-.9-.4-1.6-1-2.5-1.4l-1.6-1.2c-.6-.2-1.2-.3-1.8-.3-.9 0-1.8-.1-2.7-.2-.3 0-.6-.1-.8-.4 0-.6-.3-1-.9-1.1-.4 0-.9-.2-.9-.9z" fill="#33506b"/><path d="M83.7 68.3c-.6.6-1.4.8-2.2 1-.7.1-1.3-.2-1.9-.4-.9-.3-1.8-.5-2.7-.9-.3-.1-.5-.2-.7-.4 0-.1-.1-.1-.1-.2 0-.5.1-1 0-1.4 0-.2.1-.3.2-.4.1-.3.2-.3.5-.2 2.2 1.1 4.6 1.8 6.9 2.9z" fill="#333b43"/><path d="M76.2 67.4c0 .1 0 .1 0 0 .1.6.4.6.8.8l2.6.9c.3.1.7.1.5.6-1 .2-2 .4-3 .4-.7 0-.8.2-.8.8v.6c.1.1.1.3.1.4 0 .2 0 .4-.2.4s-.3-.1-.4-.2c-.2-.3-.2-.7-.3-1-.1-.2 0-.4-.3-.5-.2 0-.2.2-.3.3-.3.4-.6.7-1 .2-.1-.2 0-.5.1-.7.5-.2.5-.7.6-1.1 0-.3 0-.6.1-.9 0-1 0-2-.4-2.9a.47.47 0 0 1 .1-.6c.7.2 1.3.4 2 .7v.4c-.2.4 0 1-.2 1.4z" fill="#c7d5e3"/><path d="M74.6 60.3c-.4-.1-.4-.4-.4-.7v-2.5c-.1-.3.2-.6.2-.9.1-.3.3-.6.4-.8.3-.6.3-1.1 0-1.7-.1-.2-.3-.4-.1-.7a2.14 2.14 0 0 1 1.9-.3c.4.2.4.6.3 1-.2 1.2-.3 2.4-1 3.4-.3 1.1-.8 2.2-1.3 3.2z" fill="#fed9d9"/><path d="M69.7 64.2c.9-.1 1.7-.6 2.6-1v.5c.1.1.1.2.1.3 0 1.1-.4 2.1-1.5 2.6-.9.4-1.7.6-2.6 0-.7-1-.2-1.8.5-2.5.4 0 .7-.1.9.1z" fill="#eaa8a8"/><path d="M77.5 49.4c.1.2.2.4.1.6-.4.1-.8-.2-1.1-.3-.9-.4-1.7-.6-2.6-.8l-2.8-.5h-.5c-.4-.1-.9-.2-1.4-.2-.3 0-.7.1-.8-.3-.1-.3 0-.6.3-.8.1-.1.3-.1.5-.1 1.7-.2 3.4.2 5.1.7.7.3 1.5.5 2.1.9.3.1.9.2 1.1.8z" fill="#9bb2c9"/><path d="M73.9 48.7c1.3.2 2.5.7 3.7 1.3v.5c.1.7-.2 1.1-.9 1.2-.1.2-.3.4-.6.4-1.1.3-2.1.4-3.2.4-.2-.2-.3-.4-.7-.3-.2.1-.5.1-.7 0s-.5-.2-.2-.5c.5-.2.9-.5 1.5-.4.2.2.4.3.6.2l1.7-.2c.4-.1.9-.1 1.3-.3.2-.1.4-.1.4-.4 0-.2-.1-.4-.3-.4-.3-.2-.6-.4-.9-.3s-.3.5-.6.6c-.2.1-.5.3-.7.1-.4-.5-.7-1.2-.4-1.9z" fill="#48525d"/><path d="M77.5 49.4c-.4-.3-.9-.5-1.3-.8-.2-.3-.3-.6-.3-.9.1-.6.1-1.2.2-1.8 0-.2 0-.5.4-.6.5.4 1.1.6 1.5 1.2.1.1.2.3.1.5-.2.8 0 1.7-.5 2.4h-.1z" fill="#8193a3"/><path d="M75.9 57.1l.7-3.3c.1-.3.1-.7-.1-1 0-.2.1-.3.3-.2.3-.1.5-.6 1-.3.4.3.3.7.2 1.2-.4 1.4-1 2.6-2.1 3.6z" fill="#f8c0c0"/><path d="M77.6 49.4c-.1-1 .1-1.9.3-2.9.9.4 1.8.7 2.4 1.6-.7.7-1.6 1.1-2.7 1.3z" fill="#26445f"/><path d="M43.4 32.3v1.6c0 .5-.1 1 0 1.5.1.6-.1.8-.7.7v-5.2c0-.5.2-.8.7-.7-.1.6 0 1.4 0 2.1z" fill="#003c50"/><path d="M76.8 52.6c-.1.1-.2.2-.3.2l-1.9.3c-.7.1-1.3-.4-2-.5-.1 0-.2-.1-.1-.2.1-.2.3-.2.4-.1 1.3 0 2.6-.3 3.9-.6v.9z" fill="#a48b8b"/><path d="M72.3 64v-.3c.8.2 1.4.6 2 1.1.6 1.1.6 2.4.6 3.6-.5.3-.6-.1-.7-.4-.1-.4-.1-.8-.2-1.3-.1-.9-.5-1.6-1.2-2.2-.2-.1-.4-.3-.5-.5z" fill="#edf3f8"/><path d="M52.3 73.2c-1.1.1-2.1.6-3.2.8l-6.5 1.4c-2.5.5-5.1.7-7.6 1-2 .2-4 .1-6 0l-5.4-.6c-.9-.1-1.8-.3-2.7-.5s-1.2 0-1.2 1v.6c0 .4-.2.5-.6.3.4-.1.4-.4.4-.7 0-.8-.1-1.6.1-2.4.2-.7.3-.9 1.1-.7l3 .6c1.6.3 3.2.4 4.8.6 2.2.2 4.3.1 6.5.1 2 0 4-.3 6.1-.5 2.6-.3 5.1-1 7.6-1.6 1.1-.3 2.2-.7 3.3-1.1.3-.1.5-.2.8-.1.4.5.1 1 .1 1.4-.3-.1-.4.2-.6.4z" fill="#283945"/><path d="M41.8 73.3c-.1 0-.1 0 0 0-.9-1.2-2.2-.6-3.2-.5-1 0-1.9.2-2.8.2h-5.4c-2.1-.1-4.1-.3-6.2-.7-.4-.1-.5-.2-.4-.6.2-.3.4-.3.7-.3L38 69.8l5.9-.6 6.2-.7 2.9-.3c.3 0 .5 0 .7.2 0 .3-.2.5-.4.6-2.9 1.1-5.8 2.1-8.8 2.8-.4.1-.8.3-1.2.4l-.2-.2c-.5-1-.9-1-1.6-.1-.1.2-.2.5 0 .7.2.3.4.4.3.7z" fill="#304353"/><path d="M53.7 68.6l-5.1.5-4.7.5-6 .6-4.6.5-6 .7-3.5.3h-.1c-1.8.4-1.9.3-1.9-1.5v-4.8c-.4-.3-.3-.7-.3-1.1l.1-7.5c0-.4 0-.8-.1-1.2v-2.3c-.2-3.8.4-7.5.2-11.3v-.2c.3-.7.8-.4 1.3-.3-.2.2-.5.4-.5.8 0 .2-.1.3-.1.5-.1.4-.1.8-.1 1.1v11.4c.1 2.5.1 5 .1 7.5 0 .3.1.6.3.9.2.6.1 1.2.1 1.9 0 1.2.1 2.4 0 3.7v.3c.1 1.5.1 1.5 1.6 1.3 1.3-.1 2.5-.3 3.8-.4.7 0 1.5 0 2.2-.3h.4c1.1-.1 2.3-.3 3.4-.4.5 0 1 0 1.4-.1.2-.1.4-.2.5-.4s.3-.3.5-.2c.2.4.4.5.8.4.5-.1 1.1-.1 1.6-.2 1.4 0 2.8-.4 4.3-.4 1 0 2-.2 3.1-.3.5-.1.7-.3.6-.8 0-.4.1-.9.1-1.3 0-.2 0-.3.2-.5.1-.1.2-.1.4 0 .4.4.2.9.2 1.4 0 .9.1.9.9.9 1.8-.1 3.6-.5 5.4-.5.2.1.7 0 .6.5-.1.3-.4.4-.7.3-.1-.1-.2-.1-.4 0z" fill="#1e2930"/><path d="M52.4 72.5c.1-.5.1-1 .2-1.4.3-.5.6-.9.8-1.4.1-.1.2-.2.3-.1.1.4.3.5.8.3l6.1-2.1c.4-.1.9-.4 1.3 0 .2.6-.2.8-.6.9l-3.5 1.1c-.9.3-1.9.5-2.8 1-.7.3-1 1.1-1.5 1.6-.2.2 0 .6.1.9.6 1.1 1.4 2.1 2.3 3.1.4.4.7.5 1.2.1.6-.5 1.1-.4 1.8.2.8.6 1.4 1.5 2 2.2.8.9 1.7 1.5 2.9 1.5 1 0 2 .4 3 .7.2 0 .3.1.4.3.1.7.1 1.3-.3 1.9-.2.3-.5.3-.8.2-2.7-.7-5.2-1.8-7.1-3.9-.1-.1-.2-.2-.3-.2-.7-.2-.7-.7-.6-1.3 0 .3-.1.5-.1.8-.5.5-1.1.6-1.7.2-.5-.3-.9-.5-1.5-.8-.7-.3-1.1-.9-1.5-1.5-.4-.7-.7-1.5-1.1-2.3v-.2c.2-.7.1-1.3.2-1.8z" fill="#83a6c2"/><path d="M61.8 67.6l-8.2 2.7c-.1-.4.2-.6.2-1 .2-.3.5-.6.4-1 .1 0 .2 0 .3-.1s.3-.1.3-.3c0-.1-.2 0-.4-.1 0-.4.3-.4.6-.4.5-.1.9-.2 1.3-.5.2 0 .5-.1.7-.2 1.4.3 2.6-.3 3.9-.6 1-.3 1.1-.2 1.4.8-.2.4-.2.7-.5.7z" fill="#313940"/><path d="M41.3 71.9c.2-.6.6-1 1.3-.9.6.1.8.7.7 1.3 0 .1-.1.1-.1.2-.4.4-1 .3-1.5.2-.4-.1-.5-.4-.4-.8z" fill="#c7c7c7"/><path d="M41.3 71.9c0 .5.2.6.6.6h1.2c-.3.8-.7 1.1-1.4.9-.3-.5-.7-.9-.4-1.5z" fill="#a7a7a7"/><path d="M21.7 41.8v13.8l-.1 4.8v.9c0 .5.1 1-.5 1.2-.5.2-1.1-.1-1.5-.6v-11c-.1-3.4-.1-6.8-.1-10.2.2.2.1.5.1.8v4.3c0 .6 1.2 1.5 1.7 1.4.3-.1.3-.4.3-.6v-4c0-.3 0-.6.1-.8z" fill="#48667d"/><path d="M22.4 42.1c-.1-.5.3-.5.6-.6l7.1 1.1 14.3 2.3 10.2 1.6c0 .4-.4.2-.6.3-.2.2-.5.2-.8.2l-5.5-.9c-.4-.1-.7-.1-1.1-.1-1.6-.1-3.2-.5-4.8-.7l-6.1-.9-7.1-1.1-5.4-.8c-.1-.2-.5-.3-.8-.4z" fill="#182127"/><path d="M52.4 74.3v.2c.6 1.2.5 2.5.9 3.7.1.5-.2.8-.9.8-.9 0-1.8-.2-2.6-.4-.5-.1-.9-.1-1.4.1-1.3 0-2.6-.3-3.9-.4L40 78h-.4c-.9-.1-1.1-.5-.7-1.3l7.5-1.3 5.9-1c0-.2.1-.2.1-.1z" fill="#88b9cb"/><path d="M36.1 77.9v-.8c.2 0 .4-.1.6-.1.4.9.3 1.7.1 2.6-.3.3-.6-.1-1-.1.3.4.7.4 1 .5.4.2.8.3.8.8.1.5-.3.7-.7.9-1.3.8-2.7 1.2-4.2.9-.8-.2-1.6-.3-2.4-.4-.4-.1-.8-.2-1-.5-.1-.7.3-1 .8-1.3 1-.6 2.1-.9 3.2-1.3.5-.1.9-.3 1.4-.3.7-.1 1.2-.4 1.4-.9z" fill="#374d60"/><path d="M38.9 76.6c0 1 0 1 .9 1 2.9 0 5.7.3 8.6.8 1.4 0 2.7.4 3.9 1.1.2.1.6.2.4.6-.3.2-.7.2-1.1.1a23.69 23.69 0 0 0-3.6-.9c-2.6-.4-5.2-.6-7.8-.6-.4 0-.8-.1-1.1.4-.1.2-.2.4-.5.4-.2-.1-.3-.2-.3-.4 0-.8-.1-1.7.4-2.4.1-.1.1-.1.2-.1z" fill="#395165"/><path d="M36.7 79.6v-2.7c.4 0 .7-.1 1.1-.1.1.1.3.2.3.4 0 .9.2 1.8-.1 2.6-.5.3-.9.4-1.3-.2z" fill="#4d6d87"/><path d="M37.9 79.8v-3c.3-.1.6-.1.9-.2 0 .7 0 1.3-.1 2-.1.2-.1.5.1.7-.2.7-.3.7-.9.5z" fill="#2c3e4d"/><path d="M52.4 74.3h-.1v-1.1c.1-.2 0-.5.1-.7v1.8z" fill="#304353"/><path d="M19.6 61.9c1.6.6 2.1.9 2-1.3-.1-1.4 0-2.8 0-4.2 0-.3-.1-.5.1-.8v9.8c0 .1-.1.3-.1.4 0 .4 0 1-.6 1-.7 0-1.5-.3-1.4-1.1v-3.8z" fill="#3c5568"/><path d="M72.2 85.6c-.3 0-.5.1-.7.3-1.2.8-2.4.1-3.6-.2-.4-.1-.8 0-.8-.5v-.5l.5-4.5.5-4.3.3-2.4c.1-.3 0-.5-.3-.8-.5-.4-.8-1-1-1.6-.1-.7.4-1.1.9-1.6 1.3-1.1 3.2-.6 4 1 0 .4 0 .9-.2 1.3-.1.3-.2.6-.4.7-.7.5-.6 1.2-.5 2l.9 5.2.7 4.1c0 .3.2.6.2 1 .1.4 0 .7-.5.8z" fill="#2f363e"/><path d="M37.9 79.8c.4.1.7-.1.9-.4.1-.1.1-.3.1-.4.2-.2.4-.1.7 0 .1.1.3.1.4.2 2.6 1.5 2.6 1.5 5.5 1.1 2-.2 4.1-.5 6.1-.3h1.1c.4.1.4.4.3.8s-.4.7-.8.8c-1 .2-1.9.3-2.9.3l-7.1.9c-.6.1-1.3.1-1.9.4-.7.3-1.5.3-2.2.7-.5.3-1.1.4-1.7.7-.8.3-1.5.2-2.3 0l-3.3-.5c-2-.4-2.4-.9-2.2-3 .5 0 .6.4.8.7 1.8.5 3.6 1 5.5.7.9-.1 1.6-.7 2.4-1.1.3-.2.3-.5-.1-.7-.4-.3-.9-.4-1.4-.5-.2-.1-.5-.1-.5-.4s.2-.4.5-.5c.3-.2.4.1.5.2a1.38 1.38 0 0 0 .4.3c.4.1.8 0 1.2 0z" fill="#243340"/><path d="M34.1 84.4c.8 0 1.5-.1 2.3-.3l7.2.3c2.7-.1 5.3-.3 7.9-.8 3.6-.6 7.1-.4 10.6.4 1.4.3 2.9.6 4.3.8.3 0 .6.1.8.3 0 .5.4.4.6.6-1.2.3-2.4-.1-3.5-.2-1.8-.2-3.6-.7-5.4-1-2.5-.4-5-.2-7.5.1-1.7.2-3.3.4-5 .5-2.5.1-5 .1-7.5 0-1.4 0-2.9-.1-4.3-.4-.1-.1-.3-.1-.5-.3z" fill="#7ca4b8"/><path d="M72.2 85.6c.3-.2.4-.4.3-.7s-.1-.7-.2-1a1.08 1.08 0 0 1 .7-.3c1.6.1 3-.6 4.5-1.1.3-.1.5-.3.8-.2l1.3 2.2c-2.4.6-4.9 1.1-7.4 1.1z" fill="#76a0b0"/><path d="M29.5 81.6c-.4-.1-.6-.4-.8-.7.1-.6.6-1 1.1-1.2 2-1 4.2-1.5 6.4-1.8.1.6-.1.9-.7 1-1.7.4-3.4.8-5 1.7-.5.2-.9.5-1 1z" fill="#4b6a84"/><path d="M72.9 52.4h-.2c-.2.2 0 .1.1.1.7 0 1.3.3 1.8.6.9 1.1.7 2.2 0 3.3-.9 1.4-2.7 1.5-3.9.2-.8-.8-1.4-1.8-1.3-3v-.1c.1-.7.3-.8 1.2-.9-.2 0-.4.1-.6.1-1.1.1-2.3.2-3.4-.2-.2-.3-.2-.7-.2-1l.4-3c.1-.3.2-.5.4-.6a.91.91 0 0 1 1 0c.5.2 1 .1 1.5.1.3 0 .5 0 .8.1.1 0 .3 0 .4.1a.55.55 0 0 1 .3.5l.4 2.2c.1.4.1.7-.3.9.4.2.4.2.7.2h1.4c-.1.4-.4.2-.5.4z" fill="#2c3239"/><path d="M68.1 53.9c-.1.6-.3 1.2-.6 1.7-.4.9-1 1.6-2 1.9-1.2.4-2.1 0-2.8-.8-.9-1-1-2.2-.3-3.3.3-.4.7-.8 1.4-.8.3.1.6 0 .9.3 0 .3-.2.3-.3.4-.3.2-.9.1-.8.5.1.3.6.4 1 .4.7-.1 1.5-.1 2.2-.1.6-.2.6-.2.2-.7-.1-.1-.3-.2-.2-.4s.3-.2.5-.2c.7 0 .8.5.8 1.1z" fill="#2d343b"/><path d="M62.7 53.4c-.7 1.2-.5 2.5.6 3.5.9.8 2.2.7 3.3-.1.4-.3.6-.8 1-1.2-.4 1.6-2.5 2.9-4.3 1.7-.2.3 0 .5.1.8 1 2.3 2.7 4.2 4.8 5.6.3.2.7.2 1 .3.2 0 .4 0 .5.3h-.9a.47.47 0 0 1-.6.1c-.5-.4-1.2-.5-1.7-.9l-2.6-2.7c-1.2-2.2-2.2-4.4-2.7-6.8-.1-.4-.1-.8.4-1 .5-.1 1-.2 1.1.4z" fill="#f2b1aa"/><path d="M68.1 53.9c-.1-.5-.3-.9-.9-1-.3 0-.5 0-.8-.1-.1 0-.1-.1-.1-.2.1-.1.2-.1.3 0h4.3c-.7.3-1.3.5-1.6 1-.3.1-.9-.3-1.2.3zm1.3-.2c.1 1.2.6 2.2 1.5 2.9 1.1 1 2.4.9 3.7-.2 0 .3-.3.5-.4.7-1.3.9-2.6.8-3.6-.4-.8-.8-1.5-1.7-1.2-3z" fill="#a47f7f"/><path d="M55.3 48c1.9-1.8 4-3.2 6.5-3.9 1.4-.4 2.8-.8 4.2-.9.2 0 .3-.1.5 0 .6.2 1-.1 1.3-.4.2-.2.4-.5.8-.5 0 .6-.6 1.1-1.3 1.3-.2.1-.5.1-.7.2s-.4.2-.4.5c.1.6-.3.8-.8.9l-2.5.4c-1 .2-1.9.4-2.7 1.1-1 .3-1.8.9-2.5 1.5-.4.3-.2.9-.3 1.3-.2.3-.5.1-.7.1-.1 0-.1 0-.2-.1s-.2-.2-.3-.2c-.1-.2-.1-.3-.2-.3-.3-.3-.8-.5-.7-1z" fill="#314b64"/><path d="M55.3 48c.2.4.5.6.9.9.2.2.2.5.2.8 0 .8-.2 1.1-1 1-.7-.1-1.1.2-1.4.8-.4.8-.6 1.7-1.3 2.4-1.1.3-2.1-.1-3.2-.1-.3-.1-.6-.1-.9-.2-.3-.4.1-.6.3-.8a26.22 26.22 0 0 0 2.5-2.2c.4-.2.6-.9 1.2-.8.2.1.4.2.6.2.4.1.7 0 .7-.5 0-.4.1-.9 0-1.3.1-.4.4-.8.9-.9.1.1.3.4.5.7z" fill="#b3b3b3"/><path d="M52.6 49.7c-.3.3-.7.6-1 .9-.3-.3-.2-.8-.2-1.2-.1-.6-.4-1.2-1.1-1.2-.6-.1-1.2-.2-1.8.2-.3.2-.6.3-.9 0-.2-.4 0-.8-.2-1.1v-.9c0-.2.1-.5.4-.5l5.5.8c.3 0 .5.1.8.1.2.2.6 0 .6.4-.2.3-.5.6-.7.9 0 0-.1 0-.1.1-.1 0-.2.1-.3 0-.6 0-.8.2-.8.8 0 .2 0 .5-.1.7 0-.1-.1 0-.1 0z" fill="#e3e3e3"/><path d="M66.6 43.5c.8-.2 1.6-.4 2.1-1.3.2.1.3.2.5.3.3.4.7.8 1.2.8.7 0 .8.4.8 1-.1.4.1.7 0 1.1-.3 1.1-1 1.5-2.1 1.7-1.8.1-2.7-.6-2.8-2.5 0-.4-.3-.9.3-1.1z" fill="#94adc4"/><path d="M85.3 69.3c2 1.1 4.2 1.7 6.4 1.9.3 0 .5.1.5.4-.2 3.7-.5 7.5-2.3 10.9-.7 1.4-1.7 2.5-3.1 3.2-.6.3-1.3.5-1.9.4-.3-.3-.3-.6-.3-.9v-2.7c-.1-1 0-2 0-3v-3.3c-.1-1 0-2 0-3 0-1.1-.1-2.2.1-3.3 0-.5.1-.8.6-.6z" fill="#dbdbdb"/><path d="M85.3 69.3c-.3 0-.4.2-.5.4-.2.4-.5.7-.8 1l-5.1 5.1c-.2.2-.4.6-.9.5-.2-.9-.3-1.7-.3-2.6.7-1.3 1.8-2.2 3-3 1.5-.4 2.9-.9 4.2-1.8a.78.78 0 0 0 .4.4z" fill="#c7c7c7"/><path d="M84.8 82.4V86h-.6c-.9-.2-1.7-.5-2.3-1 0-.2.1-.4.3-.6l1.9-1.9c.2-.1.4-.4.7-.1z" fill="#b3b3b3"/><path d="M71.6 79.6c-.5-2.1-.8-4.3-1.1-6.4 0-.2 0-.4.2-.5.5-.2.7-.7.9-1.1.6.1.8.6 1.1 1 .3.3.6.7 1.1.9.4.3.6.7.6 1.2-.1 1.4.5 2.1 2.4 2l.9 3.8c0 .1.1.3.1.4.1.5-.2.7-.6.8a4.53 4.53 0 0 1-1.6.3c-.8.1-1.2-.2-1.4-.9-.3-1-.3-1-1.4-1-.5-.2-.9-.1-1.2-.5z" fill="#a4bbd2"/><path d="M77.9 76.3l6.1-6.1c.2-.2.4-.5.7-.5V73c-.1.2-.2.5-.4.7l-5.8 5.8-.6-3.2zm6.9-.2v3.3c-.2.4-.4.7-.7 1l-2.8 2.8c-.2.2-.4.5-.8.4-.5-.6-.9-1.3-1.2-2.1-.1-.4.1-.6.3-.8l4.3-4.3c.3-.3.5-.6.9-.3z" fill="#b3b3b3"/><path d="M84.8 76.1c-.2 0-.3.1-.5.3l-4.8 4.8c-.1.1-.2.2-.2.3-.4-.6-.6-1.2-.7-1.9 0-.2.1-.5.3-.6l5.9-5.9v3z" fill="#c7c7c7"/><path d="M71.6 79.6h1.7c.6 0 .9.2 1 .8.3 1.4.3 1.3 1.7 1.1.4-.1.8-.1 1.1-.2s.6-.1.6-.5l.6 1.4c-.5.6-1.3.6-2 1a7.25 7.25 0 0 1-4.1.6c-.1-1.4-.5-2.7-.6-4.2z" fill="#8eadc7"/><path d="M76.8 76.6c0 .1 0 .3-.2.3-1 .3-2.3-.6-2.4-1.7 0-.7-.1-1.3-.5-1.8-.3-.3-.1-.6-.1-.9.1-.2 0-.5-.1-.7 0-.4-.1-.8.4-.9.5.3.5-.1.6-.4s.2-.7.6-.6c.4 0 .5.4.5.8 0 .2.1.5.1.7s-.1.6.3.6c.3 0 .1-.4.2-.6.3 1.8.4 3.5.6 5.2z" fill="#b8cadc"/><path d="M80.5 83.5l3.6-3.6c.2-.2.5-.4.7-.6v3c-.6.1-.8.6-1.2 1-.6.5-1.1 1.2-1.7 1.6-.6-.3-1.1-.7-1.4-1.4z" fill="#c7c7c7"/><path d="M80.7 70.7l-3 3-.1-2.1c0-.4.1-.5.5-.5.8 0 1.7-.2 2.6-.4z" fill="#b3b3b3"/><path d="M80.1 69.7c-.1-.3-.4-.3-.6-.4l-2.9-.9c-.5-.1-.8-.3-.3-.8l5.2 1.7c-.5.2-1 .3-1.4.4z" fill="#a3b6cb"/><path d="M69.1 47c1.4-.4 1.8-1.4 2-2.7.1.6.7.4 1 .5l2.5.2c.2.2.3.5.3.8 0 .5-.1 1-.2 1.5 0 .3-.1.6-.6.6-1.4-.4-2.9-.8-4.4-.7h-.6V47z" fill="#454f59"/><path d="M74.2 47.8a.55.55 0 0 0 .3-.5c0-.8.1-1.6.2-2.3.7 0 1.3 0 1.9.4-.2 1.1-.3 2.2-.3 3.3l-2.1-.9z" fill="#5b6876"/><path d="M76.2 67.4c0-.5-.1-1 .1-1.5 0 .6.1 1.1-.1 1.5z" fill="#a3b6cb"/><path d="M74 71c-.2.4-.4.8-.1 1.2.1.1 0 .3-.1.4-.9-.4-1.4-1.2-1.9-1.9-.1-.1-.1-.2-.2-.2-1.2-1.4-2.5-1.9-3.7-.9-.3.1-.5-.2-.6-.4-.3-.4-.5-.8-.7-1.2-.4-.9-.2-1.3.7-1.5.1 0 .2-.1.3-.1.2 0 .4.1.6.2.9.3 1.7.1 2.6-.1l3 1.6c.7.4.8 1.4.2 2.4-.1.1-.1.3-.1.5z" fill="#a8c4de"/><path d="M74.2 70.4V70c.5-1.4-.2-1.9-1.4-2.4-.7-.3-1.4-.6-1.8-1.3.9-.6 1.1-1.5 1.3-2.4 1.7.7 2 2.2 2.1 3.8 0 .3-.1.7.4.7 0 .5 0 .9-.1 1.4 0 .3-.2.6-.5.6z" fill="#cadaeb"/><path d="M68.4 66.5h-.6c-.1-.1-.3 0-.4-.1-.2-.3-.6-.6-.8-.9-.2-.2-.3-.5-.2-.7.2-.4 0-.6-.2-.8-.6-.4-1-1-1.6-1.3-.4-.2-.6-.6-.8-.9l-.9-1.9c-.4-1-.8-1.9-1.4-2.7-.2-.2-.3-.5-.3-.8.2-.8-.2-1.6-.4-2.3-.1-.4-.4-.8 0-1.3.4-.1.7-.2.9.3-.2.3-.1.6-.1.9.4 1.9 1.3 3.6 2.1 5.4.2.4.3.9.6 1.2.6 1 1.4 1.9 2.5 2.6l2.2 1c-.1.4 0 .8-.5 1-.2.1-.2.2-.1.3.1.4 0 .7 0 1z" fill="#e49287"/><path d="M69.1 47v.1h-.4a1.69 1.69 0 0 1-1 .3c-.7-.1-1.4.1-2 .2-1 .1-1.8.6-2.8.7a.47.47 0 0 1-.6-.1c-.2-1.1.1-2.1.6-3 .8-.3 1.6-.4 2.4-.4.5 0 .8-.1.7-.7-.1-.3-.1-.8.5-.6-.2 2 .4 3.4 2.6 3.5z" fill="#2e353b"/><path d="M71.4 51.9c.2-.3.1-.5 0-.8-.2-.9-.5-1.9-.5-2.9 1 .1 2 .2 2.9.5.1.7.3 1.4.4 2-.3.6-.7.8-1.4.7-.4.2-.9.3-1.4.5z" fill="#384149"/><path d="M65.5 47.4c1-.4 2.1-.4 3.2-.3-.3.8-.3.8.5.8.5 0 .9-.1 1.4.1h-3.3c-.6.4-1.2.6-1.9.2-.3-.2-.2-.5.1-.8z" fill="#788da1"/><path d="M74.9 50.4c.1-.1.3-.2.3-.3.1-.8.5-.5.9-.3s1.1.1 1.1.9c0 .3-.1.5-.4.6-.5.1-1 .3-1.5.3-.6-.1-.7-.4-.4-1.2z" fill="#d0d3d5"/><path d="M74.9 50.4c.2.4-.1.9.4 1.1-.7.2-1.4.2-2.1.2-.3 0-.4-.1-.4-.4.5-.2 1-.4 1.4-.7.3 0 .5-.1.7-.2z" fill="#999ea3"/><path d="M22.4 42.1c.8-.2 1.6.1 2.3.2l7 1.1 4.1.6c.5.1.6.5.6.9s0 .9-.5 1-.9.1-1.3-.3c-.9-.8-1.3-.9-2.3 0-.3.3-.7.4-1.1.4h-1.6c-.6 0-.9.3-1 .9 0 .3-.1.5-.2.8-.2.5-.5.9-1.1.9-1.6.1-3.2 0-4.7-.3-.1 0-.1-.1-.2-.1-.2-.5-.1-1.1-.1-1.7-.1-.7.1-1.3-.1-2 0-.7-.1-1.4 0-2.1.1-.1.2-.2.2-.3z" fill="#f3f3f3"/><path d="M22.6 69.3v-5.6c-.2-.6-.1-1.2-.1-1.8 0-.4.3-.4.6-.5h2c.6 0 1.2 0 1.9-.1.3 0 .6 0 .8.1.2.2.3.5.3.8V66c0 .3.1.6 0 .9s-.4.4-.7.6c-.9.5-1.9.9-2.8 1.3-.4.3-.8.4-1.2.5-.3.1-.5.2-.8 0z" fill="#c7c7c7"/><path d="M56.3 67.1c-.2.6-.7.7-1.3.7-.3 0-.5-.1-.8.1-1.9.1-3.7.3-5.6.6-.9.1-1 .1-1-.8V66c-.1-.1-.1-.3-.1-.4.6-.6 1.4-.8 2-1.2.6-.1 1.2-.2 1.9 0 .5.3.3.8.3 1.2.1 1.3.1 1.3 1.5 1.1.3 0 .5-.1.8 0 2.1-.4 1.8.1 1.8-2 0-.7-.2-1.4.2-2 .1-.1.2-.1.2 0 .2.2.2.4.2.6v3.4c.1.1.1.3-.1.4z" fill="#4c4c4c"/><path d="M22.6 69.3c.7-.1 1.2-.5 1.8-.7l7 .1c.3 0 .5 0 .7.2.3.3 0 .6-.2.8-.3.3-.8.4-1.2.6h-.3c-1.6 0-3.3.1-4.9-.1l-2-.2c-.4-.1-.8-.2-1-.6.1 0 .1-.1.1-.1z" fill="#888"/><path d="M47.4 66.4v1.8c0 .3-.1.5-.4.5l-7.9.7c0-.6.5-.6.9-.6 1.3-.3 2.7-.7 4-1.2l3-1.2s.2-.1.4 0z" fill="#6b6b6b"/><path d="M27.8 61.5l-4.6.1c-.4 0-.5.1-.5.5v1.5c-.3-.1-.3-.4-.3-.7-.1-4.4-.1-8.8-.1-13.2V43c0-.3-.1-.5.1-.8 0 .7 0 1.4.1 2.2.2.4.1.8.1 1.3 0 1 0 2 .1 3v6.1c0 .3 0 .7.2 1 .2.6.1 1.2.1 1.8 0 1.1-.1 2.1.1 3.2.3.3.6.2.9.2 1.9.1 3.9-.2 5.8-.1h.9c1.6-.1 3.1.1 4.7-.2.3 0 .6 0 .8.1.1 0 .2.1.2.1 0 .5-.3.4-.6.5-1.1.1-2.2-.1-3.4.2-.3.1-.5 0-.8 0-.3.1-.7.1-1 0-.3.1-.6 0-.9 0-.7.2-1.3.4-1.9-.1z" fill="#484848"/><path d="M22.6 69.4c1.1.5 2.4.5 3.6.5l4.3.3c-1.2.3-2.5.3-3.7.4-1.2.2-2.4.2-3.5.4-.5.1-.8-.1-.7-.6.1-.3 0-.6 0-1z" fill="#6e6e6e"/><path d="M47.4 66.4c-1.6.9-3.4 1.4-5.1 2-.8.3-1.6.4-2.4.6-.3.1-.6.1-.8.4l-2 .3c-.6.1-.5-.4-.5-.7-.3-.4-.3-.7 0-1.1.5 0 .4.4.5.7 0 .4.3.4.6.3 2.9-.5 5.7-1.4 8.5-2.5l1.3-.6c.1 0 .1.1.1.2-.2.1-.2.3-.2.4z" fill="#7c7c7c"/><path d="M47.4 66v-.1c-.2-.2-.2-.5-.3-.7l.1-2.9c0-.3 0-.5-.1-.8-.1 0-.1-.1-.2-.1-.3-.1-.6-.1-1-.1-.2 0-.6 0-.5-.4.2-.2.5-.2.8-.3.3 0 .5 0 .7-.2.4-.8.2-1.7.2-2.5-.1-1.1 0-2.1 0-3.2 0-.3 0-.5.2-.8.6-.3.6.2.6.6v5.4c0 .5.2.6.7.6l3.1.1H53c.2 0 .5 0 .6.4-.3.4-.7.3-1.1.3-.3 0-.6-.1-.9 0H49c-1 .1-1 .1-1.1 1.1v2.1c0 .3 0 .7-.3.9v.5c0 .1-.1.1-.2.1z" fill="#363636"/><path d="M30.8 70.3l1.5-1.1.2-.2c1-.2 2-.3 3-.4.2 0 .5 0 .7.2.1.4.3.8-.3 1.1-1.4 0-2.8.3-4.2.4h-.9z" fill="#686868"/><path d="M35.9 69.8c.4-.2.3-.6.3-1v-.1c-.1-1.9 0-3.9 0-5.8 0-.4 0-.8-.2-1.1 0-.2-.1-.3-.2-.4.1-.2.4-.1.6-.3-.4-.6-.2-1.2-.1-1.7 0-.2.1-.3.3-.3s.3.2.3.4c.1.4-.1.9.2 1.2.2.3.6.1.9.2.4 0 .8-.1 1.2.2.1.1.1.1.1.2s-.1.1-.2.2c-.5.1-1.1 0-1.6.2-.1.1-.3.1-.3.3-.2.3-.2.7-.2 1v4.3c0 .3 0 .5-.2.6v1.2c-.3 0-.3.2-.3.4-.2.2-.3.4-.6.3z" fill="#393939"/><path d="M61.8 67.6c.2-.1.2-.3.1-.5-.1-.4 0-.8-.2-1.2.2-.9.8-1.3 1.7-1.1.3.4.2.8.2 1.2 0 1.3.2 2.6.7 3.9.6 1.3.9 2.7 1.7 3.9.4-.3.4-.7.6-1s.4-.7.9-.6c.5.2.8.5.8 1 0 .6-.1 1.3-.2 1.9-.1.9-.1 1.7-.4 2.4a13.65 13.65 0 0 0-1.7 1.7c-.5.5-1.1.6-1.7.3-2.5-1.1-4.7-2.7-6.5-4.7-.7-.8-1.4-1.6-2-2.6-.4-.7-.4-1.2.4-1.6.5-.3 1-.6 1.4-1l3.6-1.2c.4-.2.7-.3.6-.8z" fill="#a7bed4"/><path d="M67.2 85.1c-2 0-3.9-.6-5.9-.9-2-.4-4-.7-6-.6a49.54 49.54 0 0 0-5.4.6c-1.2.2-2.4.3-3.6.4l-3.8.2c-1.8 0-3.7-.2-5.5-.3-.2 0-.5-.1-.6-.3l1.6-.6 4.7.2c3.5 0 7-.5 10.3-1.5h.1c.4-.2 1-.2 1.1-.6s-.6-.4-.9-.6a.78.78 0 0 1-.4-.4c0-.2.1-.5-.2-.7-1.1-.7-2.3-1-3.6-1.3-.2-.1-.5 0-.7-.2.8-.4 1.6 0 2.5.1.6 0 1.2.1 1.8.2.4 0 .5-.1.3-.5-.4-1.2-.5-2.4-.6-3.6.5.4.6 1.1.9 1.6.5.9 1 1.9 2.3 2.1.3 0 .5.3.7.5.5.5 1 .4 1.5 0 .3.4.1.9 0 1.4 0 .3-.2.7 0 1.2.2-.4.1-.7.3-1 .6-.5.8-.5 1.4 0 1.8 1.5 3.8 2.7 6.2 3.1.5.1.7.4 1.1.7.2.2.3.4.4.7.1-.2.1 0 0 .1z" fill="#749dac"/><path d="M57.6 69.6c-.1.7-.6.9-1.2 1.2-.8.4-.9.6-.4 1.4 2 3.2 4.8 5.5 8.2 7.1.8.4 1.3.3 1.9-.6.4-.5.8-.9 1.4-1.1.5.5.1 1 .1 1.5 0 .4-.1.9-.2 1.3-.1.3 0 .7-.4.9-1.6-.3-3.1-.7-4.7-.9-.7-.1-1.1-.7-1.6-1.2-.7-.7-1.3-1.5-2-2.2-.8-.8-1.1-.8-2-.1-.3.3-.6.2-.9 0a15.42 15.42 0 0 1-2.7-3.6c-.3-.5-.3-1.1.3-1.4.1 0 .2-.1.2-.2 1-1.6 2.6-1.7 4-2.1z" fill="#94b1ca"/><path d="M66.8 84.1c-.6-.5-1.4-.6-2.2-.8-1.9-.5-3.5-1.6-5-2.9-.4-.4-.8-.5-1.3-.2-.3-.3-.3-.7-.3-1.1 0-.6.2-1.1 0-1.7 0-.2.3-.3.2-.1-.2 1 .4 1.5 1 2.1 1.2 1.4 2.9 2.2 4.5 2.9 1 .4 1.9.8 3 .9.4.3.4.6.1.9z" fill="#7ca4b8"/><path d="M66.8 84.1v-.9l.3-2c.1-.3-.1-.6.1-.9.2-.1.3-.4.6-.3l-.5 4.6c-.5.1-.5-.2-.5-.5z" fill="#4b7ba2"/><path d="M58.1 77.4c.2.9.1 1.9.3 2.8v.7c0 .2.2.6-.2.6-.3 0-.7-.2-.6-.7l.4-2.2c-.1-.4.1-.8.1-1.2z" fill="#41739d"/><path d="M61.9 65.9v1.3c-.1-.8-.5-.8-1.1-.6l-1 .3c-1 .4-2 .4-3 .3-.3-.2-.2-.5-.2-.7l-.1-16.1c0-.3-.1-.7.2-1h.1c.4.3.3.7.3 1.1v8c0 .4 0 .8.4 1.1.3.3.3.7.3 1.1v5.1c0 1 .1 1 1 .6l2.2-.9c.7-.5.8-.4.9.4z" fill="#364d5e"/><path d="M56.6 49.3v11.6l.1 6.3c-.1.2-.3.4-.4 0v-3.9c0-.2 0-.5-.1-.7-.1 0-.2-.1-.2-.3 0-.5-.3-1-.4-1.5.4-.6.5-1.2.5-1.8v-3.6c0-.3-.1-.6-.3-.9-.1-.1-.3-.2-.4-.4 0-.1 0-.2.1-.2.4-.2.6-.6.5-1.1-.1-1.3.2-2.5.3-3.7.2-.1.3 0 .3.2z" fill="#262f34"/><path d="M22.6 48.1l4.4.2c1 0 1.3-.3 1.4-1.3.1-1.2.3-1.3 1.5-1.3h1.4c.5 0 .9-.1 1.1-.6.3-.5.8-.4 1.3-.4.5-.1.9-.1 1 .6.1.6.7.4 1.2.4s.4-.4.4-.7.1-.7-.3-1l10.2 1.5c.3 0 .5.2.7.2.2.3.1.5-.1.7-.4.3-.4.7-.4 1.1 0 .6.1 1.1-.2 1.7-.4.4-.9.3-1.4.2s-1-.1-1.5 0c-.8.4-1 .4-1.6-.3l-1.2-1.2c-.2-.2-.4-.3-.7-.4-.8-.1-1 .1-.8.9.1.4.3.7.4 1.1.2.6 0 .8-.6.9h-.2c-1.7.1-2-.2-2-1.9l-.1-2.1v.9c0 .5-.2.9-.8.9-.7.1-1.1-.1-1.3-.7-.1-.4-.3-.7-.8-.7-.6-.1-.9.1-.9.7 0 .9-.5 1.2-1.3 1.6-2.3 1-4.5 1.1-6.8.2-.5-.2-1.1-.2-1.6-.5-.2-.1-.6-.2-.4-.7z" fill="#e8e8e8"/><path d="M45.9 49.1v-1.4c0-.7-.2-1.5.8-1.8.1 0 .1-.2.1-.3.4 0 .7 0 1 .1-.3.5-.1 1-.2 1.5-.2.3-.2.6-.2 1 0 .9-.6 1.2-1.5.9z" fill="#cfcfcf"/><path d="M51.6 79.9c-.8.3-1.7.2-2.5.3a60.94 60.94 0 0 0-6 .6c-.3.1-.6 0-.9-.2l-2.8-1.5c-.2-.1-.3-.2-.5-.2.1-.5.5-.6.9-.6 2.4 0 4.8.2 7.1.5l3.9.8c.3.1.6.1.8.3z" fill="#2c3e4d"/><path d="M67.5 66.4c.1.1.2.1.3.2-1.2.5-1.3.6-.6 1.7.3.4.4 1 .8 1.3-.3.4-.7.7-.8 1.3-.1.9-.6 1.6-1.2 2.2-.1.1-.3.3-.5.1-.2-.1-.3-.4-.2-.6.5-.9-.1-1.5-.5-2.2-.2-.4-.4-.8-.7-1.1-.3-.7 0-1.2.5-1.6.4-.4.4-.8.2-1.3L64 64c.2-.6.7-.8 1.3-1 .3.1.3.3.4.6.1 1.1.7 1.9 1.7 2.4 0 .2.1.3.1.4z" fill="#81aacb"/><path d="M64.2 69.4c.3 0 .4.3.5.5.2.4.5.8.8 1.2.3.5.4.9.1 1.4-.1.2-.2.4 0 .5.3.2.4-.1.5-.2.5-.6.7-1.4 1.2-2 .4.6.6 1.3 1.2 1.7.3.3.2.7.1 1l-.8 6.5c-.1.2-.3.3-.6.3-.1-1 .3-1.9.3-2.9l.5-4c.1-.6-.3-.8-.6-1.1-.2-.2-.3.1-.4.3-.3.6-.5 1.2-1 1.7-.9-1.4-1.3-2.8-1.9-4.3.2-.1-.1-.4.1-.6z" fill="#769cbe"/><path d="M71.8 70.5c.9.5 1.4 1.5 2.1 2.1-.1.3-.1.6-.2.9-.2.2-.3.3-.5 0l-1.6-1.8c.1-.5.2-.9.2-1.2z" fill="#8facc8"/><path d="M52.9 80.7c.6.1 1.1.3 1.6.5.2.1.4.2.4.4 0 .3-.2.3-.4.4-1.6.7-3.3 1-5 1.4-2.8.6-5.6.7-8.3.5-1-.1-2.1.2-3-.4.7-.4 1.4-.6 2.2-.7 2.3 0 4.6 0 6.8-.4.8-.2 1.5-.5 2.3-.9l2.7-.3c.2.1.5-.2.7-.5z" fill="#668a97"/><path d="M49.3 81.5c-.1.5-.6.7-1 .8-1.1.4-2.2.5-3.3.6-1 .1-2 .2-3 .1-.6 0-1.2-.1-1.8-.3 1.3-.5 2.6-.6 3.9-.8l5.2-.4z" fill="#55737e"/><path d="M65.4 48.2c.6.1 1.2-.2 1.9-.1-.3 1.5-.6 2.9-.6 4.4-.1 0-.2.1 0 .1.2.1.4.1.6.2-.2.2-.3.2-.5.2-.7.5-1.4.3-2.1-.1-.3-.1-.6.1-.9-.1 0-.1.1-.1.2-.2h-.2c-.3 0-.7.1-.8-.4-.1-1.2 0-2.4.3-3.5.6-.6 1.3-.7 2.1-.5z" fill="#21262b"/><path d="M70.6 53.2c.9-.2 1.8-.4 2.8-.2s1.4.7 1.4 1.8c-.2.2-.4.2-.7.1-1-.3-2-.6-3-1.1-.3-.1-.6-.3-.5-.6z" fill="#6f7378"/><path d="M70.6 53.2c.3.5.9.5 1.4.7.9.4 1.8.7 2.8.9 0 .5-.3.7-.8.5-1.1-.3-2.3-.4-3.4-.9-.3-.1-.7-.2-.7-.6s.3-.6.7-.6z" fill="#4a5056"/><path d="M66.8 54.3c-.8.1-1.5 0-2.3.1-.5.1-.9-.3-1.4-.4-.3-.1-.1-.3 0-.4.3-.3.6-.6 1.1-.6l2.1.6c.3.2.7.2.5.7z" fill="#5d6368"/><path d="M63.1 52.3c.5.2 1 .1 1.6.2l-.8.3c-.5.1-.8.4-1.1.7-.2-.4-.7-.2-1-.3-.2-.2-.6-.1-.9-.3-.2-.1-.3-.4-.3-.6s0-.3.2-.4c.7-.1 1.5-.1 2.3.4z" fill="#9e736f"/><path d="M66.8 54.3c-.1-.4-.5-.3-.7-.4-.6-.3-1.4-.3-1.8-.8.2 0 .3-.1.5-.1l2.1.1c.1.1.2.1.3.2.3.2.6.3.5.7-.2.4-.5.3-.9.3z" fill="#818589"/><path d="M66.7 63.2c-1.2-.5-2-1.4-2.5-2.6l2.5 2.6z" fill="#f0aea4"/><path d="M56.3 49v4.1c0 .7-.2.9-.8.8-.7.1-1.4 0-2 0-.3 0-.6-.1-.7-.4.3-1 .9-1.9 1.4-2.9.3-.5.8-.4 1.2-.4.9.1.9.1.9-.7v-.7c-.1.1 0 .1 0 .2z" fill="#818181"/><path d="M62.4 48.3c.2 0 .3-.1.5-.1.2.2.4.4.3.7-.4.5-.9.5-1.5.7-1 .3-1 .3-1.1 1.4 0 .3 0 .6-.2.9-.5 0-.4-.4-.4-.7 0-.4-.2-.6-.6-.7-.6-.1-1.2-.3-1.7-.6-.1-.1-.2-.2-.3-.4-.3-.9 0-1.5.8-2 .7-.4 1.2-1 2.1-1-.1.7-.1 1.3.1 2 .2.6.4.6.8.3.3-.4.7-.7 1.2-.5z" fill="#25425b"/><path d="M62.4 48.3l-1.6.9c-.3.2-.5.3-.6-.2 0-.3-.1-.7-.2-1-.3-.6-.3-1.1.2-1.6.7-.9 1.8-1 2.8-1.1-.1 1-.6 1.9-.6 3z" fill="#1c2125"/><path d="M57.3 49.4c.1 0 .2.1.3.1.1.3.2.5.2.8v8.2c0 .3 0 .7-.3.9-.6.2-.7 0-.7-.6v-9.6c.2-.1.3.2.5.2z" fill="#49687f"/><path d="M47.7 48.4c.1 0 .3 0 .3-.1.6-.8 1.5-.4 2.2-.5.6-.1 1.3.8 1.4 1.4v1.3c-.9 1.1-2 1.8-3 2.7-.7.4-1 .2-1.1-.5v-3.9c0-.1 0-.3.2-.4z" fill="#d5d5d5"/><path d="M47.7 50.7c0 .6.1 1.2 0 1.8-.1.7.2.9.8.8.3.1.6 0 .9.1-.2.3-.7.2-.8.6-.1 1 0 2-.1 3.1 0 .4 0 .7-.1 1.1 0 .1-.1.2-.1.2-.3.2-.5 0-.7-.3v-3.6c0-.2.2-.5-.3-.4-.1 0-.2.1-.2 0-.5-.4-1.1-.3-1.6-.4l-4.5-.4c-1.1 0-2.1 0-3.2-.2-.6 0-.9.1-.9.8 0 .2 0 .4-.2.5-.3.1-.3.3-.3.6v1.3c0 .3 0 .5-.4.6-.1 0-.1-.1-.2-.2-.3-.9-.1-1.8-.1-2.7s0-1-.9-1.1l-6.4-.4c-1.6 0-3.2-.3-4.9-.3-.6 0-.9.2-.8.8 0 .9.2 1.8-.1 2.7 0 .1-.1.1-.2.2-.2-.1-.2-.2-.2-.4v-6.7c.5-.1.5.3.5.6.1.4 0 .8 0 1.1 0 .5.2.7.7.8l2.4.2 5.1.4 3.2.2c.5.1 1 .1 1.4-.1.2-.3.3-.6.3-.9 0-.2.1-.4.3-.4s.3.2.4.4v.3c.2.9.2.9 1.1 1l8.1.6c.7 0 1-.2 1-.8 0-.3.1-.7.2-1 .3-.4.4-.7.8-.5z" fill="#939393"/><path d="M52.6 49.7v-.1c.3-.7.7-1.3 1.4-1.6.3.7.1 1.3.1 2 0 0 0 .1-.1.1-.1.3-1.3-.1-1.4-.4z" fill="#737373"/><path d="M48.3 53.6c.3-.3.8-.1 1.2-.2 1.1 0 2.2.2 3.3.2.9.3 1.9 0 2.8.3v.1c-.3.4-.7.3-1.1.3-.3 0-.6-.1-.9-.1-.4 0-.8.1-1.1 0h-.2c-.5-.3-.9-.2-1.3-.2-.9 0-1.9.1-2.7-.4z" fill="#505050"/><path d="M47.7 48.4v.4c-.3.6-.2 1.4-.3 2-.1.5-.4.7-.8.7h-1.7c-.6 0-1.2 0-1.8.3-.3.2-.6.2-.9.2-.6-.1-1.3-.1-1.9-.1-.3 0-.5-.1-.7-.3.1-.6.6-.7 1-.8s.9 0 1.4 0 .8-.2.8-.7c0-.3.1-.6.3-.9.4-.4 1-.1 1.4-.1.5 0 1 .1 1.5.1.2 0 .4-.1.6-.1.5 0 .7-.2.7-.7 0-.4 0-.8.4-1v1z" fill="#b9b9b9"/><path d="M54 48c-.4.6-.9 1.1-1.4 1.6V49c0-1.3.1-1.4 1.4-1z" fill="#cbcbcb"/><path d="M68.8 46.7c-1.4 0-2.5-1.4-2.1-2.7.1-.2.2-.3.4-.3.5-.1 1-.4 1.3-.8.3-.3.5-.2.7 0 .3.4.7.7 1.2.7.5.1.5.3.5.8 0 1.4-.8 2.3-2 2.3z" fill="#7495b5"/><path d="M57.5 59.5v-9.1c0-.3-.1-.6.1-.8.7.2 1.3.5 2 .5.6.1.6.4.6.8 0 .3-.1.6.1.8.2 0 .3 0 .3.2v.4c-.8.5-.8.6-.5 1.4.3 1 .8 1.8 1.2 2.7.8 1.1 1.4 2.3 1.9 3.6.4.9.8 1.9 1.6 2.6.2.1.5.2.4.6-.3.4-.8.5-1.2.9-.1.4-.2.7-.7.7-.5.3-1.3.2-1.5 1-.1-.5-.3-.7-.8-.4-1 .5-2 .9-3 1.3-.5.2-.6.1-.6-.4l.1-6.8z" fill="#89bacc"/><path d="M61.4 56.5c-1.2-.9-1.3-2.3-1.7-3.5-.1-.5.3-.8.9-.6 0 .2.1.4.1.5l.7 2.5a1.08 1.08 0 0 1 0 1.1z" fill="#fcc1c1"/><path d="M65.3 63.2c-.1-.2-.3-.4-.4-.6.8.4 1.5 1 2.1 1.7.1.1.1.2.1.3-.2.7-.2.7.3 1.3.1.1.1.3.2.4-1.4-.4-2-1.3-2.2-2.7 0-.1 0-.3-.1-.4z" fill="#d07f71"/><path d="M63.1 48.7c-.2-.2-.3-.3-.3-.6.9-.3 1.7-.7 2.7-.7 0 .3-.1.6-.1.9-.6.3-1.4.2-2 .5-.1 0-.2 0-.3-.1z" fill="#57697c"/><path d="M36.2 52.4l-8.7-.5-4.4-.3c-.4 0-.5-.2-.5-.6v-1.6c0-.2.1-.5-.2-.6v-4.3c.3.1.3.4.3.7v2.9c0 .3.2.4.4.5l4.5 1.2c.3.1.7 0 1-.1l3-.9c.6-.2.9-.5.8-1.1 0-1 .5-1.4 1.5-1.1.4.1.6.3.6.8 0 .8.6.6 1 .6.5.1.6-.3.5-.7 0-.7.1-1.3.3-1.9.4 1 .2 2.1.3 3.2 0 0-.1.1-.1 0l-.3 3.8z" fill="#d0d0d0"/><path d="M32.4 69.1h-.1c-.2-.2-.5-.2-.7-.2h-4.2c-.9-.1-1.9.1-2.8-.4l3.4-1.6c.3-.6.9-.7 1.4-.9.7-.3 1-.7.9-1.5-.1-.7 0-1.4 0-2.1 0-.3 0-.7.3-.9h1c.3.3.3.6.3.9v2c0 .5.2.8.7 1 1 .4 2 .7 2.9 1.2.1 0 .1.1.2.2.1.3-.1.5-.3.7-1 .6-1.9 1.3-3 1.6z" fill="#9d9d9d"/><path d="M27.8 61.5h1.9c.2.2.3.4.3.7v2.6c-.1 1-1.2 1.8-2.1 1.5l-.1-4.8z" fill="#888"/><path d="M23.5 64.4c.1-.3-.2-.9.2-1.1.6-.3 1.3-.4 1.9-.5.2 0 .2.2.2.4v1.4c0 .2 0 .4-.3.4-.6.2-1.1.4-1.7.5-.3.1-.3-.1-.3-.3v-.8z" fill="#878787"/><path d="M27.8 66.3c.7 0 1.1-.5 1.7-.8.3-.1.2-.4.2-.6v-3.3h.9v3.7c0 .4-.1.7-.5.8l-2.1 1c0-.4-.1-.6-.2-.8z" fill="#b3b3b3"/><path d="M55.6 60.8c.5.1.6.5.6.9v.8h-.1c-.9 1-1.1 2.3-1.5 3.4-.1.3-.2.7-.6.9-.5.1-1.1.1-1.6.2-.6.1-.9-.1-.8-.8v-.6c.5-1 1.4-1.7 2.1-2.6-.8-.5-.9-.7-.1-1.3.4-.3.2-.4 0-.5-.6-.3-1.2 0-1.9-.1 0-.1 0-.2.1-.2.9-.4 1.9-.1 2.8-.2.3-.2.7-.3 1 .1z" fill="#5f5f5f"/><path d="M54 66.8l1.3-3.7c.1-.4.4-.6.8-.5l.1 3.7c0 .3 0 .5-.4.5-.6-.1-1.2 0-1.8 0z" fill="#8b8b8b"/><path d="M47.7 65.5V62c0-.7.2-1 .9-.9h.4c.3.2.3.5.3.9v2.1c0 .2.3.3.3.5-.6.4-1.2.8-1.9.9z" fill="#686868"/><path d="M53.6 61.1h.8c-.1.4-.5.6-.8.8-.1.1-.4.2-.3.4 0 .2.3.2.5.2s.3.1.6.2c-1 .9-1.7 2-2.7 2.8-.1-.4.1-.8-.2-1.2-.1-.6.5-.8.9-1.1.3-.3.5-.5.1-.8-.3-.5-.9-.8-.9-1.4.6.1 1.3.1 2 .1z" fill="#737373"/><path d="M52.6 62.4c.6.3.6.6 0 1-.4.3-.9.5-1.2 1-.6.2-1.2.1-1.9.2-.2-.1-.4.1-.6-.2.2-.2.3-.4.6-.6l2.2-1.3c.3-.1.6-.3.9-.1z" fill="#a3a3a3"/><path d="M22.7 55.7V53c.2-.3.6-.3.9-.3h4.1c1.1 0 1.4.4 1.4 1.4v.4c0 .9 0 .9.9 1 .1 0 .2.1.3.1.4.7 1 .8 1.7.7.3 0 .7 0 1 .1.1 0 .1.1.2.1.2.3 0 .6-.1.9l-1.8 3c-.2.3-.4.5-.7.6l-7.4.1c-.2 0-.5.2-.5-.3.1-.5.5-.7.9-1 .5-.4 1.1-.6 1.6-1.1.8-.6 1.6-1 2.4-1.6.3-.2.6-.4.8-.6.4-.3.3-.7-.2-.8-.6-.1-.9-.5-1-1.1-.1-.5-.3-.6-.8-.6-.4.1-.8.1-1.2.1-.6 0-1.2.1-1.4.9-.2.9-.6 1-1.1.7z" fill="silver"/><path d="M22.7 55.7c.7.1 1-.2 1-.9 0-.3.1-.5.4-.5.9-.1 1.8-.1 2.8-.3.4-.1.5.4.5.7.1.6.2 1.1 1 1.1a.47.47 0 0 1 .5.5c0 .3.1.5-.2.7-.4.2-.6.6-1.1.7-.5.3-1.2.2-1.7.4-.6.2-1 .6-1.6.9.4.1.8-.1 1 .3l-2.6 1.8-.1-5.2s0-.1.1-.2z" fill="#b2b2b2"/><path d="M30.5 61.2l2.3-3.7c.1-.2.3-.4.3-.7 1-.5 2-.4 3 .1h.1c.4.5.3 1.1.2 1.6-.2.8-.2 1.5-.2 2.2 0 .1 0 .2-.1.3-1.8.2-3.7.2-5.6.2z" fill="#959595"/><path d="M35.6 66.8c-1.3-.3-2.5-.9-3.8-1.3-.3-.1-.3-.4-.3-.7v-3.3h.7c1-.1 2 0 3-.1.4 0 .6.2.6.5v4.4c0 .2-.1.4-.2.5z" fill="#b0b0b0"/><path d="M35.6 66.8v-4.6c0-.5-.2-.7-.7-.7h-2.6c1.2-.2 2.3-.1 3.5-.1h.4c.2.7.1 1.4.1 2.1v2.9c-.1.3-.3.5-.7.4z" fill="#9b9b9b"/><path d="M36.1 61.1V57c.3-1 0-1.9.2-3 .3.1.2.4.4.5s.3.3.2.5c-.1 1.8.2 3.5 0 5.3 0 .3 0 .7-.3.9-.3-.6 0-1.3-.2-1.9h-.2v1.9c.1-.2 0-.1-.1-.1z" fill="#707070"/><path d="M36.6 67.8v-5.9c0-.2-.1-.4.2-.6.2.3.2.7.2 1v3.6c0 .4 0 .8.5.8 1.2.1 2.3.5 3.5.3l2.4-1.2c.4-.2.5-.5.5-.9v-1.7c0-.3 0-.6.4-.8.4.3.3.8.3 1.3 0 1.4 0 1.4 1.3.9.8-.3 1.1-.9 1-1.8-.1-.5-.1-1.1.3-1.6.2.1.2.3.2.5v3.5c0 .5-.3.8-.8 1-2.9 1.2-5.9 2.2-9.1 2.7-.3.1-.6.1-.8-.1 0-.4.1-.7-.1-1z" fill="#929292"/><path d="M36.7 68.7a45.78 45.78 0 0 0 7.3-1.8l2.4-.9c.4-.2.8-.4.9-.8v.7c-.2.2-.4.4-.7.5-2.9 1.2-5.9 2.2-9 2.7-.3 0-.8.3-.9-.4z" fill="#7f7f7f"/><path d="M36.7 61.1v-.9c1.5-.7 2.9-1.7 4.3-2.5.2-.1.4-.1.6-.1 1.4.2 2.7.1 4.1.1 1.6 0 1.6 0 1.6 1.7 0 .5.1 1-.1 1.5h-1.8c-.3.3-.6.2-.9.2-1.1.1-2.2-.1-3.3.1-.7 0-1.5.2-2.2-.2-.7.1-1.5.1-2.3.1z" fill="#a0a0a0"/><path d="M47.2 61.1v1.8c0 1.3 0 1.3-1.3 1.7-.4-.4-.3-.9-.3-1.4 0-.9 0-.9-.9-.8-.1 0-.3 0-.4-.1-.3.8-.1 1.7-.1 2.5 0 .5-.1.9-.6 1.1l-2.4 1.2c-.3-.2-.3-.5-.3-.8v-4.5c0-.3 0-.5.2-.7.6-.3 1.3-.1 1.9-.1h1.5c.9.1 1.8.2 2.7.1z" fill="#afafaf"/><path d="M47.2 60.9v-2.2c0-.4 0-.5-.5-.6-1.5-.1-3 .1-4.6-.1-.2 0-.5-.1-.7-.2 0-.4.3-.5.6-.7l2.3-1.4c.2-.1.3-.2.5-.3.8-.4 1.5-1 2.4-1.3h.1v6.1c.1.2.1.5-.1.7z" fill="#8f8f8f"/><path d="M52.6 62.4l-3.6 2v-3.3h2.5c.4.4.7.8 1.1 1.3z" fill="#bdbdbd"/><path d="M51.7 60.8v.1h-3.4c-.5 0-.6-.1-.6-.6V58c.2.1.4.2.5.3.3 0 .6.2.8.4l2.2 1.6c.3.1.5.2.5.5z" fill="#7f7f7f"/><path d="M47.2 61.1c-.9.2-1.8.1-2.7.1-.9-.1-1.7 0-2.6-.1-.2 0-.5.1-.7-.1 1.4-.2 2.8-.1 4.2-.1.6.4 1.2 0 1.8.2z" fill="#929292"/><path d="M35.6 66.8l.6-.3c.2.8.1 1.5 0 2.3-1.3.1-2.5.4-3.8.3l2.6-1.8c.2-.1.5-.2.6-.5z" fill="#7c7c7c"/><path d="M41.2 61.2v6a.78.78 0 0 1-.8.1l-3.1-.4c-.4 0-.5-.2-.5-.6v-5c.1 0 .3 0 .4-.1.6-.1 1.2.1 1.8-.1h.1l2.1.1z" fill="#cecece"/><path d="M36.2 68.8v-7.5c.2.1.2.3.2.4v6.6c-.1.2-.1.4-.2.5z" fill="#686868"/><path d="M41.2 61.2H39v-.1l2.2-.1h2.6c.2 0 .5-.1.7.2h-3.3z" fill="#363636"/><path d="M38.9 61.2c-.6.2-1.2.1-1.8.1.6-.2 1.2-.1 1.8-.1z" fill="#707070"/><path d="M63.4 64.8c.2-.2.4-.6.7-.7.3.2.4.4.4.7.1.5.3 1 .5 1.4.3.7.5 1.3-.3 1.8-.4.3-.5.8-.5 1.4 0 .2.1.5-.1.7-.6-1.7-.8-3.5-.7-5.3z" fill="#5f92ba"/><path d="M51.7 60.8c-1.3-.7-2.4-1.5-3.5-2.5.3-.6.8-.8 1.4-1 1-.4 1.4-1 1.2-2-.1-.5-.2-1.1.3-1.6.4 0 .7-.1 1 .1-.3 1-.2 2.1-.1 3.1 0 .1.1.1.2.2 1 .7 2.2 1.1 3.2 1.7.3.2.4 0 .4-.3-.1-1.2.2-2.4 0-3.7 0-.3 0-.6.1-.8.3 0 .3.3.3.5l-.1 5.7c0 .5-.2.6-.6.6h-3.8z" fill="#9d9d9d"/><path d="M56 54c.2.4.1.8.1 1.2v3.7c0 .4-.1.6-.5.3-1.2-.6-2.4-1.1-3.5-1.9-.1-.3.1-.3.3-.4.6.2.7-.1.7-.6v-1.6c0-.3 0-.6.3-.8.7 0 1.3.1 2 .1h.6z" fill="#c6c6c6"/><path d="M36.6 48.5h.1c0 1.6 0 1.6 1.7 1.6.9 0 .9 0 .6-.9-.1-.2-.2-.5-.3-.7-.1-.4-.5-.8-.1-1.2.2-.2 1.4-.1 1.7.2l1.5 1.5c.4.5.8.5 1.2.1 0 1.9 0 1.9-1.9 1.9-.6 0-1.1.1-1.6.5-.3.4-.8.3-1.2.3s-.8-.1-1.1-.1c-.4 0-.5-.2-.6-.6-.3-1-.2-1.8 0-2.6z" fill="#cecece"/><path d="M63.1 48.7h.3c0 1.2-.1 2.4-.3 3.6-.8 0-1.6-.2-2.4-.4-.1-.1-.2-.1-.3-.2v-.8c0-1.3 0-1.3 1.3-1.7.4-.2.9-.2 1.4-.5z" fill="#131619"/><path d="M36.6 48.5l.1 2.3c.1.3.2.5.5.5.8 0 1.6.2 2.4.1 1 .2 2.2.5 3.1.2 1.3-.4 2.5-.3 3.8-.3.5 0 .7-.2.8-.7 0-.6-.1-1.2.4-1.7v1.9c-.3.1-.3.3-.3.5 0 .5-.1 1-.1 1.6 0 .3-.1.4-.5.4l-7.9-.5c-.5 0-1.1-.2-1.6-.1-.4 0-.5-.3-.5-.6-.1-.4-.1-.7-.1-1.3-.4.7 0 1.3-.4 1.8-.1-1.5.1-3.1.2-4.7.2.1 0 .4.1.6z" fill="#acacac"/><path d="M50.7 50.7c-.6.5-1.1 1.2-2 1.1-.1 0-.3 0-.3-.1s.1-.2.1-.2c.6-.5 1.1-1.2 2.2-.8z" fill="#bababa"/><path d="M47.3 54c-.6.7-1.5 1.1-2.3 1.5-.2-.1-.3-.3-.5-.4-.1-.1-.3-.2-.5 0s0 .3.1.4.3.2.3.3l-3 2-3.1 1.9c-.5.3-1 .6-1.6.5 0-1.9-.2-3.8 0-5.8v-.6c0-1 0-1 1-.9.4.4.3 1 .3 1.5 0 .7.2 1.1.8 1.4l1.5.9c.2.1.4.4.6.3s.1-.4.1-.7V53l5.8.4c.4.1.5.3.5.6z" fill="#b3b3b3"/><path d="M36.1 56.9c-1 0-2-.1-3-.1-.4-.4-.2-1-.3-1.5 0-.4.2-.9-.3-1a2.21 2.21 0 0 0-1.6 0c-.3.1-.2.4-.2.6 0 .4 0 .7-.3 1-1.8 0-1.6.1-1.6-1.6 0-1.3 0-1.3-1.3-1.3h-4.9v-.6c0-.4.1-.6.6-.5l2.4.2 6.5.3 3.6.3c.4 0 .5.2.5.6l-.1 3.6z" fill="#cacaca"/><path d="M41 53c.2.1.3.3.3.6v3.5c0 .4-.1.6-.5.3-.9-.6-1.8-1.1-2.7-1.6-.3-.2-.4-.4-.4-.8v-2.1l3.3.1z" fill="#cfcfcf"/><path d="M51.1 53.8v2.6c0 .4-.1.7-.5.8l-2.4 1.2v-4.7c1-.1 2 0 2.9.1z" fill="#afafaf"/><path d="M53.5 53.9v2.9c0 .2.1.5-.1.7-.3.1-.5-.1-.7-.3-.1 0-.1-.1-.2-.1-.1-.1-.2-.1-.3-.2-.2-1-.4-2 .1-3h1.2z" fill="#868686"/><path d="M52.3 53.9c.1 1.1-.2 2.1.1 3.2l-.3.3c-.4 0-.4-.3-.4-.6v-2.3c0-.3.1-.6.5-.6 0-.1.1 0 .1 0z" fill="#b1b1b1"/><path d="M70.6 44.3c-.1.7-.2 1.4-.9 1.8-1.1.6-2.3.1-2.5-1.1 0-.2-.1-.4-.1-.6.3-.3.7-.4 1.1-.4.8-.1 1.6-.1 2.4.3z" fill="#9eb6cc"/><path d="M70.6 44.3c-1.2 0-2.4-.3-3.5 0 0-.1-.1-.2 0-.3.6-.4 1.3-.6 1.8-1.2a1.44 1.44 0 0 0 .3.2c.3.4.7.6 1.2.7.2.2.2.4.2.6z" fill="#c8d5e2"/><path d="M30.4 55.9v-1.5c0-.4.1-.5.5-.5 2.7.1 2.1-.4 2.2 2v.9h-1.9c-.6 0-.9-.2-.8-.9z" fill="#9c9c9c"/><path d="M25.2 59.2h-1.7c1.2-.9 2.3-1.9 4-1.6-.7.6-1.5 1.1-2.3 1.6z" fill="#8b8b8b"/><path d="M44.4 62.4c1.6-.7 1.6-.7 1.6 1v1.3c-.5.3-1 .8-1.4.7-.4-.2-.1-.9-.2-1.5-.1-.5 0-1 0-1.5z" fill="#7a7a7a"/><path d="M44.5 55.7c-.3-.1-.7 0-.8-.4-.1-.2-.2-.7.2-.7s.8-.1 1 .4v.4c0 .3-.2.3-.4.3z" fill="#d3d3d3"/><path d="M55.8 56.1c-.1.2.2.6-.2.7s-.9-.4-.9-.8v-.2c.1-.3-.2-.7.3-.8s.9.3.9.9c-.1 0-.1.1-.1.2z" fill="#878787"/></svg>