<svg xmlns="http://www.w3.org/2000/svg" xmlns:xlink="http://www.w3.org/1999/xlink" viewBox="0 0 108.4 108.4"><circle cx="54.2" cy="54.2" r="54.2" fill="#4f5d73"/><defs><circle id="A" cx="54.2" cy="54.2" r="54.2"/><path id="B" d="M34.3,84.6c0,0.8-0.7,1.5-1.5,1.5h-7.6c-0.8,0-1.5-0.7-1.5-1.5V72.2c0-0.8,0.7-1.5,1.5-1.5h7.6 c0.8,0,1.5,0.7,1.5,1.5V84.6z"/></defs><clipPath id="C"><use xlink:href="#A"/></clipPath><path d="M108.4 97.3l6.1-43.4-23-23.4-2.7 1.4-.5-2.5-2.3-1.1-4.1-3.9L29 28l-4.8-.8-4.7 2.4-.9 3.7-1.9 8.7 7.8 7.8-.8 23.9-4.7 2.1 7.2 7.4-2.1 2.3 25.3 25.1 47-5.6z" opacity=".15" clip-path="url(#C)"/><g fill="#5b575e"><use xlink:href="#B"/><use xlink:href="#B" x="49.6"/></g><path d="M82 48.1l-.8-1.2 6.4-3.9V30l-6.3-2.8.6-1.4 7.1 3.3v14.8z" fill="#665c7a"/><path d="M91.5 41c0 .7-.5 1.2-1.2 1.2h-4c-.7 0-1.2-.5-1.2-1.2v-9.3c0-.7.5-1.2 1.2-1.2h4c.7 0 1.2.5 1.2 1.2V41z" fill="#534b64"/><path d="M25.8 48.1l-7.1-4.2V29.1l7.1-3.3.7 1.4-6.3 2.8v13l6.3 3.9z" fill="#665c7a"/><path d="M16.3 41c0 .7.5 1.2 1.2 1.2h4c.7 0 1.2-.5 1.2-1.2v-9.3c0-.7-.5-1.2-1.2-1.2h-4c-.7 0-1.2.5-1.2 1.2V41z" fill="#534b64"/><path d="M24.9 26.5h57.8v32.1H24.9z" fill="#f5b510"/><path d="M27.5 48.4h52.7v28.2H27.5z" fill="#fac911"/><path d="M33.1 54v22.6H21.9V54a5.59 5.59 0 0 1 5.6-5.6c1.5 0 3 .6 4 1.6.9 1 1.6 2.4 1.6 4zm52.6 0v22.6H74.6V54a5.59 5.59 0 0 1 5.6-5.6c1.5 0 2.9.6 4 1.6.9 1 1.5 2.4 1.5 4z" fill="#f8e618"/><path d="M75.5 50.8c-.6.9-1 2-1 3.1v22.6h-2.8V56.1c.1-2.5 1.6-4.5 3.8-5.3z" fill="#ebdf9f"/><path d="M89.5 73.7c0 1.6-1.3 2.9-2.9 2.9H21c-1.6 0-2.9-1.3-2.9-2.9 0-.8.3-1.5.9-2.1.5-.5 1.3-.9 2.1-.9h65.5c1.6.1 2.9 1.4 2.9 3z" fill="#7dcdce"/><ellipse cx="53.8" cy="26.5" rx="28.9" ry="8.7" fill="#f5b510"/><circle cx="27.5" cy="54.8" r="3.7" fill="#fff"/><g fill="#f88011"><circle cx="27.5" cy="62" r="2.6"/><circle cx="80.1" cy="62" r="2.6"/></g><circle cx="80.1" cy="54.8" r="3.7" fill="#fff"/><path d="M36.9 53.9h33.8v13.8H36.9z" fill="#e3bf14"/><path d="M70.7 53.9v13.8h-2.1V56.1H36.9v-2.2z" fill="#ebdf9f"/><path d="M28.7 31.6h23.1V45H28.7zm27.3 0h23.2V45H56z" fill="#4ab2ac"/><path d="M79.1 31.6v13.5L56 31.6zm-27.2 0v13.5L28.7 31.6z" opacity=".1" fill="#fff"/><path d="M41 23h25.6v5H41z" fill="#fcfcfc"/><path d="M43.2 74.5h21.3V80H43.2z" fill="#e5e5e5"/></svg>